<svg width="330" height="254" viewBox="0 0 330 254" fill="none" xmlns="http://www.w3.org/2000/svg">
<g clip-path="url(#clip0_51_316)">
<path d="M220.977 71.2591C228.035 52.2829 244.711 35.8862 264.863 33.9358C252.747 52.3197 247.525 74.3966 250.12 96.2603C251.151 104.689 253.175 113.955 248.632 121.129C245.805 125.592 240.823 128.34 235.687 129.58C230.551 130.82 225.2 130.724 219.917 130.621L218.735 131.205C215.02 111.303 213.92 90.2353 220.977 71.2591Z" fill="#F0F0F0"/>
<path d="M264.961 34.3493C251.223 43.9467 240.859 57.6287 235.34 73.4519C234.178 76.8491 233.295 80.3963 233.244 84.0037C233.221 87.5203 234.141 90.9788 235.907 94.0199C237.497 96.8885 239.455 99.6386 240.32 102.844C241.231 106.222 240.488 109.64 238.626 112.558C236.348 116.13 232.923 118.669 229.487 121.036C225.671 123.665 221.667 126.334 219.333 130.463C219.05 130.963 218.29 130.495 218.573 129.996C222.634 122.812 231.158 120.203 236.372 114.101C238.805 111.254 240.395 107.656 239.643 103.865C238.985 100.549 236.968 97.7117 235.333 94.8211C233.617 91.7859 232.495 88.6361 232.364 85.1244C232.231 81.5322 232.977 77.943 234.047 74.531C236.53 66.8121 240.212 59.5317 244.957 52.9565C250.331 45.4223 256.954 38.8629 264.54 33.562C265.01 33.2342 265.427 34.0235 264.961 34.3493Z" fill="white"/>
<path d="M236.816 68.2523C234.287 66.9659 232.298 64.8225 231.203 62.2046C230.109 59.5868 229.98 56.6652 230.841 53.9614C231.017 53.415 231.874 53.6628 231.698 54.21C230.892 56.7263 231.012 59.4478 232.036 61.8834C233.06 64.319 234.922 66.3083 237.284 67.4922C237.797 67.75 237.327 68.5087 236.816 68.2523Z" fill="white"/>
<path d="M234.909 92.6716C240.44 90.9247 245.11 87.1573 247.986 82.1206C248.271 81.6213 249.031 82.0893 248.746 82.588C245.743 87.8237 240.876 91.7343 235.116 93.5395C234.567 93.7112 234.363 92.8423 234.909 92.6716Z" fill="white"/>
<path d="M250.942 46.4355C251.817 47.1371 252.852 47.6105 253.955 47.8131C255.058 48.0156 256.194 47.9411 257.262 47.5961C257.808 47.4175 258.012 48.2867 257.469 48.4641C256.288 48.8397 255.033 48.9206 253.814 48.6994C252.595 48.4783 251.448 47.962 250.475 47.1956C250.377 47.1311 250.307 47.0317 250.28 46.9177C250.253 46.8037 250.27 46.6836 250.328 46.5819C250.391 46.4815 250.49 46.4099 250.605 46.3825C250.72 46.3551 250.841 46.3741 250.942 46.4355Z" fill="white"/>
<path d="M313.436 82.3063C313.098 82.4275 312.76 82.5487 312.42 82.6772C307.882 84.3303 303.486 86.3492 299.275 88.7142C298.946 88.8919 298.616 89.0769 298.293 89.2636C288.209 95.0696 279.29 102.697 271.99 111.759C269.088 115.368 266.465 119.192 264.144 123.198C260.939 128.732 257.903 134.986 253.196 139.019C252.709 139.445 252.197 139.841 251.661 140.203L219.54 132.603C219.475 132.549 219.409 132.502 219.344 132.448L218.048 132.203C218.153 131.988 218.267 131.767 218.372 131.552C218.433 131.427 218.501 131.304 218.561 131.179C218.604 131.096 218.647 131.014 218.68 130.937C218.695 130.909 218.709 130.881 218.721 130.861C218.755 130.784 218.795 130.716 218.827 130.646C219.459 129.411 220.102 128.177 220.754 126.946C220.756 126.939 220.756 126.939 220.765 126.933C225.76 117.567 231.581 108.535 238.587 100.674C238.798 100.438 239.01 100.194 239.236 99.9611C242.414 96.4352 245.875 93.1749 249.584 90.2129C251.62 88.5975 253.736 87.0862 255.925 85.6848C261.588 82.0748 267.784 79.3779 274.285 77.6932C287.245 74.3365 301.135 75.1622 312.568 81.7913C312.86 81.9611 313.146 82.1292 313.436 82.3063Z" fill="#F0F0F0"/>
<path d="M313.267 82.6969C296.52 82.0888 280.007 86.773 266.074 96.0842C263.101 98.0971 260.26 100.398 258.047 103.248C255.912 106.042 254.564 109.357 254.143 112.848C253.685 116.096 253.593 119.471 252.354 122.55C251.048 125.796 248.397 128.078 245.153 129.287C241.184 130.767 236.92 130.733 232.751 130.554C228.123 130.356 223.318 130.076 218.968 131.967C218.441 132.196 218.117 131.365 218.643 131.136C226.211 127.846 234.587 130.894 242.424 129.162C246.081 128.353 249.517 126.438 251.199 122.958C252.67 119.915 252.768 116.435 253.203 113.142C253.66 109.686 254.661 106.495 256.67 103.613C258.726 100.664 261.483 98.2475 264.391 96.1673C271.022 91.4995 278.345 87.9033 286.092 85.5102C294.919 82.7301 304.157 81.4804 313.405 81.8152C313.977 81.8362 313.836 82.7177 313.267 82.6969Z" fill="white"/>
<path d="M270.384 92.822C269.139 90.2723 268.841 87.363 269.543 84.6138C270.245 81.8646 271.902 79.4545 274.217 77.8139C274.686 77.4836 275.222 78.1978 274.751 78.5286C272.593 80.0523 271.05 82.2975 270.401 84.8588C269.753 87.4202 270.041 90.1291 271.214 92.4965C271.469 93.0113 270.637 93.3339 270.384 92.822Z" fill="white"/>
<path d="M254.159 111.171C259.627 113.106 265.623 112.909 270.953 110.62C271.48 110.393 271.805 111.224 271.278 111.451C265.728 113.823 259.487 114.015 253.802 111.989C253.26 111.795 253.62 110.979 254.159 111.171Z" fill="white"/>
<path d="M294.797 83.907C295.073 84.9939 295.615 85.9953 296.373 86.8211C297.132 87.6469 298.084 88.2714 299.144 88.6384C299.688 88.8249 299.327 89.6414 298.787 89.456C297.618 89.0451 296.567 88.3542 295.727 87.4436C294.887 86.5331 294.282 85.4306 293.966 84.2325C293.927 84.1221 293.931 84.0009 293.978 83.8935C294.025 83.7861 294.111 83.7006 294.219 83.6544C294.329 83.6118 294.452 83.6145 294.56 83.6618C294.668 83.7091 294.753 83.7972 294.797 83.907Z" fill="white"/>
<path d="M34.8617 245.199C16.4727 236.728 1.38202 218.862 0.958984 198.621C18.3756 212.09 39.995 218.964 61.9922 218.028C70.4743 217.636 79.8677 216.317 86.6775 221.389C90.9148 224.545 93.2786 229.721 94.1273 234.935C94.9759 240.15 94.476 245.479 93.9742 250.739L94.4672 251.962C74.341 254.164 53.2508 253.67 34.8617 245.199Z" fill="#F0F0F0"/>
<path d="M1.37855 198.555C9.91113 212.978 22.7714 224.346 38.1327 231.044C41.4324 232.459 44.9028 233.607 48.4961 233.93C52.0009 234.218 55.519 233.563 58.6848 232.031C61.6652 230.663 64.5554 228.918 67.8166 228.298C71.2541 227.644 74.6059 228.643 77.3757 230.72C80.7647 233.261 83.0384 236.869 85.1393 240.474C87.472 244.476 89.8315 248.671 93.7723 251.31C94.2498 251.63 93.7257 252.352 93.2489 252.033C86.3926 247.441 84.4343 238.744 78.7437 233.084C76.0883 230.443 72.6209 228.586 68.7836 229.05C65.4281 229.455 62.4461 231.252 59.4403 232.664C56.2842 234.146 53.0587 235.027 49.5471 234.892C45.9551 234.754 42.4325 233.739 39.111 232.415C31.6017 229.355 24.6202 225.134 18.4221 219.906C11.3152 213.979 5.27463 206.879 0.561795 198.914C0.270286 198.421 1.08897 198.065 1.37855 198.555Z" fill="white"/>
<path d="M33.0596 229.178C31.5859 231.603 29.2983 233.425 26.6053 234.319C23.9123 235.213 20.9893 235.12 18.3583 234.058C17.8267 233.841 18.1386 233.004 18.6709 233.222C21.1191 234.215 23.8419 234.301 26.3479 233.464C28.8539 232.627 30.978 230.921 32.3369 228.655C32.6328 228.163 33.3538 228.689 33.0596 229.178Z" fill="white"/>
<path d="M57.2652 232.924C55.9409 227.277 52.5369 222.337 47.7318 219.088C47.2555 218.766 47.7795 218.044 48.2552 218.365C53.2492 221.755 56.7812 226.904 58.1463 232.783C58.276 233.344 57.3942 233.482 57.2652 232.924Z" fill="white"/>
<path d="M12.372 213.446C13.1377 212.627 13.6879 211.63 13.9732 210.545C14.2585 209.461 14.2699 208.322 14.0065 207.232C13.8698 206.674 14.7518 206.536 14.8877 207.091C15.1731 208.297 15.1589 209.554 14.8464 210.753C14.5338 211.952 13.9324 213.056 13.0947 213.969C13.0229 214.062 12.9186 214.124 12.8029 214.142C12.6871 214.161 12.5687 214.135 12.4716 214.069C12.3763 213.999 12.3124 213.895 12.2937 213.778C12.2751 213.661 12.3032 213.542 12.372 213.446Z" fill="white"/>
<path d="M52.8596 153.839C52.9549 154.185 53.0503 154.532 53.1527 154.881C54.4583 159.531 56.1395 164.067 58.1798 168.444C58.3321 168.785 58.4917 169.128 58.6535 169.464C63.6813 179.958 70.6138 189.428 79.0984 197.391C82.4776 200.557 86.0927 203.461 89.9124 206.078C95.1879 209.693 101.195 213.192 104.861 218.191C105.249 218.708 105.605 219.249 105.926 219.81L95.9215 251.266C95.8629 251.326 95.8113 251.389 95.7526 251.449L95.4106 252.723C95.2041 252.602 94.9927 252.472 94.7862 252.351C94.6662 252.281 94.5484 252.204 94.4283 252.134C94.349 252.085 94.2698 252.036 94.1954 251.997C94.1689 251.981 94.1426 251.964 94.1233 251.95C94.0489 251.911 93.984 251.866 93.9168 251.829C92.7326 251.105 91.5514 250.371 90.3733 249.627C90.3661 249.625 90.3661 249.625 90.3612 249.616C81.3987 243.928 72.8324 237.442 65.5229 229.861C65.3031 229.633 65.0759 229.403 64.8607 229.161C61.5848 225.726 58.5952 222.029 55.9217 218.106C54.4647 215.954 53.1176 213.729 51.8855 211.441C48.7134 205.521 46.4921 199.14 45.3031 192.53C42.9348 179.354 44.8069 165.566 52.2805 154.666C52.4718 154.387 52.6611 154.115 52.8596 153.839Z" fill="#F0F0F0"/>
<path d="M53.2364 154.037C51.3654 170.69 54.7893 187.51 63.0217 202.106C64.8044 205.223 66.884 208.229 69.5585 210.65C72.1834 212.991 75.3872 214.585 78.8369 215.268C82.0406 215.97 85.3989 216.317 88.3762 217.785C91.5144 219.333 93.5892 222.148 94.5502 225.474C95.7261 229.544 95.3696 233.793 94.8766 237.936C94.3292 242.537 93.6878 247.307 95.2451 251.787C95.4338 252.33 94.5805 252.591 94.3921 252.049C91.6826 244.254 95.3548 236.131 94.219 228.186C93.689 224.478 92.0385 220.908 88.6954 218.968C85.772 217.272 82.3092 216.911 79.0593 216.228C75.6468 215.512 72.5413 214.273 69.8187 212.051C67.0337 209.778 64.8321 206.847 62.9775 203.79C58.8238 196.826 55.7908 189.252 53.9896 181.346C51.884 172.334 51.3354 163.029 52.3677 153.832C52.4318 153.263 53.3001 153.471 53.2364 154.037Z" fill="white"/>
<path d="M60.0942 197.562C57.4577 198.611 54.5343 198.688 51.846 197.781C49.1577 196.873 46.8795 195.039 45.4185 192.607C45.1245 192.114 45.8771 191.634 46.1714 192.128C47.5278 194.395 49.65 196.103 52.1551 196.943C54.6602 197.783 57.3831 197.7 59.8324 196.709C60.3649 196.494 60.6237 197.349 60.0942 197.562Z" fill="white"/>
<path d="M77.1656 215.126C79.5082 209.82 79.7648 203.826 77.8842 198.339C77.6974 197.796 78.5507 197.534 78.7372 198.077C80.6835 203.791 80.4038 210.028 77.9539 215.544C77.72 216.07 76.9329 215.649 77.1656 215.126Z" fill="white"/>
<path d="M53.0481 172.545C54.1527 172.352 55.1921 171.887 56.0729 171.193C56.9537 170.499 57.6482 169.597 58.0942 168.568C58.3213 168.04 59.1082 168.461 58.8826 168.986C58.3845 170.121 57.6163 171.116 56.6449 171.885C55.6734 172.654 54.5285 173.174 53.3099 173.398C53.1969 173.429 53.0763 173.416 52.9727 173.361C52.8692 173.306 52.7905 173.214 52.7525 173.103C52.7184 172.99 52.7303 172.868 52.7856 172.763C52.841 172.659 52.9353 172.58 53.0481 172.545Z" fill="white"/>
<path d="M77.2025 133.339C60.9534 117.342 54.0905 100.655 57.8776 86.3492C62.7376 67.9914 84.3283 55.2985 117.114 51.5251L117.235 52.5782C84.9058 56.2988 63.6444 68.7068 58.9021 86.6203C55.2165 100.542 61.9798 116.866 77.9461 132.584L77.2025 133.339Z" fill="#F0F0F0"/>
<path d="M233.979 190.12C213.699 190.12 191.661 187.106 169.772 181.311C142.702 174.145 117.882 163.328 97.9951 150.03L98.584 149.149C118.375 162.383 143.085 173.15 170.043 180.287C194.404 186.736 218.948 189.725 241.012 188.936L241.05 189.995C238.72 190.079 236.363 190.12 233.979 190.12Z" fill="#F0F0F0"/>
<path d="M280.504 183.456L280.164 182.452C298.302 176.319 309.646 166.441 312.971 153.883C317.197 137.919 308.016 119.393 287.118 101.719C266.114 83.9557 235.825 69.2162 201.83 60.2167L202.101 59.1921C236.245 68.2312 266.681 83.047 287.802 100.91C309.03 118.863 318.333 137.772 313.996 154.154C310.576 167.072 298.994 177.204 280.504 183.456Z" fill="#F0F0F0"/>
<path d="M113.958 190.563C74.1091 172.889 43.4025 149.96 27.4951 125.999L28.3779 125.413C44.1753 149.208 74.7207 172.001 114.387 189.594L113.958 190.563Z" fill="#F0F0F0"/>
<path d="M254.064 221.181C249.954 221.181 245.773 221.089 241.522 220.906L241.568 219.847C273.289 221.22 301.277 217.424 322.512 208.867L322.908 209.85C304.385 217.314 280.775 221.181 254.064 221.181Z" fill="#F0F0F0"/>
<path d="M230.943 52.4755C224.357 50.3311 217.582 48.3345 210.808 46.541C171.822 36.2201 133.499 32.5557 99.9796 35.9459L99.873 34.8913C133.517 31.49 171.972 35.1632 211.079 45.5164C217.873 47.3151 224.666 49.3174 231.271 51.468L230.943 52.4755Z" fill="#F0F0F0"/>
<path d="M52.2982 134.928C36.0491 118.932 29.1862 102.244 32.9733 87.9389C37.8333 69.5811 59.424 56.8882 92.2092 53.1149L92.3303 54.1679C60.0015 57.8885 38.7402 70.2965 33.9979 88.2101C30.3122 102.132 37.0755 118.455 53.0418 134.173L52.2982 134.928Z" fill="#F0F0F0"/>
<path d="M209.075 191.71C188.795 191.71 166.757 188.696 144.867 182.901C117.798 175.734 92.9778 164.918 73.0908 151.619L73.6797 150.739C93.4709 163.973 118.181 174.74 145.138 181.876C169.5 188.326 194.044 191.314 216.108 190.526L216.146 191.584C213.816 191.668 211.459 191.71 209.075 191.71Z" fill="#F0F0F0"/>
<path d="M255.6 185.045L255.26 184.041C273.398 177.909 284.742 168.03 288.067 155.472C292.293 139.508 283.112 120.983 262.214 103.309C241.209 85.5454 210.921 70.8059 176.926 61.8064L177.197 60.7819C211.34 69.8209 241.776 84.6367 262.898 102.5C284.126 120.453 293.428 139.362 289.091 155.744C285.671 168.662 274.09 178.794 255.6 185.045Z" fill="#F0F0F0"/>
<path d="M89.0537 192.153C49.2048 174.479 18.4982 151.55 2.59082 127.588L3.47362 127.002C19.271 150.798 49.8164 173.591 89.4832 191.184L89.0537 192.153Z" fill="#F0F0F0"/>
<path d="M229.159 222.77C225.049 222.77 220.869 222.679 216.618 222.495L216.664 221.436C248.385 222.81 276.373 219.014 297.608 210.456L298.004 211.439C279.48 218.903 255.87 222.77 229.159 222.77Z" fill="#F0F0F0"/>
<path d="M206.039 54.0651C199.453 51.9207 192.678 49.9241 185.903 48.1306C146.918 37.8097 108.595 34.1453 75.0754 37.5355L74.9688 36.4809C108.613 33.0796 147.067 36.7528 186.174 47.106C192.968 48.9047 199.762 50.907 206.367 53.0576L206.039 54.0651Z" fill="#F0F0F0"/>
<path d="M100.757 132.755C98.5799 132.758 96.4922 133.624 94.9525 135.164C93.4127 136.703 92.5466 138.791 92.5442 140.969C89.4215 163.96 88.3787 187.187 89.4283 210.366C89.4906 211.846 89.5597 213.199 89.6399 214.505C89.7564 216.662 89.9044 218.939 90.0795 221.274C90.1802 222.651 90.2862 224.033 90.4024 225.41C90.597 227.653 90.8107 229.932 91.0381 232.183C91.1809 233.559 91.3292 234.941 91.4878 236.317C91.7923 239.021 92.137 241.792 92.5419 244.79C92.5378 246.973 93.401 249.069 94.9416 250.616C96.4823 252.163 98.5742 253.034 100.757 253.039H238.527C240.705 253.037 242.792 252.17 244.332 250.631C245.872 249.091 246.738 247.003 246.74 244.826L246.747 244.769C247.36 241.973 247.932 239.124 248.446 236.3C248.72 234.811 248.958 233.459 249.171 232.166C249.557 229.813 249.901 227.535 250.192 225.396C250.391 223.961 250.571 222.57 250.727 221.262C250.983 219.121 251.215 216.909 251.436 214.497C251.557 213.186 251.668 211.833 251.775 210.359V210.358C253.459 187.126 251.766 163.772 246.747 141.026L246.74 140.969C246.738 138.791 245.872 136.703 244.332 135.164C242.792 133.624 240.705 132.758 238.527 132.755L100.757 132.755Z" fill="#3F3D56"/>
<path d="M174.991 167.917C145.14 167.917 113.508 165.204 72.1093 159.777H72.1049C69.9587 159.774 67.8891 158.979 66.2929 157.545C64.6967 156.11 63.6862 154.137 63.4552 152.003C63.4175 151.682 63.3993 151.359 63.4006 151.036V126.132C63.3996 126.079 63.4021 126.025 63.4078 125.972C63.4544 123.684 64.3945 121.505 66.027 119.901C67.6596 118.297 69.855 117.395 72.1437 117.389C144.169 107.596 187.921 107.597 267.173 117.391H267.177C269.464 117.406 271.655 118.315 273.281 119.924C274.907 121.533 275.84 123.714 275.879 126.001C275.883 126.044 275.885 126.088 275.884 126.132V151.036C275.885 151.36 275.867 151.684 275.829 152.006C275.595 154.145 274.578 156.122 272.974 157.557C271.37 158.992 269.293 159.783 267.141 159.779C232.9 165.204 204.835 167.917 174.991 167.917Z" fill="#7E30E1"/>
<path d="M179.78 185.214H161.668C159.362 185.211 157.152 184.294 155.522 182.664C153.892 181.034 152.975 178.824 152.973 176.519V110.717C152.975 108.412 153.892 106.202 155.522 104.572C157.152 102.942 159.362 102.025 161.668 102.022H179.78C182.085 102.025 184.295 102.942 185.925 104.572C187.555 106.202 188.472 108.412 188.475 110.717V176.519C188.472 178.824 187.555 181.034 185.925 182.664C184.295 184.294 182.085 185.211 179.78 185.214Z" fill="#3F3D56"/>
<path d="M220.9 89.4309C220.769 88.1973 220.538 86.9763 220.21 85.78C219.855 84.5814 219.406 83.4128 218.867 82.285C216.935 78.1389 213.676 74.755 209.606 72.6683C204.553 70.1813 198.774 69.9778 193.342 71.1761C188.776 72.1988 184.489 74.2063 180.779 77.0581C178.855 78.5073 177.098 80.1646 175.539 82.0001C173.929 83.9312 170.935 89.2368 170.72 89.728C169.027 85.8849 166.598 82.4105 163.57 79.5007C160.051 76.16 155.849 73.621 151.255 72.0582C148.813 71.2353 146.277 70.7199 143.707 70.524C140.988 70.2979 138.25 70.5368 135.611 71.2304C130.87 72.558 126.77 75.5555 124.066 79.6696C121.49 83.4933 120.225 88.05 120.461 92.6546C120.591 94.9794 121.092 97.2684 121.946 99.4349C122.403 100.608 122.945 101.745 123.568 102.839C124.213 103.92 124.934 104.953 125.726 105.93C128.832 109.742 133.016 112.529 137.731 113.925C142.765 115.481 148.105 115.532 153.281 114.801C158.597 114.051 163.714 112.33 168.72 110.446C169.388 110.194 170.053 109.936 170.719 109.68C175.17 111.392 179.658 113.043 184.317 114.091C189.559 115.357 194.999 115.575 200.325 114.733C205.289 113.918 209.904 111.664 213.599 108.249C217.017 105.032 219.409 100.878 220.475 96.3073C221.002 94.0552 221.145 91.7306 220.9 89.4309ZM151.899 109.682C149.026 110.05 146.119 110.067 143.242 109.733C141.18 109.434 139.16 108.896 137.222 108.13C132.654 106.228 129.013 102.613 127.078 98.0595C126.5 96.6239 126.088 95.1267 125.851 93.5974C125.699 92.2367 125.698 90.8634 125.85 89.5026C126.075 88.071 126.461 86.6694 127.001 85.3244C127.584 84.0162 128.309 82.7756 129.162 81.6246C129.989 80.5948 130.923 79.6561 131.95 78.8246C132.922 78.1051 133.969 77.4916 135.072 76.9948C136.389 76.4805 137.759 76.1141 139.156 75.9023C141.049 75.6927 142.961 75.7077 144.85 75.9468C147.099 76.2939 149.3 76.9006 151.408 77.7545C153.651 78.728 155.771 79.9639 157.723 81.4364C159.53 82.8674 161.167 84.4997 162.603 86.3017C164.026 88.1934 165.219 90.2474 166.157 92.4204C167.068 94.6875 167.709 97.0544 168.065 99.4719L168.069 99.5073C167.93 100.722 167.86 101.943 167.861 103.166C167.862 103.637 167.882 104.107 167.906 104.577C167.682 104.793 167.496 105.044 167.354 105.321C163.663 106.769 159.879 107.968 156.029 108.912C154.664 109.227 153.287 109.484 151.899 109.682ZM215.599 93.5972C215.362 95.1268 214.95 96.6241 214.371 98.0599C212.446 102.62 208.802 106.238 204.228 108.13C202.29 108.896 200.27 109.434 198.208 109.733C195.326 110.068 192.413 110.05 189.535 109.68C184.423 108.949 179.492 107.336 174.668 105.535C174.469 105.46 174.272 105.382 174.074 105.308C173.939 105.035 173.761 104.787 173.545 104.573C173.63 102.867 173.577 101.156 173.387 99.4587C173.743 97.0458 174.383 94.6833 175.293 92.4204C176.231 90.2475 177.424 88.1936 178.846 86.3019C180.283 84.4999 181.92 82.8675 183.726 81.4364C185.679 79.9639 187.798 78.728 190.042 77.7545C192.15 76.9006 194.351 76.294 196.6 75.9468C198.489 75.7077 200.4 75.6927 202.294 75.9023C203.691 76.1141 205.061 76.4805 206.378 76.9948C207.481 77.4917 208.528 78.1052 209.501 78.8247C210.527 79.6563 211.461 80.595 212.288 81.6248C213.141 82.7757 213.866 84.0163 214.449 85.3244C214.989 86.6694 215.375 88.071 215.6 89.5026C215.752 90.8633 215.751 92.2366 215.599 93.5972Z" fill="#3F3D56"/>
<path d="M115.594 188.128C117.35 188.128 118.774 186.705 118.774 184.949C118.774 183.193 117.35 181.77 115.594 181.77C113.838 181.77 112.415 183.193 112.415 184.949C112.415 186.705 113.838 188.128 115.594 188.128Z" fill="#7E30E1"/>
<path d="M138.38 180.18C140.135 180.18 141.559 178.757 141.559 177.001C141.559 175.245 140.135 173.821 138.38 173.821C136.624 173.821 135.2 175.245 135.2 177.001C135.2 178.757 136.624 180.18 138.38 180.18Z" fill="#7E30E1"/>
<path d="M128.311 205.084C130.067 205.084 131.49 203.661 131.49 201.905C131.49 200.149 130.067 198.726 128.311 198.726C126.555 198.726 125.132 200.149 125.132 201.905C125.132 203.661 126.555 205.084 128.311 205.084Z" fill="#7E30E1"/>
<path d="M222.63 188.128C224.386 188.128 225.81 186.705 225.81 184.949C225.81 183.193 224.386 181.77 222.63 181.77C220.875 181.77 219.451 183.193 219.451 184.949C219.451 186.705 220.875 188.128 222.63 188.128Z" fill="#7E30E1"/>
<path d="M199.845 180.18C201.601 180.18 203.025 178.757 203.025 177.001C203.025 175.245 201.601 173.821 199.845 173.821C198.089 173.821 196.666 175.245 196.666 177.001C196.666 178.757 198.089 180.18 199.845 180.18Z" fill="#7E30E1"/>
<path d="M209.914 205.084C211.67 205.084 213.093 203.661 213.093 201.905C213.093 200.149 211.67 198.726 209.914 198.726C208.158 198.726 206.734 200.149 206.734 201.905C206.734 203.661 208.158 205.084 209.914 205.084Z" fill="#7E30E1"/>
<path d="M225.28 243.766C227.036 243.766 228.459 242.343 228.459 240.587C228.459 238.831 227.036 237.407 225.28 237.407C223.524 237.407 222.101 238.831 222.101 240.587C222.101 242.343 223.524 243.766 225.28 243.766Z" fill="#7E30E1"/>
<path d="M233.228 220.981C234.984 220.981 236.407 219.558 236.407 217.802C236.407 216.046 234.984 214.622 233.228 214.622C231.472 214.622 230.049 216.046 230.049 217.802C230.049 219.558 231.472 220.981 233.228 220.981Z" fill="#7E30E1"/>
<path d="M208.324 231.049C210.08 231.049 211.503 229.625 211.503 227.869C211.503 226.114 210.08 224.69 208.324 224.69C206.568 224.69 205.145 226.114 205.145 227.869C205.145 229.625 206.568 231.049 208.324 231.049Z" fill="#7E30E1"/>
<path d="M134.14 243.766C135.896 243.766 137.32 242.343 137.32 240.587C137.32 238.831 135.896 237.407 134.14 237.407C132.384 237.407 130.961 238.831 130.961 240.587C130.961 242.343 132.384 243.766 134.14 243.766Z" fill="#7E30E1"/>
<path d="M142.088 220.981C143.844 220.981 145.268 219.558 145.268 217.802C145.268 216.046 143.844 214.622 142.088 214.622C140.333 214.622 138.909 216.046 138.909 217.802C138.909 219.558 140.333 220.981 142.088 220.981Z" fill="#7E30E1"/>
<path d="M117.184 231.049C118.94 231.049 120.363 229.625 120.363 227.869C120.363 226.114 118.94 224.69 117.184 224.69C115.428 224.69 114.005 226.114 114.005 227.869C114.005 229.625 115.428 231.049 117.184 231.049Z" fill="#7E30E1"/>
<path d="M208.532 19.2224C209.736 19.7249 211.049 19.9089 212.345 19.7567C213.64 19.6045 214.875 19.1212 215.93 18.3533C218.619 16.348 219.626 12.8476 220.471 9.60196L222.965 0L218.752 2.55735C215.723 4.39611 212.624 6.29579 210.438 9.08732C208.251 11.8789 207.145 15.7907 208.586 19.0301" fill="#F2F2F2"/>
<path d="M95.8754 101.242C96.6884 100.222 97.225 99.0095 97.4335 97.7217C97.642 96.4339 97.5153 95.1141 97.0656 93.8895C95.8734 90.7543 92.7828 88.8262 89.8926 87.1253L81.3408 82.0969L82.6467 86.8484C83.5855 90.2655 84.5638 93.7661 86.6497 96.6336C88.7356 99.5012 92.195 101.636 95.7052 101.138" fill="#F2F2F2"/>
<path d="M296.702 249.08C297.515 248.059 298.051 246.847 298.26 245.559C298.468 244.271 298.341 242.952 297.892 241.727C296.7 238.592 293.609 236.664 290.719 234.963L282.167 229.934L283.473 234.686C284.412 238.103 285.39 241.604 287.476 244.471C289.562 247.339 293.021 249.474 296.531 248.975" fill="#F2F2F2"/>
<path d="M135.2 61.4861C137.541 61.4861 139.439 59.5882 139.439 57.247C139.439 54.9058 137.541 53.0079 135.2 53.0079C132.859 53.0079 130.961 54.9058 130.961 57.247C130.961 59.5882 132.859 61.4861 135.2 61.4861Z" fill="#FD6584"/>
<path d="M22.3348 186.539C24.6759 186.539 26.5738 184.641 26.5738 182.299C26.5738 179.958 24.6759 178.06 22.3348 178.06C19.9936 178.06 18.0957 179.958 18.0957 182.299C18.0957 184.641 19.9936 186.539 22.3348 186.539Z" fill="#FD6584"/>
<path d="M313.77 152.096C316.111 152.096 318.009 150.198 318.009 147.857C318.009 145.516 316.111 143.618 313.77 143.618C311.429 143.618 309.531 145.516 309.531 147.857C309.531 150.198 311.429 152.096 313.77 152.096Z" fill="#FD6584"/>
<path d="M18.0955 80.032C20.4367 80.032 22.3346 78.1341 22.3346 75.7929C22.3346 73.4517 20.4367 71.5538 18.0955 71.5538C15.7543 71.5538 13.8564 73.4517 13.8564 75.7929C13.8564 78.1341 15.7543 80.032 18.0955 80.032Z" fill="#E6E6E6"/>
<path d="M280.387 200.845C282.729 200.845 284.627 198.948 284.627 196.606C284.627 194.265 282.729 192.367 280.387 192.367C278.046 192.367 276.148 194.265 276.148 196.606C276.148 198.948 278.046 200.845 280.387 200.845Z" fill="#E6E6E6"/>
<path d="M288.866 72.0837C291.207 72.0837 293.105 70.1858 293.105 67.8447C293.105 65.5035 291.207 63.6056 288.866 63.6056C286.525 63.6056 284.627 65.5035 284.627 67.8447C284.627 70.1858 286.525 72.0837 288.866 72.0837Z" fill="#E6E6E6"/>
<path d="M102.998 139.504C102.631 140.084 101.743 140 101.244 139.637C100.551 139.134 100.776 138.165 101.253 137.593C102.768 135.773 105.275 137.694 105.613 139.501C105.739 140.382 105.603 141.281 105.223 142.086C104.843 142.89 104.235 143.566 103.474 144.028C101.745 145.053 99.4984 144.539 98.0115 143.312C94.9097 140.754 95.7542 135.631 99.1995 133.78C101.398 132.598 104.178 133.117 106.344 134.106C108.782 135.22 110.879 136.928 113.134 138.351C118.081 141.448 123.677 143.359 129.486 143.935C130.502 144.038 130.495 142.448 129.486 142.345C126.267 142.012 123.107 141.251 120.09 140.083C117.104 138.873 114.271 137.317 111.647 135.449C108.992 133.629 106.219 131.861 102.933 131.56C101.607 131.406 100.264 131.605 99.0399 132.137C97.8159 132.67 96.7548 133.517 95.9644 134.593C95.2613 135.555 94.7907 136.668 94.5894 137.842C94.3881 139.017 94.4616 140.223 94.8041 141.364C95.217 142.558 95.9389 143.622 96.8962 144.446C97.8535 145.27 99.0121 145.826 100.254 146.057C101.45 146.283 102.686 146.13 103.79 145.619C104.895 145.109 105.813 144.267 106.416 143.21C107.625 141.118 107.586 138.309 105.759 136.575C105.236 136.043 104.58 135.659 103.86 135.463C103.139 135.267 102.38 135.266 101.659 135.46C100.995 135.684 100.41 136.097 99.977 136.649C99.5438 137.2 99.2806 137.866 99.2198 138.564C99.0435 141.279 102.897 142.637 104.37 140.306C104.919 139.439 103.544 138.641 102.998 139.504Z" fill="#3F3D56"/>
<path d="M238.937 139.504C239.304 140.084 240.192 140 240.691 139.637C241.384 139.134 241.159 138.165 240.682 137.593C239.167 135.773 236.66 137.694 236.321 139.501C236.196 140.382 236.331 141.281 236.712 142.086C237.092 142.89 237.7 143.566 238.461 144.028C240.19 145.053 242.436 144.539 243.923 143.312C247.025 140.754 246.181 135.631 242.735 133.78C240.537 132.598 237.757 133.117 235.591 134.106C233.153 135.22 231.056 136.928 228.801 138.351C223.854 141.448 218.258 143.359 212.449 143.935C211.433 144.038 211.44 142.448 212.449 142.345C215.668 142.012 218.828 141.251 221.845 140.083C224.831 138.873 227.664 137.317 230.288 135.449C232.943 133.629 235.716 131.861 239.002 131.56C240.328 131.406 241.671 131.605 242.895 132.137C244.119 132.67 245.18 133.517 245.971 134.593C246.674 135.555 247.144 136.668 247.346 137.842C247.547 139.017 247.473 140.223 247.131 141.364C246.718 142.558 245.996 143.622 245.039 144.446C244.081 145.27 242.923 145.826 241.681 146.057C240.485 146.283 239.249 146.13 238.144 145.619C237.04 145.109 236.122 144.267 235.519 143.21C234.31 141.118 234.349 138.309 236.176 136.575C236.699 136.043 237.355 135.659 238.075 135.463C238.796 135.267 239.555 135.266 240.276 135.46C240.94 135.684 241.525 136.097 241.958 136.649C242.391 137.2 242.654 137.866 242.715 138.564C242.891 141.279 239.038 142.637 237.565 140.306C237.016 139.439 238.391 138.641 238.937 139.504Z" fill="#3F3D56"/>
<path d="M47.6781 19.2681L45.5782 21.9025L38.1523 17.5097L40.2517 14.8754L47.6781 19.2681Z" fill="#E4E4E4"/>
<path d="M55.4262 30.5864L57.2806 33.3541L49.4794 37.2343L47.625 34.4672L55.4262 30.5864Z" fill="#E4E4E4"/>
<path d="M63.5022 18.5547L67.2081 18.686L66.8392 26.4401L63.1328 26.3093L63.5022 18.5547Z" fill="#E4E4E4"/>
<path d="M309.97 181.412L307.87 184.047L300.444 179.654L302.544 177.02L309.97 181.412Z" fill="#E4E4E4"/>
<path d="M317.718 192.731L319.573 195.498L311.771 199.379L309.917 196.611L317.718 192.731Z" fill="#E4E4E4"/>
<path d="M325.794 180.699L329.5 180.83L329.131 188.585L325.425 188.454L325.794 180.699Z" fill="#E4E4E4"/>
</g>
<defs>
<clipPath id="clip0_51_316">
<rect width="329" height="253.075" fill="white" transform="translate(0.5)"/>
</clipPath>
</defs>
</svg>
