<svg width="149" height="122" viewBox="0 0 149 122" fill="none" xmlns="http://www.w3.org/2000/svg">
<g clip-path="url(#clip0_90_1576)">
<path d="M130.14 80.771C145.279 97.513 101.395 121.64 65.9396 121.64C30.4846 121.64 5.94756 102.946 1.73956 80.771C-8.47544 27.006 88.7775 -7.16697 65.9396 39.902C32.6526 108.512 118.218 67.586 130.14 80.771Z" fill="#3F3D56"/>
<path d="M47.9526 28.667C48.665 28.667 49.2426 28.0895 49.2426 27.377C49.2426 26.6646 48.665 26.087 47.9526 26.087C47.2402 26.087 46.6626 26.6646 46.6626 27.377C46.6626 28.0895 47.2402 28.667 47.9526 28.667Z" fill="#D0CDE1"/>
<path d="M30.4707 105.903C31.1831 105.903 31.7607 105.325 31.7607 104.613C31.7607 103.901 31.1831 103.323 30.4707 103.323C29.7582 103.323 29.1807 103.901 29.1807 104.613C29.1807 105.325 29.7582 105.903 30.4707 105.903Z" fill="#D0CDE1"/>
<path d="M50.2444 46.865C50.5608 46.865 50.8174 46.6085 50.8174 46.292C50.8174 45.9755 50.5608 45.719 50.2444 45.719C49.9279 45.719 49.6714 45.9755 49.6714 46.292C49.6714 46.6085 49.9279 46.865 50.2444 46.865Z" fill="#D0CDE1"/>
<path d="M20.1526 76.67C20.469 76.67 20.7256 76.4135 20.7256 76.097C20.7256 75.7806 20.469 75.524 20.1526 75.524C19.8361 75.524 19.5796 75.7806 19.5796 76.097C19.5796 76.4135 19.8361 76.67 20.1526 76.67Z" fill="#D0CDE1"/>
<path d="M95.5256 98.1639C95.8421 98.1639 96.0986 97.9074 96.0986 97.5909C96.0986 97.2745 95.8421 97.0179 95.5256 97.0179C95.2092 97.0179 94.9526 97.2745 94.9526 97.5909C94.9526 97.9074 95.2092 98.1639 95.5256 98.1639Z" fill="#D0CDE1"/>
<path d="M18.2898 47.438C18.6063 47.438 18.8628 47.1815 18.8628 46.865C18.8628 46.5485 18.6063 46.292 18.2898 46.292C17.9733 46.292 17.7168 46.5485 17.7168 46.865C17.7168 47.1815 17.9733 47.438 18.2898 47.438Z" fill="#D0CDE1"/>
<path d="M53.1096 31.676H52.8226V31.389H52.6796V31.676H52.3926V31.819H52.6796V32.106H52.8226V31.819H53.1096V31.676Z" fill="#D0CDE1"/>
<path d="M31.1857 36.405H30.8988V36.118H30.7558V36.405H30.4688V36.548H30.7558V36.835H30.8988V36.548H31.1857V36.405Z" fill="#D0CDE1"/>
<path d="M16.8565 63.345H16.5745V63.058H16.4315V63.345H16.1445V63.488H16.4315V63.775H16.5745V63.488H16.8615L16.8565 63.345Z" fill="#D0CDE1"/>
<path d="M57.1228 110.488C57.4393 110.488 57.6958 110.232 57.6958 109.915C57.6958 109.599 57.4393 109.342 57.1228 109.342C56.8063 109.342 56.5498 109.599 56.5498 109.915C56.5498 110.232 56.8063 110.488 57.1228 110.488Z" fill="#D0CDE1"/>
<path d="M55.2595 81.256C55.576 81.256 55.8325 80.9994 55.8325 80.683C55.8325 80.3665 55.576 80.11 55.2595 80.11C54.9431 80.11 54.6865 80.3665 54.6865 80.683C54.6865 80.9994 54.9431 81.256 55.2595 81.256Z" fill="#D0CDE1"/>
<path d="M123.038 91.86C123.355 91.86 123.611 91.6034 123.611 91.287C123.611 90.9705 123.355 90.714 123.038 90.714C122.722 90.714 122.465 90.9705 122.465 91.287C122.465 91.6034 122.722 91.86 123.038 91.86Z" fill="#D0CDE1"/>
<path d="M53.8264 97.162H53.5394V96.875H53.3964V97.162H53.1094V97.305H53.3964V97.592H53.5394V97.305H53.8264V97.162Z" fill="#D0CDE1"/>
<path d="M81.6257 107.336H81.3397V107.05H81.1967V107.336H80.9097V107.479H81.1967V107.766H81.3397V107.479H81.6257V107.336Z" fill="#D0CDE1"/>
<path d="M11.4094 81.83H11.1224V81.543H10.9794V81.83H10.6924V81.973H10.9794V82.259H11.1224V81.973H11.4094V81.83Z" fill="#D0CDE1"/>
<path d="M51.2477 61.195H50.9607V60.908H50.8177V61.195H50.5337V61.338H50.8207V61.625H50.9637V61.338H51.2507L51.2477 61.195Z" fill="#D0CDE1"/>
<path d="M33.6218 44.286H33.3348V43.999H33.1918V44.286H32.9048V44.429H33.1918V44.716H33.3348V44.429H33.6218V44.286Z" fill="#D0CDE1"/>
<path d="M45.3767 72.515H45.0897V72.228H44.9467V72.515H44.6597V72.658H44.9467V72.945H45.0897V72.658H45.3767V72.515Z" fill="#D0CDE1"/>
<path d="M28.1765 90.2839H27.8895V89.9969H27.7465V90.2839H27.4595V90.4269H27.7465V90.7139H27.8895V90.4269H28.1765V90.2839Z" fill="#D0CDE1"/>
<path d="M34.0517 66.0669C38.7207 66.0669 42.5057 65.4894 42.5057 64.7769C42.5057 64.0645 38.7207 63.4869 34.0517 63.4869C29.3826 63.4869 25.5977 64.0645 25.5977 64.7769C25.5977 65.4894 29.3826 66.0669 34.0517 66.0669Z" fill="#7E30E1"/>
<path d="M34.9125 65.203C31.4565 65.203 26.3125 64.821 26.3125 63.77C26.3125 62.719 31.4545 62.337 34.9125 62.337C38.3705 62.337 43.5125 62.719 43.5125 63.77C43.5125 64.821 38.3685 65.203 34.9125 65.203ZM34.9125 62.624C32.9204 62.6066 30.9296 62.7323 28.9555 63C27.0925 63.284 26.6005 63.628 26.6005 63.77C26.6005 63.912 27.0925 64.256 28.9555 64.54C32.9107 65.0416 36.9133 65.0416 40.8685 64.54C42.7305 64.256 43.2235 63.912 43.2235 63.77C43.2235 63.628 42.7315 63.284 40.8685 63C38.8946 62.7336 36.9042 62.6093 34.9125 62.628V62.624Z" fill="#D0CDE1"/>
<path d="M136.686 75.641C124.759 62.457 39.1994 103.382 72.4814 34.774C87.3174 4.191 51.4574 7.906 27.3184 29.007C50.6934 12.956 78.9094 12.494 65.4594 40.219C32.1774 108.829 117.742 67.903 129.659 81.088C135.206 87.223 132.828 94.349 125.843 100.917C137.854 93.046 143.815 83.525 136.686 75.641Z" fill="#E6E6E6"/>
<path d="M66.5247 121.377L66.3407 121.308C63.7886 120.429 61.6605 118.621 60.3793 116.245C59.098 113.87 58.7573 111.099 59.4247 108.483L59.4687 108.291L59.6527 108.36C62.2046 109.24 64.3324 111.047 65.6135 113.423C66.8945 115.799 67.2352 118.57 66.5677 121.185L66.5247 121.377ZM60.6817 116.082C61.9938 118.236 63.9491 119.924 66.2717 120.908C66.861 118.432 66.5191 115.826 65.311 113.585C64.103 111.345 62.1133 109.627 59.7207 108.759C59.2674 111.24 59.6035 113.802 60.6817 116.082Z" fill="#D0CDE1"/>
<path d="M61.8225 115.188C64.0022 116.665 65.6497 118.804 66.5225 121.288C63.9186 121.824 61.2084 121.36 58.9309 119.989C56.6533 118.618 54.9753 116.44 54.2305 113.888C56.8351 113.497 59.4965 113.952 61.8225 115.188Z" fill="#7E30E1"/>
<path d="M109.449 41.035C109.449 41.035 101.672 48.657 104.938 49.59C108.204 50.523 111.938 42.59 111.938 42.59L109.449 41.035Z" fill="#FFB9B9"/>
<path d="M117.225 66.701L116.292 71.056L123.292 71.367L122.203 66.7L117.225 66.701Z" fill="#FFB9B9"/>
<path d="M139.313 93.611L138.38 97.966L145.38 98.277L144.291 93.61L139.313 93.611Z" fill="#FFB9B9"/>
<path d="M127.025 37.613L127.647 40.102C127.647 40.102 110.381 36.68 111.314 45.391C112.115 51.3098 113.793 57.0764 116.292 62.501C116.292 62.501 115.981 65.301 116.603 65.768C117.225 66.235 116.603 67.79 116.603 67.79C116.603 67.79 122.358 68.568 122.514 67.168C122.597 66.2321 122.545 65.289 122.358 64.368C122.358 64.368 122.669 64.368 122.358 62.812C122.047 61.256 120.79 48.712 119.858 47.001C119.858 47.001 128.114 53.324 132.47 52.546C132.223 57.4409 132.855 62.3404 134.337 67.012C136.826 75.256 136.826 76.189 136.826 76.189C136.826 76.189 139.781 91.9 139.004 93.766L138.848 94.544H144.603C144.603 94.544 144.136 86.3 144.603 85.211C145.07 84.122 145.07 74.789 142.425 70.123C140.552 66.823 140.901 57.237 141.925 53.449C142.796 50.5709 142.992 47.5311 142.498 44.565C142.31 43.1902 141.849 41.867 141.142 40.6731C140.434 39.4792 139.496 38.4388 138.38 37.613H127.025Z" fill="#2F2E41"/>
<path d="M131.615 14.2031C134.707 14.2031 137.215 11.6958 137.215 8.60305C137.215 5.51026 134.707 3.00305 131.615 3.00305C128.522 3.00305 126.015 5.51026 126.015 8.60305C126.015 11.6958 128.522 14.2031 131.615 14.2031Z" fill="#FFB9B9"/>
<path d="M130.137 12.57C130.137 12.57 131.848 17.548 131.693 18.481C131.538 19.414 136.671 16.614 136.671 16.614C136.671 16.614 134.649 11.636 135.271 10.236L130.137 12.57Z" fill="#FFB9B9"/>
<path d="M136.359 14.899L130.915 17.077L131.226 18.944C131.226 18.944 130.759 19.566 130.915 19.877C131.071 20.188 128.893 21.432 129.204 21.899C129.515 22.366 127.337 24.232 127.493 24.699C127.649 25.166 122.515 27.966 125.315 33.41C126.182 34.6049 126.628 36.0534 126.585 37.529C126.578 37.6077 126.57 37.6867 126.56 37.766C126.249 40.099 138.382 37.455 138.382 37.455V34.811C138.382 34.811 139.471 34.344 139.315 32.322C139.159 30.3 138.226 31.233 139.315 30.144C140.404 29.055 140.404 29.211 140.248 28.277C140.186 27.904 140.173 26.564 140.181 25.089C140.195 21.9715 139.18 18.9365 137.293 16.455L136.359 14.899Z" fill="#D0CDE1"/>
<path d="M133.404 18.9469L123.293 29.5239L108.516 41.1899L111.783 43.8339L139.004 25.6339C139.004 25.6339 141.337 15.6799 133.404 18.9469Z" fill="#D0CDE1"/>
<path d="M117.692 69.034C117.692 69.034 116.603 67.167 115.825 67.79L110.381 72.145C110.381 72.145 100.737 74.945 110.07 77.123C110.07 77.123 115.203 77.901 116.292 77.123C116.774 76.8166 117.321 76.6287 117.888 76.5746C118.456 76.5206 119.029 76.6019 119.559 76.812C120.026 77.123 125.937 76.656 125.937 75.412C125.937 74.168 122.677 68.729 122.677 68.729C122.677 68.729 120.807 70.9 117.692 69.034Z" fill="#2F2E41"/>
<path d="M139.781 95.944C139.781 95.944 138.692 94.077 137.914 94.7L132.47 99.055C132.47 99.055 122.826 101.855 132.159 104.033C132.159 104.033 137.292 104.811 138.381 104.033C138.862 103.727 139.409 103.539 139.977 103.485C140.545 103.431 141.117 103.512 141.648 103.722C142.115 104.033 148.026 103.566 148.026 102.322C148.026 101.078 144.766 95.639 144.766 95.639C144.766 95.639 142.892 97.811 139.781 95.944Z" fill="#2F2E41"/>
<path d="M124.903 6.38199C124.903 6.38199 125.85 -1.94101 133.948 0.421991C133.948 0.421991 139.677 -0.743009 141.7 6.41199L143.754 13.912L142.814 13.423L142.398 14.379L140.898 14.79L140.228 13.522L139.946 15.083L129.585 17.178C131.811 14.368 133.035 10.8956 133.064 7.31099L132.035 8.44599L124.903 6.38199Z" fill="#2F2E41"/>
<path d="M42.0308 60.267L36.2108 54.447C36.9257 53.3571 37.211 52.0409 37.0115 50.7528C36.812 49.4648 36.1419 48.2965 35.1309 47.4739C34.1198 46.6513 32.8396 46.2329 31.5379 46.2996C30.2362 46.3664 29.0055 46.9135 28.0839 47.8351C27.1622 48.7568 26.6151 49.9875 26.5484 51.2891C26.4817 52.5908 26.9001 53.871 27.7227 54.8821C28.5452 55.8931 29.7135 56.5632 31.0016 56.7627C32.2896 56.9622 33.6059 56.6769 34.6958 55.962L40.5158 61.782L42.0308 60.267ZM29.1568 54.209C28.6325 53.6848 28.2755 53.017 28.1308 52.29C27.9862 51.5629 28.0603 50.8093 28.344 50.1244C28.6277 49.4395 29.1081 48.8541 29.7244 48.4422C30.3408 48.0304 31.0655 47.8105 31.8068 47.8105C32.5481 47.8105 33.2727 48.0304 33.8891 48.4422C34.5055 48.8541 34.9859 49.4395 35.2695 50.1244C35.5532 50.8093 35.6274 51.5629 35.4827 52.29C35.338 53.017 34.981 53.6848 34.4568 54.209C33.7535 54.9112 32.8002 55.3055 31.8064 55.3051C30.8125 55.3047 29.8595 54.9098 29.1568 54.207V54.209Z" fill="#7E30E1"/>
</g>
<defs>
<clipPath id="clip0_90_1576">
<rect width="147.049" height="121.639" fill="white" transform="translate(0.975586)"/>
</clipPath>
</defs>
</svg>
