<svg width="169" height="173" viewBox="0 0 169 173" fill="none" xmlns="http://www.w3.org/2000/svg">
<g clip-path="url(#clip0_90_1575)">
<path d="M140.14 80.771C155.279 97.513 111.395 121.64 75.9396 121.64C40.4846 121.64 15.9476 102.946 11.7396 80.771C1.52456 27.006 98.7775 -7.16697 75.9396 39.902C42.6526 108.512 128.218 67.586 140.14 80.771Z" fill="#3F3D56"/>
<path d="M57.9526 28.667C58.665 28.667 59.2426 28.0895 59.2426 27.377C59.2426 26.6646 58.665 26.087 57.9526 26.087C57.2402 26.087 56.6626 26.6646 56.6626 27.377C56.6626 28.0895 57.2402 28.667 57.9526 28.667Z" fill="#D0CDE1"/>
<path d="M40.4707 105.903C41.1831 105.903 41.7607 105.325 41.7607 104.613C41.7607 103.901 41.1831 103.323 40.4707 103.323C39.7582 103.323 39.1807 103.901 39.1807 104.613C39.1807 105.325 39.7582 105.903 40.4707 105.903Z" fill="#D0CDE1"/>
<path d="M60.2444 46.865C60.5608 46.865 60.8174 46.6085 60.8174 46.292C60.8174 45.9755 60.5608 45.719 60.2444 45.719C59.9279 45.719 59.6714 45.9755 59.6714 46.292C59.6714 46.6085 59.9279 46.865 60.2444 46.865Z" fill="#D0CDE1"/>
<path d="M30.1526 76.67C30.469 76.67 30.7256 76.4135 30.7256 76.097C30.7256 75.7806 30.469 75.524 30.1526 75.524C29.8361 75.524 29.5796 75.7806 29.5796 76.097C29.5796 76.4135 29.8361 76.67 30.1526 76.67Z" fill="#D0CDE1"/>
<path d="M105.526 98.1639C105.842 98.1639 106.099 97.9074 106.099 97.5909C106.099 97.2745 105.842 97.0179 105.526 97.0179C105.209 97.0179 104.953 97.2745 104.953 97.5909C104.953 97.9074 105.209 98.1639 105.526 98.1639Z" fill="#D0CDE1"/>
<path d="M28.2898 47.438C28.6063 47.438 28.8628 47.1815 28.8628 46.865C28.8628 46.5485 28.6063 46.292 28.2898 46.292C27.9733 46.292 27.7168 46.5485 27.7168 46.865C27.7168 47.1815 27.9733 47.438 28.2898 47.438Z" fill="#D0CDE1"/>
<path d="M63.1096 31.676H62.8226V31.389H62.6796V31.676H62.3926V31.819H62.6796V32.106H62.8226V31.819H63.1096V31.676Z" fill="#D0CDE1"/>
<path d="M41.1857 36.405H40.8988V36.118H40.7558V36.405H40.4688V36.548H40.7558V36.835H40.8988V36.548H41.1857V36.405Z" fill="#D0CDE1"/>
<path d="M26.8565 63.345H26.5745V63.058H26.4315V63.345H26.1445V63.488H26.4315V63.775H26.5745V63.488H26.8615L26.8565 63.345Z" fill="#D0CDE1"/>
<path d="M67.1228 110.488C67.4393 110.488 67.6958 110.232 67.6958 109.915C67.6958 109.599 67.4393 109.342 67.1228 109.342C66.8063 109.342 66.5498 109.599 66.5498 109.915C66.5498 110.232 66.8063 110.488 67.1228 110.488Z" fill="#D0CDE1"/>
<path d="M65.2595 81.256C65.576 81.256 65.8325 80.9994 65.8325 80.683C65.8325 80.3665 65.576 80.11 65.2595 80.11C64.9431 80.11 64.6865 80.3665 64.6865 80.683C64.6865 80.9994 64.9431 81.256 65.2595 81.256Z" fill="#D0CDE1"/>
<path d="M133.038 91.86C133.355 91.86 133.611 91.6034 133.611 91.287C133.611 90.9705 133.355 90.714 133.038 90.714C132.722 90.714 132.465 90.9705 132.465 91.287C132.465 91.6034 132.722 91.86 133.038 91.86Z" fill="#D0CDE1"/>
<path d="M63.8264 97.162H63.5394V96.875H63.3964V97.162H63.1094V97.305H63.3964V97.592H63.5394V97.305H63.8264V97.162Z" fill="#D0CDE1"/>
<path d="M91.6257 107.336H91.3397V107.05H91.1967V107.336H90.9097V107.479H91.1967V107.766H91.3397V107.479H91.6257V107.336Z" fill="#D0CDE1"/>
<path d="M21.4094 81.83H21.1224V81.543H20.9794V81.83H20.6924V81.973H20.9794V82.259H21.1224V81.973H21.4094V81.83Z" fill="#D0CDE1"/>
<path d="M61.2477 61.195H60.9607V60.908H60.8177V61.195H60.5337V61.338H60.8207V61.625H60.9637V61.338H61.2507L61.2477 61.195Z" fill="#D0CDE1"/>
<path d="M43.6218 44.286H43.3348V43.999H43.1918V44.286H42.9048V44.429H43.1918V44.716H43.3348V44.429H43.6218V44.286Z" fill="#D0CDE1"/>
<path d="M55.3767 72.515H55.0897V72.228H54.9467V72.515H54.6597V72.658H54.9467V72.945H55.0897V72.658H55.3767V72.515Z" fill="#D0CDE1"/>
<path d="M38.1765 90.2839H37.8895V89.9969H37.7465V90.2839H37.4595V90.4269H37.7465V90.7139H37.8895V90.4269H38.1765V90.2839Z" fill="#D0CDE1"/>
<path d="M44.0517 66.0669C48.7207 66.0669 52.5057 65.4894 52.5057 64.7769C52.5057 64.0645 48.7207 63.4869 44.0517 63.4869C39.3826 63.4869 35.5977 64.0645 35.5977 64.7769C35.5977 65.4894 39.3826 66.0669 44.0517 66.0669Z" fill="#7E30E1"/>
<path d="M44.9125 65.203C41.4565 65.203 36.3125 64.821 36.3125 63.77C36.3125 62.719 41.4545 62.337 44.9125 62.337C48.3705 62.337 53.5125 62.719 53.5125 63.77C53.5125 64.821 48.3685 65.203 44.9125 65.203ZM44.9125 62.624C42.9204 62.6066 40.9296 62.7323 38.9555 63C37.0925 63.284 36.6005 63.628 36.6005 63.77C36.6005 63.912 37.0925 64.256 38.9555 64.54C42.9107 65.0416 46.9133 65.0416 50.8685 64.54C52.7305 64.256 53.2235 63.912 53.2235 63.77C53.2235 63.628 52.7315 63.284 50.8685 63C48.8946 62.7336 46.9042 62.6093 44.9125 62.628V62.624Z" fill="#D0CDE1"/>
<path d="M146.686 75.641C134.759 62.457 49.1994 103.382 82.4814 34.774C97.3174 4.191 61.4574 7.906 37.3184 29.007C60.6934 12.956 88.9094 12.494 75.4594 40.219C42.1774 108.829 127.742 67.903 139.659 81.088C145.206 87.223 142.828 94.349 135.843 100.917C147.854 93.046 153.815 83.525 146.686 75.641Z" fill="#E6E6E6"/>
<path d="M76.5247 121.377L76.3407 121.308C73.7886 120.429 71.6605 118.621 70.3793 116.245C69.098 113.87 68.7573 111.099 69.4247 108.483L69.4687 108.291L69.6527 108.36C72.2046 109.24 74.3324 111.047 75.6135 113.423C76.8945 115.799 77.2352 118.57 76.5677 121.185L76.5247 121.377ZM70.6817 116.082C71.9938 118.236 73.9491 119.924 76.2717 120.908C76.861 118.432 76.5191 115.826 75.311 113.585C74.103 111.345 72.1133 109.627 69.7207 108.759C69.2674 111.24 69.6035 113.802 70.6817 116.082Z" fill="#D0CDE1"/>
<path d="M71.8225 115.188C74.0022 116.665 75.6497 118.804 76.5225 121.288C73.9186 121.824 71.2084 121.36 68.9309 119.989C66.6533 118.618 64.9753 116.44 64.2305 113.888C66.8351 113.497 69.4965 113.952 71.8225 115.188Z" fill="#7E30E1"/>
<path d="M119.449 41.035C119.449 41.035 111.672 48.657 114.938 49.59C118.204 50.523 121.938 42.59 121.938 42.59L119.449 41.035Z" fill="#FFB9B9"/>
<path d="M127.225 66.701L126.292 71.056L133.292 71.367L132.203 66.7L127.225 66.701Z" fill="#FFB9B9"/>
<path d="M149.313 93.611L148.38 97.966L155.38 98.277L154.291 93.61L149.313 93.611Z" fill="#FFB9B9"/>
<path d="M137.025 37.613L137.647 40.102C137.647 40.102 120.381 36.68 121.314 45.391C122.115 51.3098 123.793 57.0764 126.292 62.501C126.292 62.501 125.981 65.301 126.603 65.768C127.225 66.235 126.603 67.79 126.603 67.79C126.603 67.79 132.358 68.568 132.514 67.168C132.597 66.2321 132.545 65.289 132.358 64.368C132.358 64.368 132.669 64.368 132.358 62.812C132.047 61.256 130.79 48.712 129.858 47.001C129.858 47.001 138.114 53.324 142.47 52.546C142.223 57.4409 142.855 62.3404 144.337 67.012C146.826 75.256 146.826 76.189 146.826 76.189C146.826 76.189 149.781 91.9 149.004 93.766L148.848 94.544H154.603C154.603 94.544 154.136 86.3 154.603 85.211C155.07 84.122 155.07 74.789 152.425 70.123C150.552 66.823 150.901 57.237 151.925 53.449C152.796 50.5709 152.992 47.5311 152.498 44.565C152.31 43.1902 151.849 41.867 151.142 40.6731C150.434 39.4792 149.496 38.4388 148.38 37.613H137.025Z" fill="#2F2E41"/>
<path d="M141.615 14.2031C144.707 14.2031 147.215 11.6958 147.215 8.60305C147.215 5.51026 144.707 3.00305 141.615 3.00305C138.522 3.00305 136.015 5.51026 136.015 8.60305C136.015 11.6958 138.522 14.2031 141.615 14.2031Z" fill="#FFB9B9"/>
<path d="M140.137 12.57C140.137 12.57 141.848 17.548 141.693 18.481C141.538 19.414 146.671 16.614 146.671 16.614C146.671 16.614 144.649 11.636 145.271 10.236L140.137 12.57Z" fill="#FFB9B9"/>
<path d="M146.359 14.899L140.915 17.077L141.226 18.944C141.226 18.944 140.759 19.566 140.915 19.877C141.071 20.188 138.893 21.432 139.204 21.899C139.515 22.366 137.337 24.232 137.493 24.699C137.649 25.166 132.515 27.966 135.315 33.41C136.182 34.6049 136.628 36.0534 136.585 37.529C136.578 37.6077 136.57 37.6867 136.56 37.766C136.249 40.099 148.382 37.455 148.382 37.455V34.811C148.382 34.811 149.471 34.344 149.315 32.322C149.159 30.3 148.226 31.233 149.315 30.144C150.404 29.055 150.404 29.211 150.248 28.277C150.186 27.904 150.173 26.564 150.181 25.089C150.195 21.9715 149.18 18.9365 147.293 16.455L146.359 14.899Z" fill="#D0CDE1"/>
<path d="M143.404 18.9469L133.293 29.5239L118.516 41.1899L121.783 43.8339L149.004 25.6339C149.004 25.6339 151.337 15.6799 143.404 18.9469Z" fill="#D0CDE1"/>
<path d="M127.692 69.034C127.692 69.034 126.603 67.167 125.825 67.79L120.381 72.145C120.381 72.145 110.737 74.945 120.07 77.123C120.07 77.123 125.203 77.901 126.292 77.123C126.774 76.8166 127.321 76.6287 127.888 76.5746C128.456 76.5206 129.029 76.6019 129.559 76.812C130.026 77.123 135.937 76.656 135.937 75.412C135.937 74.168 132.677 68.729 132.677 68.729C132.677 68.729 130.807 70.9 127.692 69.034Z" fill="#2F2E41"/>
<path d="M149.781 95.944C149.781 95.944 148.692 94.077 147.914 94.7L142.47 99.055C142.47 99.055 132.826 101.855 142.159 104.033C142.159 104.033 147.292 104.811 148.381 104.033C148.862 103.727 149.409 103.539 149.977 103.485C150.545 103.431 151.117 103.512 151.648 103.722C152.115 104.033 158.026 103.566 158.026 102.322C158.026 101.078 154.766 95.639 154.766 95.639C154.766 95.639 152.892 97.811 149.781 95.944Z" fill="#2F2E41"/>
<path d="M134.903 6.38199C134.903 6.38199 135.85 -1.94101 143.948 0.421991C143.948 0.421991 149.677 -0.743009 151.7 6.41199L153.754 13.912L152.814 13.423L152.398 14.379L150.898 14.79L150.228 13.522L149.946 15.083L139.585 17.178C141.811 14.368 143.035 10.8956 143.064 7.31099L142.035 8.44599L134.903 6.38199Z" fill="#2F2E41"/>
<path d="M52.0308 60.267L46.2108 54.447C46.9257 53.3571 47.211 52.0409 47.0115 50.7528C46.812 49.4648 46.1419 48.2965 45.1309 47.4739C44.1198 46.6513 42.8396 46.2329 41.5379 46.2996C40.2362 46.3664 39.0055 46.9135 38.0839 47.8351C37.1622 48.7568 36.6151 49.9875 36.5484 51.2891C36.4817 52.5908 36.9001 53.871 37.7227 54.8821C38.5452 55.8931 39.7135 56.5632 41.0016 56.7627C42.2896 56.9622 43.6059 56.6769 44.6958 55.962L50.5158 61.782L52.0308 60.267ZM39.1568 54.209C38.6325 53.6848 38.2755 53.017 38.1308 52.29C37.9862 51.5629 38.0603 50.8093 38.344 50.1244C38.6277 49.4395 39.1081 48.8541 39.7244 48.4422C40.3408 48.0304 41.0655 47.8105 41.8068 47.8105C42.5481 47.8105 43.2727 48.0304 43.8891 48.4422C44.5055 48.8541 44.9859 49.4395 45.2695 50.1244C45.5532 50.8093 45.6274 51.5629 45.4827 52.29C45.338 53.017 44.981 53.6848 44.4568 54.209C43.7535 54.9112 42.8002 55.3055 41.8064 55.3051C40.8125 55.3047 39.8595 54.9098 39.1568 54.207V54.209Z" fill="#7E30E1"/>
</g>
<path d="M7.97727 160.912V169.639H6.95455L2.19886 162.787H2.11364V169.639H1.05682V160.912H2.07955L6.85227 167.781H6.9375V160.912H7.97727ZM12.6999 169.775C12.0692 169.775 11.5252 169.636 11.0678 169.358C10.6133 169.077 10.2624 168.684 10.0153 168.182C9.77095 167.676 9.64879 167.088 9.64879 166.417C9.64879 165.747 9.77095 165.156 10.0153 164.645C10.2624 164.131 10.6062 163.73 11.0465 163.443C11.4897 163.153 12.0067 163.008 12.5977 163.008C12.9386 163.008 13.2752 163.065 13.6076 163.179C13.94 163.292 14.2425 163.477 14.5153 163.733C14.788 163.986 15.0053 164.321 15.1673 164.738C15.3292 165.156 15.4102 165.67 15.4102 166.281V166.707H10.3647V165.838H14.3874C14.3874 165.469 14.3136 165.139 14.1658 164.849C14.021 164.559 13.8136 164.331 13.5437 164.163C13.2766 163.996 12.9613 163.912 12.5977 163.912C12.1971 163.912 11.8505 164.011 11.5579 164.21C11.2681 164.406 11.0451 164.662 10.8888 164.977C10.7326 165.292 10.6545 165.631 10.6545 165.991V166.571C10.6545 167.065 10.7397 167.484 10.9102 167.828C11.0835 168.169 11.3235 168.429 11.6303 168.608C11.9371 168.784 12.2937 168.872 12.6999 168.872C12.9641 168.872 13.2028 168.835 13.4158 168.761C13.6317 168.684 13.8178 168.571 13.9741 168.42C14.1303 168.267 14.2511 168.077 14.3363 167.849L15.3079 168.122C15.2056 168.452 15.0337 168.741 14.7923 168.991C14.5508 169.238 14.2525 169.432 13.8974 169.571C13.5423 169.707 13.1431 169.775 12.6999 169.775ZM17.9457 165.702V169.639H16.94V163.094H17.9116V164.116H17.9968C18.1502 163.784 18.3832 163.517 18.6957 163.315C19.0082 163.111 19.4116 163.008 19.9059 163.008C20.3491 163.008 20.7369 163.099 21.0692 163.281C21.4016 163.46 21.6602 163.733 21.8448 164.099C22.0295 164.463 22.1218 164.923 22.1218 165.48V169.639H21.1161V165.548C21.1161 165.034 20.9826 164.633 20.7156 164.346C20.4485 164.057 20.082 163.912 19.6161 163.912C19.2951 163.912 19.0082 163.981 18.7553 164.121C18.5053 164.26 18.3079 164.463 18.163 164.73C18.0181 164.997 17.9457 165.321 17.9457 165.702ZM24.9652 165.702V169.639H23.9595V160.912H24.9652V164.116H25.0504C25.2038 163.778 25.4339 163.51 25.7408 163.311C26.0504 163.109 26.4624 163.008 26.9766 163.008C27.4226 163.008 27.8132 163.098 28.1484 163.277C28.4837 163.453 28.7436 163.724 28.9283 164.091C29.1158 164.454 29.2095 164.917 29.2095 165.48V169.639H28.2038V165.548C28.2038 165.028 28.0689 164.626 27.799 164.342C27.532 164.055 27.1612 163.912 26.6868 163.912C26.3572 163.912 26.0618 163.981 25.8004 164.121C25.5419 164.26 25.3374 164.463 25.1868 164.73C25.0391 164.997 24.9652 165.321 24.9652 165.702ZM35.1744 166.963V163.094H36.18V169.639H35.1744V168.531H35.1062C34.9528 168.863 34.7141 169.146 34.3903 169.379C34.0664 169.609 33.6573 169.724 33.163 169.724C32.7539 169.724 32.3903 169.635 32.0721 169.456C31.7539 169.274 31.5039 169.001 31.3221 168.638C31.1403 168.271 31.0494 167.809 31.0494 167.253V163.094H32.055V167.184C32.055 167.662 32.1886 168.042 32.4556 168.327C32.7255 168.611 33.0692 168.753 33.4869 168.753C33.7369 168.753 33.9911 168.689 34.2496 168.561C34.511 168.433 34.7298 168.237 34.9059 167.973C35.0849 167.709 35.1744 167.372 35.1744 166.963ZM38.022 169.639V163.094H38.9936V164.116H39.0788C39.2152 163.767 39.4354 163.496 39.7393 163.302C40.0433 163.106 40.4084 163.008 40.8345 163.008C41.2663 163.008 41.6257 163.106 41.9126 163.302C42.2024 163.496 42.4283 163.767 42.5902 164.116H42.6584C42.826 163.778 43.0774 163.51 43.4126 163.311C43.7479 163.109 44.1499 163.008 44.6186 163.008C45.2038 163.008 45.6825 163.192 46.0547 163.558C46.4268 163.922 46.6129 164.488 46.6129 165.258V169.639H45.6072V165.258C45.6072 164.775 45.4751 164.43 45.2109 164.223C44.9467 164.015 44.6357 163.912 44.2777 163.912C43.8175 163.912 43.4609 164.051 43.2081 164.329C42.9553 164.605 42.8288 164.954 42.8288 165.378V169.639H41.8061V165.156C41.8061 164.784 41.6854 164.484 41.4439 164.257C41.2024 164.027 40.8913 163.912 40.5107 163.912C40.2493 163.912 40.005 163.981 39.7777 164.121C39.5533 164.26 39.3714 164.453 39.2322 164.7C39.0959 164.944 39.0277 165.227 39.0277 165.548V169.639H38.022ZM54.7415 163.094V163.946H51.2131V163.094H54.7415ZM52.2699 169.639V162.19C52.2699 161.815 52.358 161.503 52.5341 161.253C52.7102 161.003 52.9389 160.815 53.2202 160.69C53.5014 160.565 53.7983 160.503 54.1108 160.503C54.358 160.503 54.5597 160.523 54.7159 160.562C54.8722 160.602 54.9886 160.639 55.0653 160.673L54.7756 161.542C54.7244 161.525 54.6534 161.504 54.5625 161.479C54.4744 161.453 54.358 161.44 54.2131 161.44C53.8807 161.44 53.6406 161.524 53.4929 161.692C53.348 161.859 53.2756 162.105 53.2756 162.429V169.639H52.2699ZM57.1566 160.912V169.639H56.1509V160.912H57.1566ZM63.1236 166.963V163.094H64.1293V169.639H63.1236V168.531H63.0554C62.902 168.863 62.6634 169.146 62.3395 169.379C62.0156 169.609 61.6065 169.724 61.1122 169.724C60.7031 169.724 60.3395 169.635 60.0213 169.456C59.7031 169.274 59.4531 169.001 59.2713 168.638C59.0895 168.271 58.9986 167.809 58.9986 167.253V163.094H60.0043V167.184C60.0043 167.662 60.1378 168.042 60.4048 168.327C60.6747 168.611 61.0185 168.753 61.4361 168.753C61.6861 168.753 61.9403 168.689 62.1989 168.561C62.4602 168.433 62.679 168.237 62.8551 167.973C63.0341 167.709 63.1236 167.372 63.1236 166.963ZM66.7212 163.094L68.2894 165.77L69.8576 163.094H71.0167L68.9031 166.366L71.0167 169.639H69.8576L68.2894 167.099L66.7212 169.639H65.5621L67.6417 166.366L65.5621 163.094H66.7212ZM74.8413 169.775C74.2504 169.775 73.7319 169.635 73.2859 169.354C72.8427 169.072 72.4961 168.679 72.2461 168.173C71.9989 167.667 71.8754 167.077 71.8754 166.4C71.8754 165.719 71.9989 165.123 72.2461 164.615C72.4961 164.106 72.8427 163.711 73.2859 163.43C73.7319 163.149 74.2504 163.008 74.8413 163.008C75.4322 163.008 75.9492 163.149 76.3924 163.43C76.8384 163.711 77.185 164.106 77.4322 164.615C77.6822 165.123 77.8072 165.719 77.8072 166.4C77.8072 167.077 77.6822 167.667 77.4322 168.173C77.185 168.679 76.8384 169.072 76.3924 169.354C75.9492 169.635 75.4322 169.775 74.8413 169.775ZM74.8413 168.872C75.2901 168.872 75.6594 168.757 75.9492 168.527C76.239 168.297 76.4535 167.994 76.5927 167.619C76.7319 167.244 76.8015 166.838 76.8015 166.4C76.8015 165.963 76.7319 165.555 76.5927 165.177C76.4535 164.8 76.239 164.494 75.9492 164.261C75.6594 164.028 75.2901 163.912 74.8413 163.912C74.3924 163.912 74.0231 164.028 73.7333 164.261C73.4435 164.494 73.229 164.8 73.0898 165.177C72.9506 165.555 72.881 165.963 72.881 166.4C72.881 166.838 72.9506 167.244 73.0898 167.619C73.229 167.994 73.4435 168.297 73.7333 168.527C74.0231 168.757 74.3924 168.872 74.8413 168.872ZM82.7173 172.094V163.094H83.6889V164.133H83.8082C83.8821 164.02 83.9844 163.875 84.1151 163.699C84.2486 163.52 84.4389 163.361 84.6861 163.221C84.9361 163.079 85.2741 163.008 85.7003 163.008C86.2514 163.008 86.7372 163.146 87.1577 163.422C87.5781 163.697 87.9063 164.088 88.142 164.594C88.3778 165.099 88.4957 165.696 88.4957 166.383C88.4957 167.077 88.3778 167.677 88.142 168.186C87.9063 168.692 87.5795 169.084 87.1619 169.362C86.7443 169.638 86.2628 169.775 85.7173 169.775C85.2969 169.775 84.9602 169.706 84.7074 169.567C84.4545 169.425 84.2599 169.264 84.1236 169.085C83.9872 168.903 83.8821 168.753 83.8082 168.633H83.723V172.094H82.7173ZM83.706 166.366C83.706 166.861 83.7784 167.297 83.9233 167.675C84.0682 168.05 84.2798 168.344 84.5582 168.557C84.8366 168.767 85.1776 168.872 85.581 168.872C86.0014 168.872 86.3523 168.761 86.6335 168.54C86.9176 168.315 87.1307 168.014 87.2727 167.636C87.4176 167.256 87.4901 166.832 87.4901 166.366C87.4901 165.906 87.419 165.491 87.277 165.122C87.1378 164.75 86.9261 164.456 86.642 164.24C86.3608 164.021 86.0071 163.912 85.581 163.912C85.1719 163.912 84.8281 164.015 84.5497 164.223C84.2713 164.427 84.0611 164.714 83.919 165.084C83.777 165.45 83.706 165.878 83.706 166.366ZM91.956 169.792C91.5412 169.792 91.1648 169.714 90.8267 169.558C90.4886 169.399 90.2202 169.17 90.0213 168.872C89.8224 168.571 89.723 168.207 89.723 167.781C89.723 167.406 89.7969 167.102 89.9446 166.869C90.0923 166.633 90.2898 166.449 90.5369 166.315C90.7841 166.182 91.0568 166.082 91.3551 166.017C91.6563 165.949 91.9588 165.895 92.2628 165.855C92.6605 165.804 92.983 165.765 93.2301 165.74C93.4801 165.711 93.6619 165.665 93.7756 165.599C93.892 165.534 93.9503 165.42 93.9503 165.258V165.224C93.9503 164.804 93.8352 164.477 93.6051 164.244C93.3778 164.011 93.0327 163.895 92.5696 163.895C92.0895 163.895 91.7131 164 91.4403 164.21C91.1676 164.42 90.9759 164.645 90.8651 164.883L89.9105 164.542C90.081 164.145 90.3082 163.835 90.5923 163.613C90.8793 163.389 91.1918 163.233 91.5298 163.145C91.8707 163.054 92.206 163.008 92.5355 163.008C92.7457 163.008 92.9872 163.034 93.2599 163.085C93.5355 163.133 93.8011 163.234 94.0568 163.388C94.3153 163.541 94.5298 163.773 94.7003 164.082C94.8707 164.392 94.956 164.807 94.956 165.327V169.639H93.9503V168.753H93.8991C93.831 168.895 93.7173 169.047 93.5582 169.209C93.3991 169.371 93.1875 169.508 92.9233 169.622C92.6591 169.736 92.3366 169.792 91.956 169.792ZM92.1094 168.889C92.5071 168.889 92.8423 168.811 93.1151 168.655C93.3906 168.498 93.598 168.297 93.7372 168.05C93.8793 167.802 93.9503 167.542 93.9503 167.27V166.349C93.9077 166.4 93.8139 166.447 93.669 166.49C93.527 166.53 93.3622 166.565 93.1747 166.596C92.9901 166.625 92.8097 166.65 92.6335 166.673C92.4602 166.693 92.3196 166.71 92.2116 166.724C91.9503 166.758 91.706 166.814 91.4787 166.89C91.2543 166.964 91.0724 167.077 90.9332 167.227C90.7969 167.375 90.7287 167.577 90.7287 167.832C90.7287 168.182 90.858 168.446 91.1165 168.625C91.3778 168.801 91.7088 168.889 92.1094 168.889ZM96.7915 169.639V163.094H97.7631V164.082H97.8313C97.9506 163.758 98.1665 163.496 98.479 163.294C98.7915 163.092 99.1438 162.991 99.5359 162.991C99.6097 162.991 99.7021 162.993 99.8129 162.996C99.9237 162.998 100.007 163.003 100.064 163.008V164.031C100.03 164.023 99.9521 164.01 99.8299 163.993C99.7106 163.973 99.5842 163.963 99.4506 163.963C99.1325 163.963 98.8484 164.03 98.5984 164.163C98.3512 164.294 98.1552 164.476 98.0103 164.709C97.8683 164.939 97.7972 165.202 97.7972 165.497V169.639H96.7915ZM103.183 169.792C102.768 169.792 102.391 169.714 102.053 169.558C101.715 169.399 101.447 169.17 101.248 168.872C101.049 168.571 100.95 168.207 100.95 167.781C100.95 167.406 101.023 167.102 101.171 166.869C101.319 166.633 101.516 166.449 101.763 166.315C102.011 166.182 102.283 166.082 102.582 166.017C102.883 165.949 103.185 165.895 103.489 165.855C103.887 165.804 104.21 165.765 104.457 165.74C104.707 165.711 104.888 165.665 105.002 165.599C105.119 165.534 105.177 165.42 105.177 165.258V165.224C105.177 164.804 105.062 164.477 104.832 164.244C104.604 164.011 104.259 163.895 103.796 163.895C103.316 163.895 102.94 164 102.667 164.21C102.394 164.42 102.202 164.645 102.092 164.883L101.137 164.542C101.308 164.145 101.535 163.835 101.819 163.613C102.106 163.389 102.418 163.233 102.756 163.145C103.097 163.054 103.433 163.008 103.762 163.008C103.972 163.008 104.214 163.034 104.487 163.085C104.762 163.133 105.028 163.234 105.283 163.388C105.542 163.541 105.756 163.773 105.927 164.082C106.097 164.392 106.183 164.807 106.183 165.327V169.639H105.177V168.753H105.126C105.058 168.895 104.944 169.047 104.785 169.209C104.626 169.371 104.414 169.508 104.15 169.622C103.886 169.736 103.563 169.792 103.183 169.792ZM103.336 168.889C103.734 168.889 104.069 168.811 104.342 168.655C104.617 168.498 104.825 168.297 104.964 168.05C105.106 167.802 105.177 167.542 105.177 167.27V166.349C105.134 166.4 105.04 166.447 104.896 166.49C104.754 166.53 104.589 166.565 104.401 166.596C104.217 166.625 104.036 166.65 103.86 166.673C103.687 166.693 103.546 166.71 103.438 166.724C103.177 166.758 102.933 166.814 102.705 166.89C102.481 166.964 102.299 167.077 102.16 167.227C102.023 167.375 101.955 167.577 101.955 167.832C101.955 168.182 102.085 168.446 102.343 168.625C102.604 168.801 102.935 168.889 103.336 168.889ZM114.137 169.775C113.507 169.775 112.963 169.636 112.505 169.358C112.051 169.077 111.7 168.684 111.453 168.182C111.208 167.676 111.086 167.088 111.086 166.417C111.086 165.747 111.208 165.156 111.453 164.645C111.7 164.131 112.044 163.73 112.484 163.443C112.927 163.153 113.444 163.008 114.035 163.008C114.376 163.008 114.713 163.065 115.045 163.179C115.377 163.292 115.68 163.477 115.953 163.733C116.225 163.986 116.443 164.321 116.605 164.738C116.767 165.156 116.848 165.67 116.848 166.281V166.707H111.802V165.838H115.825C115.825 165.469 115.751 165.139 115.603 164.849C115.458 164.559 115.251 164.331 114.981 164.163C114.714 163.996 114.399 163.912 114.035 163.912C113.635 163.912 113.288 164.011 112.995 164.21C112.706 164.406 112.483 164.662 112.326 164.977C112.17 165.292 112.092 165.631 112.092 165.991V166.571C112.092 167.065 112.177 167.484 112.348 167.828C112.521 168.169 112.761 168.429 113.068 168.608C113.375 168.784 113.731 168.872 114.137 168.872C114.402 168.872 114.64 168.835 114.853 168.761C115.069 168.684 115.255 168.571 115.412 168.42C115.568 168.267 115.689 168.077 115.774 167.849L116.745 168.122C116.643 168.452 116.471 168.741 116.23 168.991C115.988 169.238 115.69 169.432 115.335 169.571C114.98 169.707 114.581 169.775 114.137 169.775ZM118.952 163.094L120.52 165.77L122.088 163.094H123.247L121.134 166.366L123.247 169.639H122.088L120.52 167.099L118.952 169.639H117.793L119.872 166.366L117.793 163.094H118.952ZM124.682 169.639V163.094H125.688V169.639H124.682ZM125.194 162.003C124.998 162.003 124.828 161.936 124.686 161.802C124.547 161.669 124.478 161.508 124.478 161.321C124.478 161.133 124.547 160.973 124.686 160.839C124.828 160.706 124.998 160.639 125.194 160.639C125.39 160.639 125.557 160.706 125.696 160.839C125.838 160.973 125.909 161.133 125.909 161.321C125.909 161.508 125.838 161.669 125.696 161.802C125.557 161.936 125.39 162.003 125.194 162.003ZM127.666 169.639V160.912H128.672V164.133H128.757C128.831 164.02 128.933 163.875 129.064 163.699C129.197 163.52 129.388 163.361 129.635 163.221C129.885 163.079 130.223 163.008 130.649 163.008C131.2 163.008 131.686 163.146 132.107 163.422C132.527 163.697 132.855 164.088 133.091 164.594C133.327 165.099 133.445 165.696 133.445 166.383C133.445 167.077 133.327 167.677 133.091 168.186C132.855 168.692 132.528 169.084 132.111 169.362C131.693 169.638 131.212 169.775 130.666 169.775C130.246 169.775 129.909 169.706 129.656 169.567C129.403 169.425 129.209 169.264 129.072 169.085C128.936 168.903 128.831 168.753 128.757 168.633H128.638V169.639H127.666ZM128.655 166.366C128.655 166.861 128.727 167.297 128.872 167.675C129.017 168.05 129.229 168.344 129.507 168.557C129.786 168.767 130.126 168.872 130.53 168.872C130.95 168.872 131.301 168.761 131.582 168.54C131.866 168.315 132.08 168.014 132.222 167.636C132.366 167.256 132.439 166.832 132.439 166.366C132.439 165.906 132.368 165.491 132.226 165.122C132.087 164.75 131.875 164.456 131.591 164.24C131.31 164.021 130.956 163.912 130.53 163.912C130.121 163.912 129.777 164.015 129.499 164.223C129.22 164.427 129.01 164.714 128.868 165.084C128.726 165.45 128.655 165.878 128.655 166.366ZM134.983 169.639V163.094H135.989V169.639H134.983ZM135.494 162.003C135.298 162.003 135.129 161.936 134.987 161.802C134.848 161.669 134.778 161.508 134.778 161.321C134.778 161.133 134.848 160.973 134.987 160.839C135.129 160.706 135.298 160.639 135.494 160.639C135.69 160.639 135.858 160.706 135.997 160.839C136.139 160.973 136.21 161.133 136.21 161.321C136.21 161.508 136.139 161.669 135.997 161.802C135.858 161.936 135.69 162.003 135.494 162.003ZM137.831 169.639V163.094H138.802V164.082H138.87C138.99 163.758 139.206 163.496 139.518 163.294C139.831 163.092 140.183 162.991 140.575 162.991C140.649 162.991 140.741 162.993 140.852 162.996C140.963 162.998 141.047 163.003 141.103 163.008V164.031C141.069 164.023 140.991 164.01 140.869 163.993C140.75 163.973 140.623 163.963 140.49 163.963C140.172 163.963 139.887 164.03 139.637 164.163C139.39 164.294 139.194 164.476 139.049 164.709C138.907 164.939 138.836 165.202 138.836 165.497V169.639H137.831ZM147.597 169.792C147.182 169.792 146.805 169.714 146.467 169.558C146.129 169.399 145.861 169.17 145.662 168.872C145.463 168.571 145.364 168.207 145.364 167.781C145.364 167.406 145.438 167.102 145.585 166.869C145.733 166.633 145.93 166.449 146.178 166.315C146.425 166.182 146.697 166.082 146.996 166.017C147.297 165.949 147.599 165.895 147.903 165.855C148.301 165.804 148.624 165.765 148.871 165.74C149.121 165.711 149.303 165.665 149.416 165.599C149.533 165.534 149.591 165.42 149.591 165.258V165.224C149.591 164.804 149.476 164.477 149.246 164.244C149.018 164.011 148.673 163.895 148.21 163.895C147.73 163.895 147.354 164 147.081 164.21C146.808 164.42 146.616 164.645 146.506 164.883L145.551 164.542C145.722 164.145 145.949 163.835 146.233 163.613C146.52 163.389 146.832 163.233 147.17 163.145C147.511 163.054 147.847 163.008 148.176 163.008C148.386 163.008 148.628 163.034 148.901 163.085C149.176 163.133 149.442 163.234 149.697 163.388C149.956 163.541 150.17 163.773 150.341 164.082C150.511 164.392 150.597 164.807 150.597 165.327V169.639H149.591V168.753H149.54C149.472 168.895 149.358 169.047 149.199 169.209C149.04 169.371 148.828 169.508 148.564 169.622C148.3 169.736 147.977 169.792 147.597 169.792ZM147.75 168.889C148.148 168.889 148.483 168.811 148.756 168.655C149.031 168.498 149.239 168.297 149.378 168.05C149.52 167.802 149.591 167.542 149.591 167.27V166.349C149.548 166.4 149.455 166.447 149.31 166.49C149.168 166.53 149.003 166.565 148.815 166.596C148.631 166.625 148.45 166.65 148.274 166.673C148.101 166.693 147.96 166.71 147.852 166.724C147.591 166.758 147.347 166.814 147.119 166.89C146.895 166.964 146.713 167.077 146.574 167.227C146.438 167.375 146.369 167.577 146.369 167.832C146.369 168.182 146.499 168.446 146.757 168.625C147.018 168.801 147.349 168.889 147.75 168.889ZM156.898 172.094V168.633H156.813C156.739 168.753 156.634 168.903 156.498 169.085C156.361 169.264 156.167 169.425 155.914 169.567C155.661 169.706 155.324 169.775 154.904 169.775C154.358 169.775 153.877 169.638 153.459 169.362C153.042 169.084 152.715 168.692 152.479 168.186C152.243 167.677 152.125 167.077 152.125 166.383C152.125 165.696 152.243 165.099 152.479 164.594C152.715 164.088 153.043 163.697 153.463 163.422C153.884 163.146 154.37 163.008 154.921 163.008C155.347 163.008 155.684 163.079 155.931 163.221C156.181 163.361 156.371 163.52 156.502 163.699C156.635 163.875 156.739 164.02 156.813 164.133H156.932V163.094H157.904V172.094H156.898ZM155.04 168.872C155.444 168.872 155.784 168.767 156.063 168.557C156.341 168.344 156.553 168.05 156.698 167.675C156.843 167.297 156.915 166.861 156.915 166.366C156.915 165.878 156.844 165.45 156.702 165.084C156.56 164.714 156.35 164.427 156.071 164.223C155.793 164.015 155.449 163.912 155.04 163.912C154.614 163.912 154.259 164.021 153.975 164.24C153.694 164.456 153.482 164.75 153.34 165.122C153.201 165.491 153.131 165.906 153.131 166.366C153.131 166.832 153.202 167.256 153.344 167.636C153.489 168.014 153.702 168.315 153.983 168.54C154.267 168.761 154.62 168.872 155.04 168.872ZM163.87 166.963V163.094H164.875V169.639H163.87V168.531H163.801C163.648 168.863 163.409 169.146 163.086 169.379C162.762 169.609 162.353 169.724 161.858 169.724C161.449 169.724 161.086 169.635 160.767 169.456C160.449 169.274 160.199 169.001 160.017 168.638C159.836 168.271 159.745 167.809 159.745 167.253V163.094H160.75V167.184C160.75 167.662 160.884 168.042 161.151 168.327C161.421 168.611 161.765 168.753 162.182 168.753C162.432 168.753 162.686 168.689 162.945 168.561C163.206 168.433 163.425 168.237 163.601 167.973C163.78 167.709 163.87 167.372 163.87 166.963ZM166.717 169.639V163.094H167.723V169.639H166.717ZM167.229 162.003C167.033 162.003 166.864 161.936 166.722 161.802C166.582 161.669 166.513 161.508 166.513 161.321C166.513 161.133 166.582 160.973 166.722 160.839C166.864 160.706 167.033 160.639 167.229 160.639C167.425 160.639 167.592 160.706 167.732 160.839C167.874 160.973 167.945 161.133 167.945 161.321C167.945 161.508 167.874 161.669 167.732 161.802C167.592 161.936 167.425 162.003 167.229 162.003Z" fill="black" fill-opacity="0.6"/>
<defs>
<clipPath id="clip0_90_1575">
<rect width="147.049" height="121.639" fill="white" transform="translate(10.9756)"/>
</clipPath>
</defs>
</svg>
