<svg width="329" height="224" viewBox="0 0 329 224" fill="none" xmlns="http://www.w3.org/2000/svg">
<g clip-path="url(#clip0_22_28)">
<path d="M74.7259 5.82099C76.3349 5.82099 77.6393 4.51792 77.6393 2.9105C77.6393 1.30307 76.3349 0 74.7259 0C73.1169 0 71.8125 1.30307 71.8125 2.9105C71.8125 4.51792 73.1169 5.82099 74.7259 5.82099Z" fill="#E6E6E6"/>
<path d="M89.4734 5.82099C91.0825 5.82099 92.3868 4.51792 92.3868 2.9105C92.3868 1.30307 91.0825 0 89.4734 0C87.8644 0 86.5601 1.30307 86.5601 2.9105C86.5601 4.51792 87.8644 5.82099 89.4734 5.82099Z" fill="#E6E6E6"/>
<path d="M104.221 5.82099C105.83 5.82099 107.134 4.51792 107.134 2.9105C107.134 1.30307 105.83 0 104.221 0C102.612 0 101.308 1.30307 101.308 2.9105C101.308 4.51792 102.612 5.82099 104.221 5.82099Z" fill="#E6E6E6"/>
<path d="M118.969 5.82099C120.578 5.82099 121.882 4.51792 121.882 2.9105C121.882 1.30307 120.578 0 118.969 0C117.36 0 116.055 1.30307 116.055 2.9105C116.055 4.51792 117.36 5.82099 118.969 5.82099Z" fill="#E6E6E6"/>
<path d="M133.716 5.82099C135.325 5.82099 136.63 4.51792 136.63 2.9105C136.63 1.30307 135.325 0 133.716 0C132.107 0 130.803 1.30307 130.803 2.9105C130.803 4.51792 132.107 5.82099 133.716 5.82099Z" fill="#E6E6E6"/>
<path d="M74.7259 20.7388C76.3349 20.7388 77.6393 19.4358 77.6393 17.8283C77.6393 16.2209 76.3349 14.9178 74.7259 14.9178C73.1169 14.9178 71.8125 16.2209 71.8125 17.8283C71.8125 19.4358 73.1169 20.7388 74.7259 20.7388Z" fill="#E6E6E6"/>
<path d="M89.4734 20.7388C91.0825 20.7388 92.3868 19.4358 92.3868 17.8283C92.3868 16.2209 91.0825 14.9178 89.4734 14.9178C87.8644 14.9178 86.5601 16.2209 86.5601 17.8283C86.5601 19.4358 87.8644 20.7388 89.4734 20.7388Z" fill="#E6E6E6"/>
<path d="M104.221 20.7388C105.83 20.7388 107.134 19.4358 107.134 17.8283C107.134 16.2209 105.83 14.9178 104.221 14.9178C102.612 14.9178 101.308 16.2209 101.308 17.8283C101.308 19.4358 102.612 20.7388 104.221 20.7388Z" fill="#E6E6E6"/>
<path d="M118.969 20.7388C120.578 20.7388 121.882 19.4358 121.882 17.8283C121.882 16.2209 120.578 14.9178 118.969 14.9178C117.36 14.9178 116.055 16.2209 116.055 17.8283C116.055 19.4358 117.36 20.7388 118.969 20.7388Z" fill="#7E30E1"/>
<path d="M133.716 20.7388C135.325 20.7388 136.63 19.4358 136.63 17.8283C136.63 16.2209 135.325 14.9178 133.716 14.9178C132.107 14.9178 130.803 16.2209 130.803 17.8283C130.803 19.4358 132.107 20.7388 133.716 20.7388Z" fill="#E6E6E6"/>
<path d="M163.211 20.7388C164.82 20.7388 166.125 19.4358 166.125 17.8283C166.125 16.2209 164.82 14.9178 163.211 14.9178C161.602 14.9178 160.298 16.2209 160.298 17.8283C160.298 19.4358 161.602 20.7388 163.211 20.7388Z" fill="#E6E6E6"/>
<path d="M74.7259 35.6566C76.3349 35.6566 77.6393 34.3535 77.6393 32.7461C77.6393 31.1386 76.3349 29.8356 74.7259 29.8356C73.1169 29.8356 71.8125 31.1386 71.8125 32.7461C71.8125 34.3535 73.1169 35.6566 74.7259 35.6566Z" fill="#E6E6E6"/>
<path d="M89.4734 35.6566C91.0825 35.6566 92.3868 34.3535 92.3868 32.7461C92.3868 31.1386 91.0825 29.8356 89.4734 29.8356C87.8644 29.8356 86.5601 31.1386 86.5601 32.7461C86.5601 34.3535 87.8644 35.6566 89.4734 35.6566Z" fill="#E6E6E6"/>
<path d="M104.221 35.6566C105.83 35.6566 107.134 34.3535 107.134 32.7461C107.134 31.1386 105.83 29.8356 104.221 29.8356C102.612 29.8356 101.308 31.1386 101.308 32.7461C101.308 34.3535 102.612 35.6566 104.221 35.6566Z" fill="#E6E6E6"/>
<path d="M118.969 35.6566C120.578 35.6566 121.882 34.3535 121.882 32.7461C121.882 31.1386 120.578 29.8356 118.969 29.8356C117.36 29.8356 116.055 31.1386 116.055 32.7461C116.055 34.3535 117.36 35.6566 118.969 35.6566Z" fill="#E6E6E6"/>
<path d="M133.716 35.6566C135.325 35.6566 136.63 34.3535 136.63 32.7461C136.63 31.1386 135.325 29.8356 133.716 29.8356C132.107 29.8356 130.803 31.1386 130.803 32.7461C130.803 34.3535 132.107 35.6566 133.716 35.6566Z" fill="#E6E6E6"/>
<path d="M74.7259 50.5744C76.3349 50.5744 77.6393 49.2713 77.6393 47.6639C77.6393 46.0565 76.3349 44.7534 74.7259 44.7534C73.1169 44.7534 71.8125 46.0565 71.8125 47.6639C71.8125 49.2713 73.1169 50.5744 74.7259 50.5744Z" fill="#E6E6E6"/>
<path d="M89.4734 50.5744C91.0825 50.5744 92.3868 49.2713 92.3868 47.6639C92.3868 46.0565 91.0825 44.7534 89.4734 44.7534C87.8644 44.7534 86.5601 46.0565 86.5601 47.6639C86.5601 49.2713 87.8644 50.5744 89.4734 50.5744Z" fill="#E6E6E6"/>
<path d="M104.221 50.5744C105.83 50.5744 107.134 49.2713 107.134 47.6639C107.134 46.0565 105.83 44.7534 104.221 44.7534C102.612 44.7534 101.308 46.0565 101.308 47.6639C101.308 49.2713 102.612 50.5744 104.221 50.5744Z" fill="#E6E6E6"/>
<path d="M118.969 50.5744C120.578 50.5744 121.882 49.2713 121.882 47.6639C121.882 46.0565 120.578 44.7534 118.969 44.7534C117.36 44.7534 116.055 46.0565 116.055 47.6639C116.055 49.2713 117.36 50.5744 118.969 50.5744Z" fill="#E6E6E6"/>
<path d="M133.716 50.5744C135.325 50.5744 136.63 49.2713 136.63 47.6639C136.63 46.0565 135.325 44.7534 133.716 44.7534C132.107 44.7534 130.803 46.0565 130.803 47.6639C130.803 49.2713 132.107 50.5744 133.716 50.5744Z" fill="#E6E6E6"/>
<path d="M148.464 50.5744C150.073 50.5744 151.377 49.2713 151.377 47.6639C151.377 46.0565 150.073 44.7534 148.464 44.7534C146.855 44.7534 145.55 46.0565 145.55 47.6639C145.55 49.2713 146.855 50.5744 148.464 50.5744Z" fill="#E6E6E6"/>
<path d="M163.211 50.5744C164.82 50.5744 166.125 49.2713 166.125 47.6639C166.125 46.0565 164.82 44.7534 163.211 44.7534C161.602 44.7534 160.298 46.0565 160.298 47.6639C160.298 49.2713 161.602 50.5744 163.211 50.5744Z" fill="#E6E6E6"/>
<path d="M177.958 50.5744C179.567 50.5744 180.872 49.2713 180.872 47.6639C180.872 46.0565 179.567 44.7534 177.958 44.7534C176.349 44.7534 175.045 46.0565 175.045 47.6639C175.045 49.2713 176.349 50.5744 177.958 50.5744Z" fill="#E6E6E6"/>
<path d="M192.706 50.5744C194.315 50.5744 195.619 49.2713 195.619 47.6639C195.619 46.0565 194.315 44.7534 192.706 44.7534C191.097 44.7534 189.792 46.0565 189.792 47.6639C189.792 49.2713 191.097 50.5744 192.706 50.5744Z" fill="#E6E6E6"/>
<path d="M207.453 50.5744C209.062 50.5744 210.367 49.2713 210.367 47.6639C210.367 46.0565 209.062 44.7534 207.453 44.7534C205.844 44.7534 204.54 46.0565 204.54 47.6639C204.54 49.2713 205.844 50.5744 207.453 50.5744Z" fill="#E6E6E6"/>
<path d="M133.716 65.4921C135.325 65.4921 136.63 64.1891 136.63 62.5816C136.63 60.9742 135.325 59.6711 133.716 59.6711C132.107 59.6711 130.803 60.9742 130.803 62.5816C130.803 64.1891 132.107 65.4921 133.716 65.4921Z" fill="#E6E6E6"/>
<path d="M148.464 65.4921C150.073 65.4921 151.377 64.1891 151.377 62.5816C151.377 60.9742 150.073 59.6711 148.464 59.6711C146.855 59.6711 145.55 60.9742 145.55 62.5816C145.55 64.1891 146.855 65.4921 148.464 65.4921Z" fill="#7E30E1"/>
<path d="M163.211 65.4921C164.82 65.4921 166.125 64.1891 166.125 62.5816C166.125 60.9742 164.82 59.6711 163.211 59.6711C161.602 59.6711 160.298 60.9742 160.298 62.5816C160.298 64.1891 161.602 65.4921 163.211 65.4921Z" fill="#E6E6E6"/>
<path d="M177.958 65.4921C179.567 65.4921 180.872 64.1891 180.872 62.5816C180.872 60.9742 179.567 59.6711 177.958 59.6711C176.349 59.6711 175.045 60.9742 175.045 62.5816C175.045 64.1891 176.349 65.4921 177.958 65.4921Z" fill="#E6E6E6"/>
<path d="M192.706 65.4921C194.315 65.4921 195.619 64.1891 195.619 62.5816C195.619 60.9742 194.315 59.6711 192.706 59.6711C191.097 59.6711 189.792 60.9742 189.792 62.5816C189.792 64.1891 191.097 65.4921 192.706 65.4921Z" fill="#E6E6E6"/>
<path d="M207.453 65.4921C209.062 65.4921 210.367 64.1891 210.367 62.5816C210.367 60.9742 209.062 59.6711 207.453 59.6711C205.844 59.6711 204.54 60.9742 204.54 62.5816C204.54 64.1891 205.844 65.4921 207.453 65.4921Z" fill="#E6E6E6"/>
<path d="M133.716 80.41C135.325 80.41 136.63 79.1069 136.63 77.4995C136.63 75.8921 135.325 74.589 133.716 74.589C132.107 74.589 130.803 75.8921 130.803 77.4995C130.803 79.1069 132.107 80.41 133.716 80.41Z" fill="#E6E6E6"/>
<path d="M148.464 80.41C150.073 80.41 151.377 79.1069 151.377 77.4995C151.377 75.8921 150.073 74.589 148.464 74.589C146.855 74.589 145.55 75.8921 145.55 77.4995C145.55 79.1069 146.855 80.41 148.464 80.41Z" fill="#E6E6E6"/>
<path d="M163.211 80.41C164.82 80.41 166.125 79.1069 166.125 77.4995C166.125 75.8921 164.82 74.589 163.211 74.589C161.602 74.589 160.298 75.8921 160.298 77.4995C160.298 79.1069 161.602 80.41 163.211 80.41Z" fill="#E6E6E6"/>
<path d="M177.958 80.41C179.567 80.41 180.872 79.1069 180.872 77.4995C180.872 75.8921 179.567 74.589 177.958 74.589C176.349 74.589 175.045 75.8921 175.045 77.4995C175.045 79.1069 176.349 80.41 177.958 80.41Z" fill="#E6E6E6"/>
<path d="M192.706 80.41C194.315 80.41 195.619 79.1069 195.619 77.4995C195.619 75.8921 194.315 74.589 192.706 74.589C191.097 74.589 189.792 75.8921 189.792 77.4995C189.792 79.1069 191.097 80.41 192.706 80.41Z" fill="#7E30E1"/>
<path d="M207.453 80.41C209.062 80.41 210.367 79.1069 210.367 77.4995C210.367 75.8921 209.062 74.589 207.453 74.589C205.844 74.589 204.54 75.8921 204.54 77.4995C204.54 79.1069 205.844 80.41 207.453 80.41Z" fill="#E6E6E6"/>
<path d="M133.716 95.3278C135.325 95.3278 136.63 94.0248 136.63 92.4173C136.63 90.8099 135.325 89.5068 133.716 89.5068C132.107 89.5068 130.803 90.8099 130.803 92.4173C130.803 94.0248 132.107 95.3278 133.716 95.3278Z" fill="#E6E6E6"/>
<path d="M148.464 95.3278C150.073 95.3278 151.377 94.0248 151.377 92.4173C151.377 90.8099 150.073 89.5068 148.464 89.5068C146.855 89.5068 145.55 90.8099 145.55 92.4173C145.55 94.0248 146.855 95.3278 148.464 95.3278Z" fill="#E6E6E6"/>
<path d="M163.211 95.3278C164.82 95.3278 166.125 94.0248 166.125 92.4173C166.125 90.8099 164.82 89.5068 163.211 89.5068C161.602 89.5068 160.298 90.8099 160.298 92.4173C160.298 94.0248 161.602 95.3278 163.211 95.3278Z" fill="#E6E6E6"/>
<path d="M177.958 95.3278C179.567 95.3278 180.872 94.0248 180.872 92.4173C180.872 90.8099 179.567 89.5068 177.958 89.5068C176.349 89.5068 175.045 90.8099 175.045 92.4173C175.045 94.0248 176.349 95.3278 177.958 95.3278Z" fill="#E6E6E6"/>
<path d="M192.706 95.3278C194.315 95.3278 195.619 94.0248 195.619 92.4173C195.619 90.8099 194.315 89.5068 192.706 89.5068C191.097 89.5068 189.792 90.8099 189.792 92.4173C189.792 94.0248 191.097 95.3278 192.706 95.3278Z" fill="#E6E6E6"/>
<path d="M207.453 95.3278C209.062 95.3278 210.367 94.0248 210.367 92.4173C210.367 90.8099 209.062 89.5068 207.453 89.5068C205.844 89.5068 204.54 90.8099 204.54 92.4173C204.54 94.0248 205.844 95.3278 207.453 95.3278Z" fill="#E6E6E6"/>
<path d="M74.7259 110.246C76.3349 110.246 77.6393 108.942 77.6393 107.335C77.6393 105.728 76.3349 104.425 74.7259 104.425C73.1169 104.425 71.8125 105.728 71.8125 107.335C71.8125 108.942 73.1169 110.246 74.7259 110.246Z" fill="#E6E6E6"/>
<path d="M89.4734 110.246C91.0825 110.246 92.3868 108.942 92.3868 107.335C92.3868 105.728 91.0825 104.425 89.4734 104.425C87.8644 104.425 86.5601 105.728 86.5601 107.335C86.5601 108.942 87.8644 110.246 89.4734 110.246Z" fill="#E6E6E6"/>
<path d="M104.221 110.246C105.83 110.246 107.134 108.942 107.134 107.335C107.134 105.728 105.83 104.425 104.221 104.425C102.612 104.425 101.308 105.728 101.308 107.335C101.308 108.942 102.612 110.246 104.221 110.246Z" fill="#E6E6E6"/>
<path d="M118.969 110.246C120.578 110.246 121.882 108.942 121.882 107.335C121.882 105.728 120.578 104.425 118.969 104.425C117.36 104.425 116.055 105.728 116.055 107.335C116.055 108.942 117.36 110.246 118.969 110.246Z" fill="#E6E6E6"/>
<path d="M133.716 110.246C135.325 110.246 136.63 108.942 136.63 107.335C136.63 105.728 135.325 104.425 133.716 104.425C132.107 104.425 130.803 105.728 130.803 107.335C130.803 108.942 132.107 110.246 133.716 110.246Z" fill="#E6E6E6"/>
<path d="M148.464 110.246C150.073 110.246 151.377 108.942 151.377 107.335C151.377 105.728 150.073 104.425 148.464 104.425C146.855 104.425 145.55 105.728 145.55 107.335C145.55 108.942 146.855 110.246 148.464 110.246Z" fill="#E6E6E6"/>
<path d="M163.211 110.246C164.82 110.246 166.125 108.942 166.125 107.335C166.125 105.728 164.82 104.425 163.211 104.425C161.602 104.425 160.298 105.728 160.298 107.335C160.298 108.942 161.602 110.246 163.211 110.246Z" fill="#E6E6E6"/>
<path d="M177.958 110.246C179.567 110.246 180.872 108.942 180.872 107.335C180.872 105.728 179.567 104.425 177.958 104.425C176.349 104.425 175.045 105.728 175.045 107.335C175.045 108.942 176.349 110.246 177.958 110.246Z" fill="#E6E6E6"/>
<path d="M192.706 110.246C194.315 110.246 195.619 108.942 195.619 107.335C195.619 105.728 194.315 104.425 192.706 104.425C191.097 104.425 189.792 105.728 189.792 107.335C189.792 108.942 191.097 110.246 192.706 110.246Z" fill="#E6E6E6"/>
<path d="M207.453 110.246C209.062 110.246 210.367 108.942 210.367 107.335C210.367 105.728 209.062 104.425 207.453 104.425C205.844 104.425 204.54 105.728 204.54 107.335C204.54 108.942 205.844 110.246 207.453 110.246Z" fill="#E6E6E6"/>
<path d="M74.7244 125.163C76.3334 125.163 77.6378 123.86 77.6378 122.252C77.6378 120.645 76.3334 119.342 74.7244 119.342C73.1154 119.342 71.811 120.645 71.811 122.252C71.811 123.86 73.1154 125.163 74.7244 125.163Z" fill="#E6E6E6"/>
<path d="M89.4734 125.163C91.0825 125.163 92.3868 123.86 92.3868 122.253C92.3868 120.645 91.0825 119.342 89.4734 119.342C87.8644 119.342 86.5601 120.645 86.5601 122.253C86.5601 123.86 87.8644 125.163 89.4734 125.163Z" fill="#E6E6E6"/>
<path d="M74.7244 140.081C76.3334 140.081 77.6378 138.778 77.6378 137.17C77.6378 135.563 76.3334 134.26 74.7244 134.26C73.1154 134.26 71.811 135.563 71.811 137.17C71.811 138.778 73.1154 140.081 74.7244 140.081Z" fill="#E6E6E6"/>
<path d="M89.4734 140.081C91.0825 140.081 92.3868 138.778 92.3868 137.171C92.3868 135.563 91.0825 134.26 89.4734 134.26C87.8644 134.26 86.5601 135.563 86.5601 137.171C86.5601 138.778 87.8644 140.081 89.4734 140.081Z" fill="#E6E6E6"/>
<path d="M118.969 140.081C120.578 140.081 121.882 138.778 121.882 137.171C121.882 135.563 120.578 134.26 118.969 134.26C117.36 134.26 116.055 135.563 116.055 137.171C116.055 138.778 117.36 140.081 118.969 140.081Z" fill="#E6E6E6"/>
<path d="M265.967 34.338H150.515C149.948 34.3373 149.405 34.1121 149.004 33.7117C148.603 33.3113 148.378 32.7684 148.377 32.2021V3.59181C148.378 3.02554 148.603 2.48266 149.004 2.08225C149.405 1.68184 149.948 1.4566 150.515 1.45593H265.967C266.534 1.4566 267.077 1.68184 267.478 2.08225C267.879 2.48266 268.104 3.02554 268.105 3.59181V32.2021C268.104 32.7684 267.879 33.3113 267.478 33.7117C267.077 34.1121 266.534 34.3373 265.967 34.338ZM150.515 2.31028C150.175 2.31065 149.849 2.44579 149.608 2.68604C149.368 2.9263 149.233 3.25204 149.232 3.59181V32.2021C149.233 32.5419 149.368 32.8676 149.608 33.1079C149.849 33.3481 150.175 33.4833 150.515 33.4837H265.967C266.307 33.4833 266.633 33.3481 266.874 33.1079C267.114 32.8676 267.249 32.5419 267.25 32.2021V3.59181C267.249 3.25204 267.114 2.9263 266.874 2.68604C266.633 2.44579 266.307 2.31065 265.967 2.31028H150.515Z" fill="#E6E6E6"/>
<path d="M165.481 26.8675C170.44 26.8675 174.461 22.8512 174.461 17.8968C174.461 12.9425 170.44 8.92615 165.481 8.92615C160.522 8.92615 156.501 12.9425 156.501 17.8968C156.501 22.8512 160.522 26.8675 165.481 26.8675Z" fill="#7E30E1"/>
<path d="M186.22 11.9164C185.823 11.9164 185.442 12.0739 185.161 12.3543C184.881 12.6347 184.723 13.015 184.723 13.4115C184.723 13.808 184.881 14.1883 185.161 14.4687C185.442 14.7491 185.823 14.9066 186.22 14.9066H225.986C226.383 14.9066 226.764 14.7491 227.045 14.4687C227.325 14.1883 227.483 13.808 227.483 13.4115C227.483 13.015 227.325 12.6347 227.045 12.3543C226.764 12.0739 226.383 11.9164 225.986 11.9164H186.22Z" fill="#E6E6E6"/>
<path d="M186.22 20.8871C185.823 20.8871 185.442 21.0446 185.161 21.325C184.881 21.6054 184.723 21.9857 184.723 22.3822C184.723 22.7787 184.881 23.159 185.161 23.4394C185.442 23.7198 185.823 23.8773 186.22 23.8773H256.774C257.171 23.8773 257.551 23.7198 257.832 23.4394C258.113 23.159 258.27 22.7787 258.27 22.3822C258.27 21.9857 258.113 21.6054 257.832 21.325C257.551 21.0446 257.171 20.8871 256.774 20.8871H186.22Z" fill="#E6E6E6"/>
<path d="M117.59 92.4339H2.138C1.57117 92.4333 1.02775 92.208 0.626941 91.8076C0.226132 91.4072 0.000664287 90.8643 0 90.2981V61.6878C0.000664287 61.1215 0.226132 60.5786 0.626941 60.1782C1.02775 59.7778 1.57117 59.5525 2.138 59.5519H117.59C118.157 59.5525 118.7 59.7778 119.101 60.1782C119.502 60.5786 119.727 61.1215 119.728 61.6878V90.2981C119.727 90.8643 119.502 91.4072 119.101 91.8076C118.7 92.208 118.157 92.4333 117.59 92.4339ZM2.138 60.4062C1.79789 60.4066 1.47182 60.5417 1.23133 60.782C0.990841 61.0222 0.85557 61.348 0.855199 61.6878V90.2981C0.85557 90.6378 0.990841 90.9636 1.23133 91.2038C1.47182 91.4441 1.79789 91.5792 2.138 91.5796H117.59C117.93 91.5792 118.256 91.4441 118.497 91.2038C118.737 90.9636 118.873 90.6378 118.873 90.2981V61.6878C118.873 61.348 118.737 61.0222 118.497 60.782C118.256 60.5417 117.93 60.4066 117.59 60.4062H2.138Z" fill="#E6E6E6"/>
<path d="M17.1041 84.9635C22.0634 84.9635 26.0837 80.9471 26.0837 75.9928C26.0837 71.0384 22.0634 67.0221 17.1041 67.0221C12.1448 67.0221 8.12451 71.0384 8.12451 75.9928C8.12451 80.9471 12.1448 84.9635 17.1041 84.9635Z" fill="#7E30E1"/>
<path d="M37.8428 70.0123C37.4459 70.0123 37.0652 70.1699 36.7845 70.4502C36.5039 70.7306 36.3462 71.1109 36.3462 71.5074C36.3462 71.904 36.5039 72.2843 36.7845 72.5647C37.0652 72.845 37.4459 73.0026 37.8428 73.0026H79.32C79.7169 73.0026 80.0975 72.845 80.3782 72.5647C80.6589 72.2843 80.8165 71.904 80.8165 71.5074C80.8165 71.1109 80.6589 70.7306 80.3782 70.4502C80.0975 70.1699 79.7169 70.0123 79.32 70.0123H37.8428Z" fill="#E6E6E6"/>
<path d="M37.8428 78.9829C37.4459 78.9829 37.0652 79.1404 36.7845 79.4208C36.5039 79.7012 36.3462 80.0815 36.3462 80.478C36.3462 80.8746 36.5039 81.2548 36.7845 81.5352C37.0652 81.8156 37.4459 81.9731 37.8428 81.9731H108.397C108.794 81.9731 109.174 81.8156 109.455 81.5352C109.736 81.2548 109.893 80.8746 109.893 80.478C109.893 80.0815 109.736 79.7012 109.455 79.4208C109.174 79.1404 108.794 78.9829 108.397 78.9829H37.8428Z" fill="#E6E6E6"/>
<path d="M221.925 155.229H106.472C105.906 155.228 105.362 155.003 104.961 154.602C104.561 154.202 104.335 153.659 104.334 153.093V124.483C104.335 123.916 104.561 123.373 104.961 122.973C105.362 122.573 105.906 122.347 106.472 122.347H221.925C222.491 122.347 223.035 122.573 223.436 122.973C223.836 123.373 224.062 123.916 224.063 124.483V153.093C224.062 153.659 223.836 154.202 223.436 154.602C223.035 155.003 222.491 155.228 221.925 155.229ZM106.472 123.201C106.132 123.201 105.806 123.337 105.566 123.577C105.325 123.817 105.19 124.143 105.19 124.483V153.093C105.19 153.433 105.325 153.758 105.566 153.999C105.806 154.239 106.132 154.374 106.472 154.374H221.925C222.265 154.374 222.591 154.239 222.831 153.999C223.072 153.758 223.207 153.433 223.207 153.093V124.483C223.207 124.143 223.072 123.817 222.831 123.577C222.591 123.337 222.265 123.201 221.925 123.201H106.472Z" fill="#3F3D56"/>
<path d="M121.438 147.758C126.397 147.758 130.418 143.742 130.418 138.788C130.418 133.833 126.397 129.817 121.438 129.817C116.479 129.817 112.458 133.833 112.458 138.788C112.458 143.742 116.479 147.758 121.438 147.758Z" fill="#7E30E1"/>
<path d="M142.177 132.807C141.78 132.807 141.399 132.965 141.119 133.245C140.838 133.525 140.68 133.906 140.68 134.302C140.68 134.699 140.838 135.079 141.119 135.359C141.399 135.64 141.78 135.797 142.177 135.797H180.233C180.63 135.797 181.011 135.64 181.291 135.359C181.572 135.079 181.73 134.699 181.73 134.302C181.73 133.906 181.572 133.525 181.291 133.245C181.011 132.965 180.63 132.807 180.233 132.807H142.177Z" fill="#E6E6E6"/>
<path d="M142.177 141.778C141.78 141.778 141.399 141.935 141.119 142.216C140.838 142.496 140.68 142.876 140.68 143.273C140.68 143.669 140.838 144.05 141.119 144.33C141.399 144.61 141.78 144.768 142.177 144.768H212.731C213.128 144.768 213.508 144.61 213.789 144.33C214.07 144.05 214.227 143.669 214.227 143.273C214.227 142.876 214.07 142.496 213.789 142.216C213.508 141.935 213.128 141.778 212.731 141.778H142.177Z" fill="#E6E6E6"/>
<path d="M284.033 147.973C279.019 163 258.507 147.062 258.507 147.062L263.977 90.142C272.182 83.767 280.842 89.2313 280.842 89.2313L284.033 147.973Z" fill="#E6E6E6"/>
<path d="M282.956 198.405L289.945 198.479L288.199 218.605L282.957 218.605L282.956 198.405Z" fill="#FFB8B8"/>
<path d="M281.62 216.895H291.944C293.688 216.897 295.36 217.59 296.594 218.822C297.827 220.055 298.521 221.725 298.523 223.468V223.681H281.62V216.895Z" fill="#2F2E41"/>
<path d="M264.009 198.405L256.272 198.405L258.766 218.605L264.008 218.605L264.009 198.405Z" fill="#FFB8B8"/>
<path d="M248.441 223.681V223.468C248.441 221.724 249.135 220.053 250.369 218.82C251.603 217.587 253.276 216.895 255.021 216.895L265.345 216.895L265.345 223.682L248.441 223.681Z" fill="#2F2E41"/>
<path d="M282.484 215.119L273.328 161.797L264.844 214.431L256.249 214.908L253.958 144.388L254.13 144.349C255.551 144.031 288.995 136.693 294.478 147.191L294.506 147.244L289.93 215.358L282.484 215.119Z" fill="#2F2E41"/>
<path d="M272.78 83.4716C278.58 83.4716 283.282 78.7743 283.282 72.9798C283.282 67.1853 278.58 62.4879 272.78 62.4879C266.98 62.4879 262.278 67.1853 262.278 72.9798C262.278 78.7743 266.98 83.4716 272.78 83.4716Z" fill="#FFB8B8"/>
<path d="M281.603 152.469C280.372 152.129 279.485 150.716 278.811 148.025C278.695 147.56 267.791 101.159 277.012 92.7516L279.138 86.8531L282.047 88.7905C283.076 88.8001 293.601 89.0662 294.5 95.8059C295.381 102.403 297.778 146.603 295.368 149.352C295.321 149.412 295.261 149.462 295.193 149.497C295.124 149.531 295.049 149.55 294.972 149.552C292.53 149.552 291.789 146.846 291.615 145.983C291.034 146.223 289.305 147.106 286.463 149.945C284.702 151.704 283.322 152.547 282.182 152.547C281.986 152.547 281.791 152.521 281.603 152.469Z" fill="#2F2E41"/>
<path d="M258.812 149.945C255.969 147.105 254.239 146.223 253.66 145.983C253.486 146.846 252.744 149.552 250.302 149.552C250.226 149.55 250.15 149.531 250.082 149.496C250.013 149.462 249.953 149.412 249.906 149.352C247.497 146.603 249.894 102.403 250.774 95.8059C251.674 89.0662 262.199 88.8001 263.228 88.7905L266.137 86.8531L268.262 92.7516C277.483 101.158 266.579 147.56 266.463 148.025C265.79 150.717 264.903 152.129 263.671 152.469C263.483 152.521 263.288 152.547 263.093 152.547C261.953 152.547 260.572 151.704 258.812 149.945Z" fill="#2F2E41"/>
<path d="M281.451 78.9728C283.227 77.6961 284.573 75.9093 285.308 73.85C286.044 71.7907 286.134 69.5565 285.567 67.4447C285.001 65.3329 283.804 63.4434 282.136 62.0277C280.468 60.612 278.409 59.737 276.231 59.5193C275.264 59.4226 274.223 59.437 273.421 58.8884C272.709 58.4011 272.326 57.556 271.671 56.9937C271.255 56.6724 270.778 56.4403 270.268 56.312C269.759 56.1837 269.228 56.1618 268.709 56.2478C267.674 56.4261 266.671 56.7553 265.732 57.225C263.404 58.2622 260.928 59.5388 259.868 61.8556C258.95 63.8623 259.356 66.3369 260.655 68.121C262.021 69.8867 264.013 71.0618 266.221 71.4042C268.415 71.7317 270.656 71.5301 272.757 70.8162C274.143 70.3805 275.511 69.7867 276.963 69.7383C278.097 69.7004 279.216 70.0002 280.178 70.5996C281.141 71.199 281.903 72.0708 282.368 73.1042C282.833 74.1375 282.98 75.2858 282.79 76.4028C282.6 77.5198 282.082 78.5551 281.301 79.3771" fill="#2F2E41"/>
<path d="M224.208 141.387C224.814 141.373 225.412 141.24 225.967 140.995C226.522 140.75 227.023 140.399 227.442 139.961C227.86 139.522 228.189 139.006 228.408 138.441C228.627 137.876 228.732 137.273 228.718 136.668L234.843 126.344L230.111 122.01L223.659 132.182C222.469 132.296 221.369 132.867 220.592 133.775C219.814 134.682 219.42 135.856 219.491 137.049C219.562 138.241 220.093 139.36 220.973 140.169C221.853 140.978 223.012 141.415 224.208 141.387Z" fill="#FFB8B8"/>
<path d="M295.263 152.696C295.771 152.366 296.209 151.938 296.552 151.438C296.895 150.938 297.135 150.376 297.26 149.783C297.385 149.19 297.392 148.578 297.281 147.983C297.169 147.387 296.941 146.819 296.61 146.312L296.376 134.314L290.068 133.118L289.945 145.159C288.993 145.882 288.359 146.946 288.177 148.127C287.994 149.308 288.277 150.513 288.966 151.49C289.655 152.466 290.697 153.138 291.871 153.363C293.046 153.588 294.262 153.349 295.263 152.696Z" fill="#FFB8B8"/>
<path d="M226.071 124.788L226 124.675L226.071 124.561C235.257 109.824 254.54 91.4151 254.734 91.2308L254.795 91.1728L257.176 91.1484L259.751 97.5561C258.949 99.0965 237.346 129.214 234.494 131.212C234.267 131.369 234.009 131.476 233.738 131.527C233.466 131.578 233.187 131.572 232.918 131.508C232.443 131.399 231.991 131.206 231.582 130.94C228.95 129.311 226.206 125.001 226.071 124.788Z" fill="#2F2E41"/>
<path d="M288.868 141.605C288.612 141.517 288.377 141.378 288.178 141.195C287.979 141.013 287.82 140.791 287.711 140.543C286.335 137.337 292.23 96.8423 292.482 95.12L292.529 94.7942L294.522 96.0557L294.542 96.1416C294.6 96.4003 300.405 122.198 298.832 139.34L298.82 139.463L298.709 139.515C298.469 139.626 293.634 141.844 290.411 141.844C289.887 141.858 289.364 141.776 288.868 141.605Z" fill="#2F2E41"/>
<path d="M328.572 224H214.831C214.718 224 214.609 223.955 214.529 223.875C214.448 223.795 214.403 223.686 214.403 223.573C214.403 223.46 214.448 223.351 214.529 223.271C214.609 223.191 214.718 223.146 214.831 223.146H328.572C328.686 223.146 328.795 223.191 328.875 223.271C328.955 223.351 329 223.46 329 223.573C329 223.686 328.955 223.795 328.875 223.875C328.795 223.955 328.686 224 328.572 224Z" fill="#3F3D56"/>
</g>
<defs>
<clipPath id="clip0_22_28">
<rect width="329" height="224" fill="white"/>
</clipPath>
</defs>
</svg>
