<svg width="329" height="248" viewBox="0 0 329 248" fill="none" xmlns="http://www.w3.org/2000/svg">
<g clip-path="url(#clip0_22_240)">
<path d="M189.593 12.0695C192.415 18.066 186.435 19.7646 179.585 22.9787C172.735 26.1927 167.609 29.7053 164.787 23.7087C161.965 17.7121 159.675 5.81007 169.366 1.2632C179.39 -3.44031 186.771 6.07293 189.593 12.0695Z" fill="#2F2E41"/>
<path d="M175.617 23.8623C180.71 23.8623 184.839 19.7398 184.839 14.6544C184.839 9.56904 180.71 5.44653 175.617 5.44653C170.524 5.44653 166.396 9.56904 166.396 14.6544C166.396 19.7398 170.524 23.8623 175.617 23.8623Z" fill="#FFB8B8"/>
<path d="M221.303 55.4895C220.984 55.0734 220.665 54.6647 220.342 54.2673C219.925 53.75 219.506 53.2489 219.084 52.764C214.305 47.2567 209.221 43.7889 203.623 43.4178H203.616L203.533 43.4103L192.378 54.2673L188.586 57.9563L188.669 58.1588L190.715 63.2461H226.567C224.951 60.5691 223.194 57.9799 221.303 55.4895Z" fill="#2F2E41"/>
<path d="M165.59 18.3615L168.891 16.8127L168.431 12.0577L170.638 15.9927L172.216 15.2524L171.948 12.4787L173.236 14.7741L184.959 9.27338C183.858 6.93368 181.871 5.12655 179.436 4.24955C177 3.37255 174.316 3.49752 171.972 4.59696L170.273 5.39417C167.93 6.49362 166.12 8.47749 165.242 10.9093C164.364 13.3412 164.489 16.0218 165.59 18.3615Z" fill="#2F2E41"/>
<path d="M241.99 185.5H49.443C47.8006 185.498 46.226 184.846 45.0646 183.686C43.9032 182.526 43.2499 180.954 43.248 179.314V63.7875C43.2494 62.586 43.728 61.4341 44.5788 60.5845C45.4296 59.7349 46.5832 59.257 47.7865 59.2556H243.568C244.793 59.257 245.966 59.7432 246.832 60.6075C247.697 61.4718 248.184 62.6436 248.185 63.8659V179.314C248.184 180.954 247.53 182.526 246.369 183.686C245.208 184.846 243.633 185.498 241.99 185.5Z" fill="#F2F2F2"/>
<path d="M55.4497 179.314H235.983C237.576 179.314 239.104 178.682 240.23 177.557C241.357 176.432 241.99 174.906 241.99 173.316V75.2617C241.99 73.6708 241.357 72.1451 240.23 71.0202C239.104 69.8953 237.576 69.2633 235.983 69.2633H55.4497C53.8564 69.2633 52.3284 69.8953 51.2019 71.0202C50.0753 72.1451 49.4424 73.6708 49.4424 75.2617V173.316C49.4424 174.906 50.0753 176.432 51.2019 177.557C52.3284 178.682 53.8564 179.314 55.4497 179.314Z" fill="white"/>
<path d="M248.099 63.4337H43.1611V60.2844C43.1635 58.639 43.8195 57.0616 44.9851 55.8985C46.1507 54.7353 47.7308 54.0813 49.3787 54.08H241.882C243.53 54.0813 245.11 54.7353 246.275 55.8985C247.441 57.0616 248.097 58.639 248.099 60.2844V63.4337Z" fill="#7E30E1"/>
<path d="M54.4598 60.372C55.348 60.372 56.068 59.653 56.068 58.7661C56.068 57.8792 55.348 57.1603 54.4598 57.1603C53.5716 57.1603 52.8516 57.8792 52.8516 58.7661C52.8516 59.653 53.5716 60.372 54.4598 60.372Z" fill="white"/>
<path d="M60.5643 60.372C61.4525 60.372 62.1725 59.653 62.1725 58.7661C62.1725 57.8792 61.4525 57.1603 60.5643 57.1603C59.6761 57.1603 58.9561 57.8792 58.9561 58.7661C58.9561 59.653 59.6761 60.372 60.5643 60.372Z" fill="white"/>
<path d="M66.6688 60.372C67.557 60.372 68.277 59.653 68.277 58.7661C68.277 57.8792 67.557 57.1603 66.6688 57.1603C65.7806 57.1603 65.0605 57.8792 65.0605 58.7661C65.0605 59.653 65.7806 60.372 66.6688 60.372Z" fill="white"/>
<path d="M151.349 158.049H135.205C134.259 158.048 133.352 157.673 132.684 157.005C132.015 156.337 131.639 155.432 131.638 154.488V138.367C131.639 137.423 132.015 136.518 132.684 135.85C133.352 135.182 134.259 134.807 135.205 134.806H151.349C152.295 134.807 153.201 135.182 153.87 135.85C154.539 136.518 154.915 137.423 154.916 138.367V154.488C154.915 155.432 154.539 156.337 153.87 157.005C153.201 157.673 152.295 158.048 151.349 158.049ZM135.205 135.555C134.458 135.556 133.742 135.853 133.214 136.38C132.686 136.907 132.389 137.622 132.389 138.367V154.488C132.389 155.233 132.686 155.948 133.214 156.475C133.742 157.002 134.458 157.299 135.205 157.299H151.349C152.096 157.299 152.811 157.002 153.339 156.475C153.867 155.948 154.164 155.233 154.165 154.488V138.367C154.164 137.622 153.867 136.907 153.339 136.38C152.811 135.853 152.096 135.556 151.349 135.555H135.205Z" fill="#CCCCCC"/>
<path d="M148.158 153.55H138.396C138.097 153.55 137.811 153.432 137.6 153.221C137.389 153.01 137.27 152.724 137.27 152.426V140.429C137.27 140.131 137.389 139.845 137.6 139.634C137.811 139.423 138.097 139.305 138.396 139.304H145.469C145.726 139.305 145.975 139.392 146.175 139.552L148.863 141.709C148.995 141.815 149.101 141.948 149.174 142.1C149.247 142.252 149.284 142.418 149.284 142.586V152.426C149.284 152.724 149.165 153.01 148.954 153.221C148.743 153.432 148.456 153.55 148.158 153.55ZM138.396 140.054C138.296 140.054 138.201 140.094 138.131 140.164C138.06 140.234 138.021 140.33 138.02 140.429V152.426C138.021 152.525 138.06 152.62 138.131 152.691C138.201 152.761 138.296 152.801 138.396 152.801H148.158C148.257 152.801 148.353 152.761 148.423 152.691C148.493 152.62 148.533 152.525 148.533 152.426V142.586C148.533 142.53 148.521 142.475 148.496 142.424C148.472 142.373 148.437 142.329 148.393 142.294L145.704 140.137C145.638 140.083 145.555 140.054 145.469 140.054H138.396Z" fill="#CCCCCC"/>
<path d="M146.281 144.553H140.274C140.174 144.553 140.079 144.513 140.008 144.443C139.938 144.373 139.898 144.277 139.898 144.178C139.898 144.079 139.938 143.983 140.008 143.913C140.079 143.843 140.174 143.803 140.274 143.803H146.281C146.381 143.803 146.476 143.843 146.547 143.913C146.617 143.983 146.657 144.079 146.657 144.178C146.657 144.277 146.617 144.373 146.547 144.443C146.476 144.513 146.381 144.553 146.281 144.553Z" fill="#CCCCCC"/>
<path d="M146.281 146.802H140.274C140.174 146.802 140.079 146.763 140.008 146.692C139.938 146.622 139.898 146.527 139.898 146.427C139.898 146.328 139.938 146.233 140.008 146.162C140.079 146.092 140.174 146.052 140.274 146.052H146.281C146.381 146.052 146.476 146.092 146.547 146.162C146.617 146.233 146.657 146.328 146.657 146.427C146.657 146.527 146.617 146.622 146.547 146.692C146.476 146.763 146.381 146.802 146.281 146.802Z" fill="#CCCCCC"/>
<path d="M146.281 149.052H140.274C140.174 149.052 140.079 149.012 140.008 148.942C139.938 148.872 139.898 148.776 139.898 148.677C139.898 148.577 139.938 148.482 140.008 148.412C140.079 148.341 140.174 148.302 140.274 148.302H146.281C146.381 148.302 146.476 148.341 146.547 148.412C146.617 148.482 146.657 148.577 146.657 148.677C146.657 148.776 146.617 148.872 146.547 148.942C146.476 149.012 146.381 149.052 146.281 149.052Z" fill="#CCCCCC"/>
<path d="M189.646 158.049H173.501C172.556 158.048 171.649 157.673 170.98 157.005C170.312 156.337 169.936 155.432 169.935 154.488V138.367C169.936 137.423 170.312 136.518 170.98 135.85C171.649 135.182 172.556 134.807 173.501 134.806H189.646C190.592 134.807 191.498 135.182 192.167 135.85C192.836 136.518 193.212 137.423 193.213 138.367V154.488C193.212 155.432 192.836 156.337 192.167 157.005C191.498 157.673 190.592 158.048 189.646 158.049ZM173.501 135.555C172.755 135.556 172.039 135.853 171.511 136.38C170.983 136.907 170.686 137.622 170.685 138.367V154.488C170.686 155.233 170.983 155.948 171.511 156.475C172.039 157.002 172.755 157.299 173.501 157.299H189.646C190.392 157.299 191.108 157.002 191.636 156.475C192.164 155.948 192.461 155.233 192.462 154.488V138.367C192.461 137.622 192.164 136.907 191.636 136.38C191.108 135.853 190.392 135.556 189.646 135.555H173.501Z" fill="#CCCCCC"/>
<path d="M186.83 150.551H176.317C176.018 150.551 175.732 150.432 175.521 150.222C175.31 150.011 175.191 149.725 175.19 149.427V143.428C175.191 143.13 175.31 142.844 175.521 142.633C175.732 142.423 176.018 142.304 176.317 142.304H186.83C187.128 142.304 187.414 142.423 187.626 142.633C187.837 142.844 187.956 143.13 187.956 143.428V149.427C187.956 149.725 187.837 150.011 187.626 150.222C187.414 150.432 187.128 150.551 186.83 150.551ZM176.317 143.053C176.217 143.053 176.122 143.093 176.051 143.163C175.981 143.234 175.941 143.329 175.941 143.428V149.427C175.941 149.526 175.981 149.621 176.051 149.692C176.122 149.762 176.217 149.801 176.317 149.802H186.83C186.929 149.801 187.024 149.762 187.095 149.692C187.165 149.621 187.205 149.526 187.205 149.427V143.428C187.205 143.329 187.165 143.234 187.095 143.163C187.024 143.093 186.929 143.053 186.83 143.053H176.317Z" fill="#CCCCCC"/>
<path d="M181.574 147.416C181.363 147.417 181.156 147.358 180.977 147.247L175.367 143.746C175.283 143.693 175.223 143.609 175.201 143.513C175.179 143.416 175.196 143.314 175.249 143.23C175.301 143.146 175.385 143.086 175.482 143.063C175.579 143.041 175.681 143.058 175.765 143.11L181.375 146.611C181.435 146.648 181.504 146.667 181.574 146.667C181.644 146.667 181.713 146.648 181.773 146.611L187.382 143.11C187.466 143.058 187.568 143.041 187.665 143.063C187.762 143.086 187.846 143.146 187.899 143.23C187.951 143.314 187.969 143.416 187.946 143.513C187.924 143.609 187.864 143.693 187.78 143.746L182.171 147.247C181.992 147.358 181.785 147.417 181.574 147.416Z" fill="#CCCCCC"/>
<path d="M113.053 158.049H96.9086C95.963 158.048 95.0564 157.673 94.3877 157.005C93.719 156.337 93.3429 155.432 93.3418 154.488V138.367C93.3429 137.423 93.719 136.518 94.3877 135.85C95.0564 135.182 95.963 134.807 96.9086 134.806H113.053C113.999 134.807 114.905 135.182 115.574 135.85C116.243 136.518 116.619 137.423 116.62 138.367V154.488C116.619 155.432 116.243 156.337 115.574 157.005C114.905 157.673 113.999 158.048 113.053 158.049ZM96.9086 135.555C96.162 135.556 95.4463 135.853 94.9184 136.38C94.3905 136.907 94.0935 137.622 94.0927 138.367V154.488C94.0935 155.233 94.3905 155.948 94.9184 156.475C95.4463 157.002 96.162 157.299 96.9086 157.299H113.053C113.8 157.299 114.515 157.002 115.043 156.475C115.571 155.948 115.868 155.233 115.869 154.488V138.367C115.868 137.622 115.571 136.907 115.043 136.38C114.515 135.853 113.8 135.556 113.053 135.555H96.9086Z" fill="#CCCCCC"/>
<path d="M110.238 150.551H99.725C99.4264 150.551 99.1401 150.432 98.9289 150.222C98.7177 150.011 98.599 149.725 98.5986 149.427V143.428C98.599 143.13 98.7177 142.844 98.9289 142.633C99.1401 142.423 99.4264 142.304 99.725 142.304H110.238C110.536 142.304 110.823 142.423 111.034 142.633C111.245 142.844 111.364 143.13 111.364 143.428V149.427C111.364 149.725 111.245 150.011 111.034 150.222C110.823 150.432 110.536 150.551 110.238 150.551ZM99.725 143.053C99.6254 143.053 99.53 143.093 99.4596 143.163C99.3892 143.234 99.3496 143.329 99.3495 143.428V149.427C99.3496 149.526 99.3892 149.621 99.4596 149.692C99.53 149.762 99.6254 149.801 99.725 149.802H110.238C110.337 149.801 110.433 149.762 110.503 149.692C110.573 149.621 110.613 149.526 110.613 149.427V143.428C110.613 143.329 110.573 143.234 110.503 143.163C110.433 143.093 110.337 143.053 110.238 143.053H99.725Z" fill="#CCCCCC"/>
<path d="M108.571 150.551H101.016C100.884 150.551 100.754 150.517 100.64 150.451C100.526 150.385 100.431 150.29 100.365 150.176C100.299 150.062 100.265 149.933 100.265 149.801C100.265 149.67 100.299 149.541 100.365 149.427L102.641 145.49C102.707 145.376 102.802 145.281 102.916 145.216C103.03 145.15 103.16 145.115 103.292 145.115C103.423 145.115 103.553 145.15 103.667 145.216C103.781 145.281 103.876 145.376 103.942 145.49L105.412 148.032L106.263 146.56C106.329 146.446 106.424 146.351 106.538 146.285C106.652 146.219 106.782 146.185 106.914 146.185C107.046 146.185 107.175 146.219 107.289 146.285C107.403 146.351 107.498 146.446 107.564 146.56L109.222 149.427C109.288 149.541 109.322 149.67 109.322 149.801C109.322 149.933 109.288 150.062 109.222 150.176C109.156 150.29 109.061 150.385 108.947 150.451C108.833 150.517 108.703 150.551 108.571 150.551ZM108.571 149.801L106.914 146.934L105.737 148.97C105.704 149.027 105.657 149.074 105.6 149.107C105.543 149.14 105.478 149.157 105.412 149.157C105.346 149.157 105.281 149.14 105.224 149.107C105.167 149.074 105.12 149.027 105.087 148.97L103.292 145.865L101.016 149.801H108.571Z" fill="#CCCCCC"/>
<path d="M109.111 145.303C109.526 145.303 109.862 144.967 109.862 144.553C109.862 144.139 109.526 143.803 109.111 143.803C108.697 143.803 108.36 144.139 108.36 144.553C108.36 144.967 108.697 145.303 109.111 145.303Z" fill="#CCCCCC"/>
<path d="M288.659 242.99L284.056 242.99L281.866 225.262L288.66 225.262L288.659 242.99Z" fill="#FFB8B8"/>
<path d="M289.832 247.446L274.99 247.445V247.258C274.99 246.5 275.14 245.75 275.43 245.05C275.72 244.35 276.146 243.714 276.682 243.179C277.219 242.643 277.856 242.218 278.556 241.928C279.257 241.638 280.008 241.489 280.767 241.489H280.768L289.832 241.49L289.832 247.446Z" fill="#2F2E41"/>
<path d="M307.431 242.99L302.828 242.99L300.639 225.262L307.432 225.262L307.431 242.99Z" fill="#FFB8B8"/>
<path d="M308.606 247.446L293.764 247.445V247.258C293.764 246.5 293.913 245.75 294.203 245.05C294.494 244.35 294.919 243.714 295.456 243.179C295.992 242.643 296.629 242.218 297.33 241.928C298.031 241.638 298.782 241.489 299.541 241.489H299.541L308.606 241.49L308.606 247.446Z" fill="#2F2E41"/>
<path d="M306.051 235.305L301.788 234.01C301.47 233.914 301.188 233.726 300.977 233.471C300.765 233.215 300.634 232.903 300.6 232.573L296.625 194.961C296.622 194.915 296.602 194.873 296.568 194.842C296.535 194.811 296.491 194.793 296.445 194.793C296.4 194.789 296.354 194.803 296.318 194.831C296.283 194.86 296.259 194.901 296.254 194.947L289.597 231.386C289.556 231.608 289.472 231.818 289.349 232.007C289.226 232.195 289.066 232.356 288.879 232.482C288.693 232.608 288.483 232.695 288.262 232.739C288.041 232.782 287.814 232.781 287.594 232.736L282.145 231.615C281.746 231.532 281.39 231.307 281.143 230.983C280.896 230.658 280.774 230.256 280.8 229.849L284.85 170.123L312.31 167.164L308.229 233.794C308.203 234.222 308.014 234.624 307.701 234.919C307.389 235.213 306.975 235.377 306.546 235.379C306.378 235.379 306.212 235.354 306.051 235.305Z" fill="#2F2E41"/>
<path d="M306.025 118.111C311.118 118.111 315.247 113.988 315.247 108.903C315.247 103.818 311.118 99.6952 306.025 99.6952C300.932 99.6952 296.804 103.818 296.804 108.903C296.804 113.988 300.932 118.111 306.025 118.111Z" fill="#FFB8B8"/>
<path d="M284.808 170.474L290.762 133.04C291.078 131.049 291.816 129.149 292.925 127.466C294.034 125.782 295.49 124.354 297.195 123.275C298.9 122.197 300.816 121.494 302.814 121.212C304.813 120.931 306.848 121.078 308.785 121.643C312.173 122.621 315.073 124.825 316.92 127.824C318.767 130.823 319.427 134.402 318.773 137.862L312.544 171.292L284.808 170.474Z" fill="#7E30E1"/>
<path d="M308.571 177.171C309.032 176.868 309.42 176.467 309.709 175.997C309.997 175.527 310.179 175 310.242 174.453C310.304 173.905 310.246 173.35 310.071 172.828C309.895 172.305 309.607 171.827 309.227 171.428L315.383 159.525L308.45 160.263L303.667 171.454C303.038 172.136 302.681 173.026 302.664 173.953C302.647 174.881 302.971 175.783 303.576 176.488C304.18 177.192 305.023 177.651 305.943 177.777C306.864 177.903 307.799 177.688 308.571 177.171Z" fill="#FFB8B8"/>
<path d="M309.889 169.328C309.549 169.28 309.231 169.13 308.978 168.897L306.623 166.724C306.368 166.488 306.193 166.18 306.119 165.841C306.046 165.502 306.079 165.149 306.213 164.829L310.92 153.688L310.252 131.674C310.348 130.966 310.583 130.284 310.943 129.667C311.303 129.05 311.781 128.51 312.351 128.078C312.92 127.645 313.569 127.329 314.261 127.148C314.952 126.966 315.673 126.922 316.382 127.018C317.09 127.115 317.773 127.35 318.39 127.71C319.008 128.07 319.548 128.548 319.981 129.117C320.413 129.686 320.729 130.334 320.911 131.025C321.092 131.716 321.135 132.435 321.038 133.143L322.18 146.981C322.527 151.181 321.334 155.364 318.824 158.752L311.483 168.661C311.342 168.852 311.162 169.01 310.955 169.127C310.749 169.243 310.52 169.315 310.284 169.338C310.152 169.35 310.02 169.347 309.889 169.328Z" fill="#7E30E1"/>
<path d="M252.922 103.886C253.022 104.428 253.24 104.942 253.561 105.39C253.882 105.839 254.297 106.212 254.777 106.483C255.258 106.754 255.792 106.916 256.343 106.959C256.893 107.001 257.446 106.923 257.963 106.729L266.54 117.03L268.562 110.368L260.106 101.607C259.723 100.762 259.042 100.086 258.193 99.7092C257.344 99.332 256.386 99.2788 255.5 99.5598C254.614 99.8408 253.863 100.436 253.387 101.234C252.912 102.031 252.746 102.975 252.922 103.886Z" fill="#FFB8B8"/>
<path d="M259.64 108.156C259.817 107.862 260.08 107.628 260.393 107.487L263.316 106.168C263.632 106.026 263.985 105.985 264.326 106.05C264.667 106.114 264.98 106.282 265.223 106.53L273.662 115.202L294.225 123.171C294.84 123.536 295.377 124.017 295.806 124.589C296.235 125.161 296.547 125.811 296.724 126.503C296.901 127.195 296.939 127.915 296.837 128.622C296.735 129.329 296.495 130.009 296.129 130.623C295.764 131.237 295.281 131.773 294.708 132.201C294.135 132.628 293.483 132.939 292.79 133.114C292.097 133.29 291.375 133.328 290.668 133.225C289.96 133.123 289.279 132.882 288.665 132.516L275.457 128.17C271.449 126.852 268.056 124.125 265.911 120.496L259.634 109.882C259.513 109.678 259.437 109.451 259.41 109.215C259.383 108.98 259.406 108.741 259.478 108.515C259.518 108.39 259.572 108.269 259.64 108.156Z" fill="#7E30E1"/>
<path opacity="0.1" d="M313.505 140.831L313.13 152.828L306.213 164.829L311.988 151.455L313.505 140.831Z" fill="black"/>
<path d="M304.969 110.633C304.39 110.709 303.803 110.571 303.318 110.247C302.832 109.923 302.481 109.434 302.33 108.871C302.183 108.222 301.863 107.626 301.404 107.146C300.944 106.665 300.362 106.319 299.72 106.144C298.028 105.758 295.961 106.553 294.721 105.273C294.456 104.981 294.264 104.63 294.161 104.249C294.058 103.868 294.048 103.469 294.13 103.083C294.358 101.839 295.249 100.9 296.219 100.148C298.259 98.5744 300.728 97.653 303.302 97.505C304.634 97.4665 305.968 97.5327 307.29 97.7031C308.674 97.7903 310.043 98.0401 311.368 98.4474C312.879 99.0165 314.221 99.9564 315.271 101.18C316.321 102.405 317.045 103.873 317.376 105.451C317.679 107.033 317.633 108.662 317.24 110.225C316.847 111.787 316.118 113.245 315.102 114.497C313.887 116.009 312.319 117.2 310.536 117.968C310.112 118.168 309.625 118.193 309.182 118.037C308.072 117.596 308.254 116.222 308.76 115.306C309.302 114.326 310.135 113.377 309.7 112.184C309.481 111.631 309.062 111.18 308.525 110.922C307.422 110.36 306.187 110.493 305 110.63L304.969 110.633Z" fill="#2F2E41"/>
<path d="M249.84 115.833H135.702C134.059 115.831 132.485 115.179 131.323 114.019C130.162 112.86 129.509 111.287 129.507 109.647V85.2791C129.509 83.6391 130.162 82.0668 131.323 80.9071C132.485 79.7474 134.059 79.0951 135.702 79.0933H249.84C251.482 79.0951 253.057 79.7475 254.218 80.9071C255.38 82.0668 256.033 83.6391 256.035 85.2791V109.647C256.033 111.287 255.38 112.86 254.218 114.019C253.057 115.179 251.482 115.831 249.84 115.833Z" fill="white"/>
<path d="M249.84 116.021H135.702C134.01 116.019 132.387 115.347 131.191 114.152C129.994 112.957 129.321 111.337 129.319 109.648V85.2792C129.321 83.5894 129.994 81.9695 131.191 80.7747C132.387 79.5799 134.01 78.9078 135.702 78.9059H249.84C251.532 78.9078 253.155 79.5799 254.351 80.7747C255.548 81.9695 256.221 83.5894 256.223 85.2792V109.648C256.221 111.337 255.548 112.957 254.351 114.152C253.155 115.347 251.532 116.019 249.84 116.021ZM135.702 79.6557C134.209 79.6574 132.777 80.2504 131.722 81.3046C130.666 82.3589 130.072 83.7882 130.07 85.2792V109.648C130.072 111.138 130.666 112.568 131.722 113.622C132.777 114.676 134.209 115.269 135.702 115.271H249.84C251.333 115.269 252.765 114.676 253.821 113.622C254.876 112.568 255.47 111.138 255.472 109.648V85.2792C255.47 83.7882 254.876 82.3589 253.821 81.3046C252.765 80.2504 251.333 79.6574 249.84 79.6557H135.702Z" fill="#3F3D56"/>
<path d="M235.948 109.835H149.593C147.951 109.833 146.376 109.181 145.215 108.021C144.054 106.861 143.4 105.289 143.398 103.649V90.9026C143.4 89.2626 144.054 87.6903 145.215 86.5306C146.376 85.371 147.951 84.7186 149.593 84.7168H235.948C237.59 84.7186 239.165 85.371 240.326 86.5306C241.488 87.6903 242.141 89.2626 242.143 90.9026V103.649C242.141 105.289 241.488 106.861 240.326 108.021C239.165 109.181 237.59 109.833 235.948 109.835Z" fill="#F2F2F2"/>
<path d="M168.176 102.965C172.268 102.965 175.585 99.6527 175.585 95.5672C175.585 91.4816 172.268 88.1696 168.176 88.1696C164.085 88.1696 160.768 91.4816 160.768 95.5672C160.768 99.6527 164.085 102.965 168.176 102.965Z" fill="#FF6584"/>
<path d="M230.581 109.088L220.124 100.331L209.847 91.7247C209.576 91.4976 209.233 91.3734 208.879 91.3741C208.525 91.3748 208.183 91.5003 207.912 91.7284L197.669 100.374L195.167 102.486L191.394 99.3267L179.929 89.7252C179.658 89.4981 179.315 89.374 178.961 89.3746C178.607 89.3753 178.265 89.5008 177.994 89.729L166.566 99.3745L154.958 109.172C154.899 109.221 154.857 109.288 154.838 109.362C154.818 109.437 154.822 109.515 154.848 109.587C154.875 109.66 154.923 109.722 154.986 109.766C155.049 109.81 155.124 109.833 155.201 109.833L179 109.787L186.533 109.773L186.46 109.835L208.915 109.792L230.341 109.751C230.418 109.75 230.493 109.727 230.556 109.683C230.619 109.638 230.667 109.576 230.693 109.504C230.719 109.431 230.723 109.353 230.703 109.278C230.683 109.204 230.64 109.138 230.581 109.088Z" fill="#3F3D56"/>
<path d="M328.625 247.985H256.538C256.438 247.985 256.342 247.946 256.272 247.875C256.202 247.805 256.162 247.71 256.162 247.61C256.162 247.511 256.202 247.415 256.272 247.345C256.342 247.275 256.438 247.235 256.538 247.235H328.625C328.724 247.235 328.82 247.275 328.89 247.345C328.961 247.415 329 247.511 329 247.61C329 247.71 328.961 247.805 328.89 247.875C328.82 247.946 328.724 247.985 328.625 247.985Z" fill="#CCCCCC"/>
<path d="M226.796 49.4536C226.496 48.9671 226.1 48.5466 225.632 48.2179C225.164 47.8892 224.634 47.6591 224.074 47.5417C223.869 47.4986 223.66 47.4723 223.451 47.4629L194.845 21.9249C194.283 21.3482 193.533 20.9906 192.731 20.9164C192.573 20.8982 192.413 20.8932 192.254 20.9014C191.594 20.9313 190.957 21.1527 190.421 21.5383C189.885 21.9239 189.473 22.4572 189.236 23.0729C188.998 23.6885 188.946 24.3599 189.084 25.0049C189.223 25.6499 189.547 26.2406 190.016 26.7048L200.968 36.2385L218.953 51.8905C218.967 52.1853 219.011 52.4779 219.084 52.764C219.299 53.5929 219.762 54.3368 220.41 54.8972C221.059 55.4576 221.862 55.808 222.715 55.9019C223.492 55.9926 224.279 55.8626 224.986 55.527C225.547 55.2653 226.044 54.8854 226.443 54.4135C226.484 54.3648 226.522 54.3198 226.559 54.2673C227.084 53.5842 227.388 52.7574 227.431 51.8974C227.473 51.0373 227.251 50.1848 226.796 49.4536Z" fill="#FFB8B8"/>
<path d="M177.866 74.0658L177.599 63.2462L177.374 54.2674L177.22 47.9841L176.916 35.7362C176.856 35.0804 176.606 34.4563 176.196 33.9401C175.787 33.4239 175.236 33.0379 174.61 32.8291C173.985 32.6204 173.312 32.5981 172.674 32.7648C172.036 32.9315 171.46 33.2801 171.018 33.768C170.913 33.8794 170.819 33.9999 170.736 34.1279C170.274 34.7889 170.066 35.5942 170.15 36.396L170.819 54.2674L171.153 63.2462L171.581 74.6994C171.457 74.8677 171.346 75.0443 171.247 75.228C170.98 75.7335 170.818 76.288 170.773 76.8577C170.727 77.4274 170.797 78.0005 170.98 78.5421C171.171 79.1101 171.48 79.6313 171.887 80.0713C172.294 80.5114 172.79 80.8603 173.342 81.0952C173.894 81.33 174.489 81.4454 175.089 81.4338C175.689 81.4221 176.28 81.2837 176.822 81.0276C177.452 80.7302 177.999 80.2824 178.415 79.7238C178.83 79.1652 179.101 78.513 179.205 77.8249C179.308 77.1367 179.24 76.4338 179.006 75.7781C178.773 75.1225 178.381 74.5344 177.866 74.0658Z" fill="#FFB8B8"/>
<path d="M203.623 43.4178L200.968 36.2385L196.673 24.6092C196.363 23.763 195.866 22.9974 195.22 22.3692C194.573 21.741 193.793 21.2662 192.937 20.9802C192.87 20.9577 192.798 20.9352 192.731 20.9164C191.902 20.6652 191.029 20.5961 190.17 20.7139C189.312 20.8317 188.49 21.1335 187.76 21.5987L173.293 30.7612C171.969 31.5984 171.022 32.9171 170.652 34.4386C170.283 35.9601 170.521 37.5654 171.315 38.9153C173.124 42.0388 175.095 45.0659 177.221 47.9841C178.907 50.2747 182.045 50.5184 182.59 54.2673H193.256L204.055 44.5875L203.623 43.4178Z" fill="#CCCCCC"/>
<path d="M37.9831 131.16C42.7879 131.16 46.683 127.27 46.683 122.473C46.683 117.675 42.7879 113.786 37.9831 113.786C33.1783 113.786 29.2832 117.675 29.2832 122.473C29.2832 127.27 33.1783 131.16 37.9831 131.16Z" fill="#A0616A"/>
<path d="M59.3411 116.493C59.4268 116.561 59.5099 116.633 59.5904 116.71C59.99 117.086 60.3056 117.542 60.5165 118.048C60.7273 118.554 60.8287 119.099 60.8139 119.647C60.7991 120.195 60.6685 120.734 60.4307 121.228C60.1928 121.722 59.8531 122.161 59.4338 122.514C59.336 122.596 59.234 122.673 59.1282 122.744L59.717 142.593C59.7338 143.243 59.5403 143.881 59.1652 144.412C58.7902 144.944 58.2536 145.34 57.6351 145.543L57.5992 145.55L41.459 147.267C41.0201 147.313 40.5764 147.273 40.1535 147.147C39.7305 147.021 39.3366 146.813 38.9946 146.535C38.6525 146.257 38.3691 145.913 38.1607 145.525C37.9523 145.136 37.823 144.711 37.7803 144.272C37.7376 143.834 37.7824 143.391 37.9119 142.97C38.0415 142.549 38.2534 142.157 38.5353 141.818C38.8172 141.479 39.1636 141.199 39.5544 140.995C39.9452 140.79 40.3728 140.665 40.8124 140.626L52.3179 139.614L54.3076 122.425C54.1775 122.31 54.0556 122.186 53.9429 122.054C53.319 121.316 52.9918 120.374 53.0248 119.409C53.0578 118.445 53.4486 117.527 54.1214 116.834C54.7942 116.141 55.7009 115.722 56.6655 115.659C57.6301 115.596 58.5836 115.893 59.3411 116.493Z" fill="#A0616A"/>
<path d="M52.3113 243.374H56.6542L58.7199 226.649H52.3105L52.3113 243.374Z" fill="#A0616A"/>
<path d="M51.2041 241.958L59.7562 241.958C60.4719 241.958 61.181 242.099 61.8422 242.372C62.5035 242.646 63.1043 243.047 63.6104 243.552C64.1165 244.057 64.5179 244.657 64.7918 245.318C65.0657 245.978 65.2067 246.685 65.2067 247.4V247.577L51.2044 247.577L51.2041 241.958Z" fill="#2F2E41"/>
<path d="M9.14844 237.379L12.8797 239.597L23.2246 226.282L17.7174 223.008L9.14844 237.379Z" fill="#A0616A"/>
<path d="M8.9218 235.597L16.2701 239.965C16.885 240.331 17.4221 240.814 17.8502 241.387C18.2782 241.96 18.589 242.611 18.765 243.304C18.9409 243.996 18.9784 244.717 18.8754 245.424C18.7725 246.131 18.531 246.812 18.1648 247.426L18.0742 247.578L6.04297 240.425L8.9218 235.597Z" fill="#2F2E41"/>
<path d="M57.6789 237.467H52.8161C52.4224 237.467 52.0424 237.322 51.7496 237.059C51.4568 236.796 51.2721 236.434 51.2311 236.043L46.3288 190.029C46.3164 189.914 46.2662 189.805 46.1859 189.72C46.1056 189.636 45.9997 189.58 45.8846 189.562C45.7694 189.543 45.6513 189.563 45.5486 189.618C45.4458 189.673 45.3642 189.761 45.3161 189.867L36.4721 209.421L20.8143 234.915C20.6117 235.242 20.2979 235.485 19.9305 235.6C19.5631 235.715 19.1666 235.693 18.8136 235.54L12.5584 232.792C12.3516 232.701 12.1665 232.567 12.0154 232.399C11.8642 232.232 11.7506 232.034 11.6819 231.819C11.6132 231.604 11.5911 231.377 11.6169 231.152C11.6428 230.928 11.7161 230.712 11.832 230.518L26.2258 206.453L30.6403 186.176C29.2519 177.383 35.2039 164.31 35.2643 164.179L35.2938 164.115L51.6889 157.716L51.7711 157.817C58.2369 179.004 62.1769 201.804 59.2677 236.009C59.2319 236.405 59.0492 236.775 58.7555 237.044C58.4617 237.314 58.0779 237.464 57.6789 237.467Z" fill="#2F2E41"/>
<path d="M34.6333 166.257L34.557 166.097C34.5205 166.02 30.8749 158.343 28.0646 150.137C27.5245 148.55 27.3204 146.869 27.465 145.199C27.6097 143.529 28.1001 141.908 28.9051 140.437C29.7206 138.951 30.8362 137.651 32.1814 136.618C33.5265 135.585 35.0717 134.843 36.7193 134.437C39.5795 133.753 42.5908 134.117 45.2046 135.464C47.8184 136.81 49.8607 139.05 50.9594 141.774C53.1886 147.34 52.4782 153.281 51.8096 157.954L51.7963 158.047L51.711 158.088L34.6333 166.257Z" fill="#3F3D56"/>
<path d="M48.5312 117.566H34.7168V111.553C37.7489 110.35 40.716 109.327 42.5095 111.553C44.1066 111.553 45.6382 112.186 46.7675 113.314C47.8968 114.441 48.5312 115.971 48.5312 117.566Z" fill="#2F2E41"/>
<path d="M33.9519 110.492C25.6934 110.492 23.3818 120.828 23.3818 126.659C23.3818 129.911 24.8547 131.075 27.1692 131.468L27.9866 127.115L29.9011 131.655C30.5512 131.659 31.2342 131.646 31.9423 131.633L32.5914 130.298L34.0389 131.609C39.8363 131.618 44.5218 132.462 44.5218 126.659C44.5218 120.828 42.4946 110.492 33.9519 110.492Z" fill="#2F2E41"/>
<path d="M72.4627 247.985H0.375454C0.275878 247.985 0.180379 247.946 0.109968 247.875C0.0395564 247.805 0 247.71 0 247.61C0 247.511 0.0395564 247.415 0.109968 247.345C0.180379 247.275 0.275878 247.235 0.375454 247.235H72.4627C72.5623 247.235 72.6578 247.275 72.7282 247.345C72.7986 247.415 72.8381 247.511 72.8381 247.61C72.8381 247.71 72.7986 247.805 72.7282 247.875C72.6578 247.946 72.5623 247.985 72.4627 247.985Z" fill="#CCCCCC"/>
<path d="M73.8178 124.643H57.6733C56.7276 124.642 55.821 124.267 55.1523 123.599C54.4837 122.931 54.1075 122.026 54.1064 121.082V104.961C54.1075 104.017 54.4837 103.112 55.1523 102.444C55.821 101.776 56.7276 101.401 57.6733 101.4H73.8178C74.7634 101.401 75.6701 101.776 76.3387 102.444C77.0074 103.112 77.3835 104.017 77.3846 104.961V121.082C77.3835 122.026 77.0074 122.931 76.3387 123.599C75.6701 124.267 74.7634 124.642 73.8178 124.643Z" fill="white"/>
<path d="M73.8178 124.643H57.6733C56.7276 124.642 55.821 124.267 55.1523 123.599C54.4837 122.931 54.1075 122.026 54.1064 121.082V104.961C54.1075 104.017 54.4837 103.112 55.1523 102.444C55.821 101.776 56.7276 101.401 57.6733 101.4H73.8178C74.7634 101.401 75.6701 101.776 76.3387 102.444C77.0074 103.112 77.3835 104.017 77.3846 104.961V121.082C77.3835 122.026 77.0074 122.931 76.3387 123.599C75.6701 124.267 74.7634 124.642 73.8178 124.643ZM57.6733 102.15C56.9267 102.15 56.2109 102.447 55.683 102.974C55.1551 103.501 54.8582 104.216 54.8574 104.961V121.082C54.8582 121.827 55.1551 122.542 55.683 123.069C56.2109 123.596 56.9267 123.893 57.6733 123.894H73.8178C74.5644 123.893 75.2801 123.596 75.808 123.069C76.3359 122.542 76.6329 121.827 76.6337 121.082V104.961C76.6329 104.216 76.3359 103.501 75.808 102.974C75.2801 102.447 74.5644 102.15 73.8178 102.15H57.6733Z" fill="#3F3D56"/>
<path d="M71.0024 118.083H60.4896C60.191 118.082 59.9047 117.964 59.6935 117.753C59.4824 117.542 59.3636 117.256 59.3633 116.958V109.085C59.3636 108.787 59.4824 108.501 59.6935 108.29C59.9047 108.079 60.191 107.961 60.4896 107.96H63.4491C63.6416 107.96 63.831 108.009 63.9991 108.102C64.1671 108.196 64.3081 108.331 64.4084 108.496L65.2338 109.835H71.0024C71.301 109.835 71.5873 109.954 71.7985 110.165C72.0096 110.376 72.1284 110.661 72.1287 110.96V116.958C72.1284 117.256 72.0096 117.542 71.7985 117.753C71.5873 117.964 71.301 118.082 71.0024 118.083Z" fill="#7E30E1"/>
<path d="M70.6606 122.06C70.7132 122.156 70.7617 122.255 70.8062 122.356C71.0285 122.858 71.1421 123.4 71.1397 123.949C71.1373 124.497 71.019 125.038 70.7924 125.538C70.5657 126.037 70.236 126.483 69.8248 126.846C69.4135 127.21 68.9301 127.482 68.406 127.646C68.2841 127.683 68.1603 127.714 68.0351 127.739L60.8641 146.261C60.627 146.866 60.2008 147.379 59.6487 147.724C59.0966 148.068 58.448 148.225 57.7992 148.173L57.7631 148.166L42.2206 143.494C41.798 143.367 41.4048 143.157 41.0637 142.878C40.7226 142.598 40.4404 142.254 40.2334 141.865C40.0263 141.475 39.8985 141.049 39.8573 140.61C39.8162 140.172 39.8625 139.729 39.9936 139.308C40.1246 138.888 40.3379 138.497 40.6211 138.159C40.9042 137.821 41.2516 137.542 41.6432 137.339C42.0348 137.136 42.4628 137.012 42.9026 136.975C43.3423 136.938 43.7851 136.988 44.2053 137.123L55.2024 140.648L63.7164 125.577C63.6411 125.42 63.577 125.259 63.5244 125.093C63.236 124.172 63.3007 123.177 63.706 122.301C64.1113 121.424 64.8283 120.73 65.7176 120.352C66.607 119.974 67.6053 119.939 68.5188 120.255C69.4322 120.571 70.1956 121.214 70.6606 122.06Z" fill="#A0616A"/>
</g>
<defs>
<clipPath id="clip0_22_240">
<rect width="329" height="247.985" fill="white"/>
</clipPath>
</defs>
</svg>
