<svg width="20" height="21" viewBox="0 0 20 21" fill="none" xmlns="http://www.w3.org/2000/svg">
<g clip-path="url(#clip0_338_17)">
<path d="M19.6702 10.6853C19.6702 9.87359 19.6043 9.28126 19.4618 8.66699H10.1929V12.3306H15.6335C15.5239 13.2411 14.9315 14.6123 13.6152 15.5336L13.5968 15.6563L16.5274 17.9266L16.7305 17.9469C18.5952 16.2247 19.6702 13.6908 19.6702 10.6853Z" fill="#4285F4"/>
<path d="M10.1927 20.3382C12.8582 20.3382 15.0959 19.4606 16.7303 17.9469L13.6151 15.5336C12.7815 16.115 11.6626 16.5209 10.1927 16.5209C7.58211 16.5209 5.36636 14.7988 4.57651 12.4185L4.46073 12.4283L1.41339 14.7867L1.37354 14.8974C2.99695 18.1223 6.33158 20.3382 10.1927 20.3382Z" fill="#34A853"/>
<path d="M4.57678 12.4184C4.36837 11.8042 4.24776 11.146 4.24776 10.4659C4.24776 9.78579 4.36837 9.12767 4.56582 8.51341L4.5603 8.38258L1.47477 5.98633L1.37381 6.03435C0.704725 7.3726 0.320801 8.8754 0.320801 10.4659C0.320801 12.0564 0.704725 13.5592 1.37381 14.8974L4.57678 12.4184Z" fill="#FBBC05"/>
<path d="M10.1927 4.41098C12.0465 4.41098 13.297 5.21173 14.01 5.88089L16.7961 3.16053C15.085 1.57001 12.8582 0.59375 10.1927 0.59375C6.33158 0.59375 2.99695 2.8095 1.37354 6.0344L4.56554 8.51346C5.36636 6.13316 7.58211 4.41098 10.1927 4.41098Z" fill="#EB4335"/>
</g>
<defs>
<clipPath id="clip0_338_17">
<rect width="19.3588" height="19.8125" fill="white" transform="translate(0.320801 0.59375)"/>
</clipPath>
</defs>
</svg>
