<svg width="21" height="22" viewBox="0 0 21 22" fill="none" xmlns="http://www.w3.org/2000/svg">
<path d="M19.256 5.35062C19.7685 6.5472 19.8939 7.87407 19.6148 9.14548C19.3357 10.4169 18.6659 11.5692 17.6993 12.441C16.7328 13.3129 15.5177 13.8607 14.2244 14.0077C12.931 14.1547 11.6241 13.8935 10.4865 13.2608L5.00797 19.6084C4.56767 20.0487 3.97049 20.2961 3.34782 20.2961C2.72514 20.2961 2.12796 20.0487 1.68766 19.6084C1.24736 19.1681 1 18.571 1 17.9483C1 17.3256 1.24736 16.7284 1.68766 16.2881L8.03532 10.8096C7.40259 9.67204 7.14144 8.36508 7.28843 7.07171C7.43542 5.77835 7.98319 4.56332 8.85505 3.59674C9.7269 2.63017 10.8792 1.96043 12.1506 1.6813C13.422 1.40217 14.7489 1.52761 15.9455 2.04008L11.8439 6.13187L12.4005 8.89555L15.1642 9.45219L19.256 5.35062Z" stroke="#7C7C8A" stroke-width="1.5625" stroke-linecap="round" stroke-linejoin="round"/>
</svg>
