<svg width="17" height="21" viewBox="0 0 17 21" fill="none" xmlns="http://www.w3.org/2000/svg">
<path d="M12.667 7.79118C12.667 13.3433 4.33366 13.3433 4.33366 7.79118H6.41699C6.41699 10.5724 10.5837 10.5724 10.5837 7.79118M16.8337 17.1662V20.2912H0.166992V17.1662C0.166992 14.3849 5.71908 12.9995 8.50033 12.9995C11.2816 12.9995 16.8337 14.3849 16.8337 17.1662ZM14.8545 17.1662C14.8545 16.4995 11.5941 14.9787 8.50033 14.9787C5.40658 14.9787 2.14616 16.4995 2.14616 17.1662V18.312H14.8545M9.02116 0.499512C9.31283 0.499512 9.54199 0.728678 9.54199 1.02035V4.14534H10.5837V1.54118C11.3209 1.88235 11.9385 2.43721 12.3564 3.13377C12.7744 3.83032 12.9733 4.63641 12.9274 5.44743C12.9274 5.44743 13.6566 5.59326 13.7087 6.74951H3.29199C3.29199 5.59326 4.07324 5.44743 4.07324 5.44743C4.02736 4.63641 4.22629 3.83032 4.64422 3.13377C5.06216 2.43721 5.6798 1.88235 6.41699 1.54118V4.14534H7.45866V1.02035C7.45866 0.728678 7.68783 0.499512 7.97949 0.499512" fill="#7C7C8A"/>
</svg>
