<svg width="25" height="26" viewBox="0 0 25 26" fill="none" xmlns="http://www.w3.org/2000/svg">
<path d="M20.3125 9.09375H4.6875C4.25603 9.09375 3.90625 9.44353 3.90625 9.875V20.8125C3.90625 21.244 4.25603 21.5938 4.6875 21.5938H20.3125C20.744 21.5938 21.0938 21.244 21.0938 20.8125V9.875C21.0938 9.44353 20.744 9.09375 20.3125 9.09375Z" stroke="#7C7C8A" stroke-width="1.5625" stroke-linecap="round" stroke-linejoin="round"/>
<path d="M8.98438 9.09375V5.57812C8.98438 4.64572 9.35477 3.75151 10.0141 3.0922C10.6734 2.4329 11.5676 2.0625 12.5 2.0625C13.4324 2.0625 14.3266 2.4329 14.9859 3.0922C15.6452 3.75151 16.0156 4.64572 16.0156 5.57812V9.09375" stroke="#7C7C8A" stroke-width="1.5625" stroke-linecap="round" stroke-linejoin="round"/>
<path d="M12.5 16.5156C13.1472 16.5156 13.6719 15.991 13.6719 15.3438C13.6719 14.6965 13.1472 14.1719 12.5 14.1719C11.8528 14.1719 11.3281 14.6965 11.3281 15.3438C11.3281 15.991 11.8528 16.5156 12.5 16.5156Z" fill="#7C7C8A"/>
</svg>
