<svg width="63" height="22" viewBox="0 0 63 22" fill="none" xmlns="http://www.w3.org/2000/svg">
<path d="M10.084 5.39844C10.0111 4.71615 9.70378 4.1849 9.16211 3.80469C8.62565 3.42448 7.92773 3.23437 7.06836 3.23437C6.46419 3.23437 5.94596 3.32552 5.51367 3.50781C5.08138 3.6901 4.75065 3.9375 4.52148 4.25C4.29232 4.5625 4.17513 4.91927 4.16992 5.32031C4.16992 5.65365 4.24544 5.94271 4.39648 6.1875C4.55273 6.43229 4.76367 6.64062 5.0293 6.8125C5.29492 6.97917 5.58919 7.11979 5.91211 7.23437C6.23503 7.34896 6.56055 7.44531 6.88867 7.52344L8.38867 7.89844C8.99284 8.03906 9.57357 8.22917 10.1309 8.46875C10.6934 8.70833 11.196 9.01042 11.6387 9.375C12.0866 9.73958 12.4408 10.1797 12.7012 10.6953C12.9616 11.2109 13.0918 11.8151 13.0918 12.5078C13.0918 13.4453 12.8522 14.2708 12.373 14.9844C11.8939 15.6927 11.2012 16.2474 10.2949 16.6484C9.39388 17.0443 8.30273 17.2422 7.02148 17.2422C5.77669 17.2422 4.69596 17.0495 3.7793 16.6641C2.86784 16.2786 2.1543 15.7161 1.63867 14.9766C1.12826 14.237 0.852214 13.3359 0.810547 12.2734H3.66211C3.70378 12.8307 3.87565 13.2943 4.17773 13.6641C4.47982 14.0339 4.87305 14.3099 5.35742 14.4922C5.84701 14.6745 6.39388 14.7656 6.99805 14.7656C7.62826 14.7656 8.18034 14.6719 8.6543 14.4844C9.13346 14.2917 9.50846 14.026 9.7793 13.6875C10.0501 13.3437 10.1882 12.9427 10.1934 12.4844C10.1882 12.0677 10.0658 11.724 9.82617 11.4531C9.58659 11.1771 9.25065 10.9479 8.81836 10.7656C8.39128 10.5781 7.89128 10.4115 7.31836 10.2656L5.49805 9.79687C4.18034 9.45833 3.13867 8.94531 2.37305 8.25781C1.61263 7.5651 1.23242 6.64583 1.23242 5.5C1.23242 4.55729 1.48763 3.73177 1.99805 3.02344C2.51367 2.3151 3.21419 1.76562 4.09961 1.375C4.98503 0.979166 5.98763 0.781249 7.10742 0.781249C8.24284 0.781249 9.23763 0.979166 10.0918 1.375C10.9512 1.76562 11.6257 2.3099 12.1152 3.00781C12.6048 3.70052 12.8574 4.4974 12.873 5.39844H10.084ZM21.543 5V7.1875H14.6445V5H21.543ZM16.3477 2.125H19.1758V13.3906C19.1758 13.7708 19.2331 14.0625 19.3477 14.2656C19.4674 14.4635 19.6237 14.599 19.8164 14.6719C20.0091 14.7448 20.2227 14.7812 20.457 14.7812C20.6341 14.7812 20.7956 14.7682 20.9414 14.7422C21.0924 14.7161 21.207 14.6927 21.2852 14.6719L21.7617 16.8828C21.6107 16.9349 21.3945 16.9922 21.1133 17.0547C20.8372 17.1172 20.4987 17.1536 20.0977 17.1641C19.3893 17.1849 18.7513 17.0781 18.1836 16.8437C17.6159 16.6042 17.1654 16.2344 16.832 15.7344C16.5039 15.2344 16.3424 14.6094 16.3477 13.8594V2.125ZM23.7363 17V15.1953L31.9395 3.42969H23.6895V1H35.5332V2.80469L27.3379 14.5703H35.5801V17H23.7363ZM41.7129 17.2422C40.9525 17.2422 40.2676 17.1068 39.6582 16.8359C39.054 16.5599 38.5749 16.1536 38.2207 15.6172C37.8717 15.0807 37.6973 14.4193 37.6973 13.6328C37.6973 12.9557 37.8223 12.3958 38.0723 11.9531C38.3223 11.5104 38.6634 11.1562 39.0957 10.8906C39.528 10.625 40.015 10.4245 40.5566 10.2891C41.1035 10.1484 41.6686 10.0469 42.252 9.98437C42.9551 9.91146 43.5254 9.84635 43.9629 9.78906C44.4004 9.72656 44.7181 9.63281 44.916 9.50781C45.1191 9.3776 45.2207 9.17708 45.2207 8.90625V8.85938C45.2207 8.27083 45.0462 7.8151 44.6973 7.49219C44.3483 7.16927 43.8457 7.00781 43.1895 7.00781C42.4967 7.00781 41.9473 7.15885 41.541 7.46094C41.14 7.76302 40.8691 8.11979 40.7285 8.53125L38.0879 8.15625C38.2962 7.42708 38.64 6.81771 39.1191 6.32812C39.5983 5.83333 40.1842 5.46354 40.877 5.21875C41.5697 4.96875 42.3353 4.84375 43.1738 4.84375C43.752 4.84375 44.3275 4.91146 44.9004 5.04687C45.4733 5.18229 45.9967 5.40625 46.4707 5.71875C46.9447 6.02604 47.3249 6.44531 47.6113 6.97656C47.903 7.50781 48.0488 8.17187 48.0488 8.96875V17H45.3301V15.3516H45.2363C45.0645 15.6849 44.8223 15.9974 44.5098 16.2891C44.2025 16.5755 43.8145 16.8073 43.3457 16.9844C42.8822 17.1563 42.3379 17.2422 41.7129 17.2422ZM42.4473 15.1641C43.015 15.1641 43.5072 15.0521 43.9238 14.8281C44.3405 14.599 44.6608 14.2969 44.8848 13.9219C45.1139 13.5469 45.2285 13.138 45.2285 12.6953V11.2812C45.14 11.3542 44.9889 11.4219 44.7754 11.4844C44.5671 11.5469 44.3327 11.6016 44.0723 11.6484C43.8118 11.6953 43.554 11.737 43.2988 11.7734C43.0436 11.8099 42.8223 11.8411 42.6348 11.8672C42.2129 11.9245 41.8353 12.0182 41.502 12.1484C41.1686 12.2786 40.9056 12.4609 40.7129 12.6953C40.5202 12.9245 40.4238 13.2214 40.4238 13.5859C40.4238 14.1068 40.6139 14.5 40.9941 14.7656C41.3743 15.0312 41.8587 15.1641 42.4473 15.1641ZM50.8926 21.5V5H53.6738V6.98437H53.8379C53.9837 6.69271 54.1895 6.38281 54.4551 6.05469C54.7207 5.72135 55.0801 5.4375 55.5332 5.20312C55.9863 4.96354 56.5645 4.84375 57.2676 4.84375C58.1947 4.84375 59.0306 5.08073 59.7754 5.55469C60.5254 6.02344 61.1191 6.71875 61.5566 7.64062C61.9993 8.55729 62.2207 9.68229 62.2207 11.0156C62.2207 12.3333 62.0046 13.4531 61.5723 14.375C61.14 15.2969 60.5514 16 59.8066 16.4844C59.0618 16.9688 58.2181 17.2109 57.2754 17.2109C56.5879 17.2109 56.0176 17.0964 55.5645 16.8672C55.1113 16.638 54.7467 16.362 54.4707 16.0391C54.1999 15.7109 53.9889 15.401 53.8379 15.1094H53.7207V21.5H50.8926ZM53.666 11C53.666 11.776 53.7754 12.4557 53.9941 13.0391C54.2181 13.6224 54.5384 14.0781 54.9551 14.4062C55.377 14.7292 55.8874 14.8906 56.4863 14.8906C57.1113 14.8906 57.6348 14.724 58.0566 14.3906C58.4785 14.0521 58.7962 13.5911 59.0098 13.0078C59.2285 12.4193 59.3379 11.75 59.3379 11C59.3379 10.2552 59.2311 9.59375 59.0176 9.01562C58.804 8.4375 58.4863 7.98437 58.0645 7.65625C57.6426 7.32812 57.1165 7.16406 56.4863 7.16406C55.8822 7.16406 55.3691 7.32292 54.9473 7.64062C54.5254 7.95833 54.2051 8.40365 53.9863 8.97656C53.7728 9.54948 53.666 10.224 53.666 11Z" fill="#49108B"/>
</svg>
