<svg width="165" height="43" viewBox="0 0 165 43" fill="none" xmlns="http://www.w3.org/2000/svg">
<path d="M29.2002 14.9668C29.2002 15.7324 28.9268 16.375 28.3799 16.8945C27.8604 17.4414 27.2178 17.7148 26.4521 17.7148H10.0459C9.52637 17.7422 9.08887 17.8652 8.7334 18.084C8.40527 18.2754 8.15918 18.5078 7.99512 18.7812C7.83105 19.0273 7.74902 19.2871 7.74902 19.5605C7.74902 19.834 7.83105 20.1074 7.99512 20.3809C8.15918 20.627 8.40527 20.8594 8.7334 21.0781C9.08887 21.2695 9.52637 21.3789 10.0459 21.4062H21.6943C23.6084 21.4609 25.1807 21.9121 26.4111 22.7598C27.6689 23.5801 28.5576 24.5371 29.0771 25.6309C29.624 26.6973 29.8975 27.791 29.8975 28.9121C29.8975 30.0059 29.624 31.0996 29.0771 32.1934C28.5303 33.2598 27.6416 34.2168 26.4111 35.0645C25.1807 35.8848 23.6084 36.2949 21.6943 36.2949H21.4482C21.2842 36.3223 21.1201 36.3359 20.9561 36.3359H5.45215C4.68652 36.3359 4.03027 36.0762 3.4834 35.5566C2.96387 35.0098 2.7041 34.3535 2.7041 33.5879C2.7041 32.8223 2.97754 32.1797 3.52441 31.6602C4.04395 31.1133 4.68652 30.8398 5.45215 30.8398H21.9404C22.46 30.8672 22.8838 30.7715 23.2119 30.5527C23.5674 30.334 23.8271 30.0879 23.9912 29.8145C24.1553 29.5137 24.2373 29.2129 24.2373 28.9121C24.2373 28.7207 24.1553 28.4609 23.9912 28.1328C23.8271 27.7773 23.5674 27.4902 23.2119 27.2715C22.8838 27.0527 22.46 26.9297 21.9404 26.9023H10.292C8.37793 26.8477 6.79199 26.4102 5.53418 25.5898C4.30371 24.7695 3.41504 23.8398 2.86816 22.8008C2.34863 21.7344 2.08887 20.6543 2.08887 19.5605C2.08887 18.4941 2.3623 17.4414 2.90918 16.4023C3.45605 15.3359 4.34473 14.3926 5.5752 13.5723C6.80566 12.752 8.37793 12.3145 10.292 12.2598H10.5381C10.7021 12.2324 10.8662 12.2188 11.0303 12.2188H26.4521C27.2178 12.2188 27.8604 12.4922 28.3799 13.0391C28.9268 13.5586 29.2002 14.2012 29.2002 14.9668ZM33.7119 14.9668C33.7119 14.2012 33.9717 13.5586 34.4912 13.0391C35.0381 12.4922 35.6943 12.2188 36.46 12.2188H60.3311C61.0967 12.2188 61.7529 12.4785 62.2998 12.998C62.8193 13.5449 63.0791 14.2012 63.0791 14.9668C63.0791 15.7324 62.8057 16.3887 62.2588 16.9355C61.7393 17.4551 61.0967 17.7148 60.3311 17.7148H51.1846V34.3262C51.0205 35.9668 50.1182 36.8555 48.4775 36.9922C47.7119 36.9922 47.042 36.7461 46.4678 36.2539C45.9209 35.7344 45.6475 35.0918 45.6475 34.3262V17.7148H36.46C35.6943 17.7148 35.0518 17.4414 34.5322 16.8945C33.9854 16.375 33.7119 15.7324 33.7119 14.9668ZM94.7432 25.5898C95.2627 26.6836 95.5225 27.791 95.5225 28.9121C95.5225 30.0059 95.249 31.0996 94.7021 32.1934C94.1553 33.2598 93.2666 34.2168 92.0361 35.0645C90.8057 35.8848 89.2334 36.2949 87.3193 36.2949H87.0732C86.9092 36.3223 86.7451 36.3359 86.5811 36.3359H70.0928C69.3545 36.3086 68.7256 36.0488 68.2061 35.5566C67.7139 35.0371 67.4541 34.4082 67.4268 33.6699V14.8848C67.4541 14.1465 67.7139 13.5312 68.2061 13.0391C68.7256 12.5195 69.3545 12.2461 70.0928 12.2188H84.2021C84.3662 12.2188 84.5303 12.2324 84.6943 12.2598H84.9404C86.8545 12.3145 88.4268 12.752 89.6572 13.5723C90.8877 14.3926 91.7764 15.3359 92.3232 16.4023C92.8701 17.4414 93.1436 18.4941 93.1436 19.5605C93.1436 20.6543 92.8838 21.7207 92.3643 22.7598C92.3369 22.8145 92.3096 22.8555 92.2822 22.8828C93.4033 23.6758 94.2236 24.5781 94.7432 25.5898ZM87.5654 30.8398C88.085 30.8672 88.5088 30.7715 88.8369 30.5527C89.1924 30.334 89.4521 30.0879 89.6162 29.8145C89.7803 29.5137 89.8623 29.2129 89.8623 28.9121C89.8623 28.7207 89.7803 28.4609 89.6162 28.1328C89.4521 27.7773 89.1924 27.4902 88.8369 27.2715C88.5088 27.0527 88.085 26.9297 87.5654 26.9023H84.9404H72.9639V29.7324C72.9639 30.4707 73.3467 30.8398 74.1123 30.8398H74.4404H87.5654ZM86.499 21.0371C86.8271 20.8457 87.0732 20.627 87.2373 20.3809C87.4014 20.1074 87.4834 19.834 87.4834 19.5605C87.4834 19.2871 87.4014 19.0273 87.2373 18.7812C87.0732 18.5078 86.8135 18.2754 86.458 18.084C86.1299 17.8652 85.7061 17.7422 85.1865 17.7148H74.1123C73.3467 17.7148 72.9639 18.084 72.9639 18.8223V21.4062H85.1865C85.7061 21.3789 86.1436 21.2559 86.499 21.0371ZM121.772 12.2188C123.167 12.2461 124.411 12.6836 125.505 13.5312C126.599 14.3789 127.474 15.3906 128.13 16.5664C128.813 17.7422 129.319 18.9863 129.647 20.2988C129.976 21.6113 130.14 22.9512 130.14 24.3184C130.14 26.123 129.853 27.9004 129.278 29.6504C128.731 31.373 127.815 32.9043 126.53 34.2441C125.272 35.584 123.687 36.3086 121.772 36.418H107.458C105.544 36.3359 103.944 35.625 102.659 34.2852C101.374 32.9453 100.458 31.4004 99.9111 29.6504C99.3916 27.9004 99.1318 26.123 99.1318 24.3184C99.1318 22.5137 99.4053 20.75 99.9521 19.0273C100.499 17.2773 101.401 15.7324 102.659 14.3926C103.944 13.0254 105.544 12.3008 107.458 12.2188H108.237H120.993H121.772ZM120.378 30.9219C121.417 30.8672 122.278 30.4844 122.962 29.7734C123.673 29.0352 124.179 28.1875 124.479 27.2305C124.78 26.2734 124.931 25.3027 124.931 24.3184C124.931 23.334 124.767 22.377 124.438 21.4473C124.138 20.4902 123.646 19.6426 122.962 18.9043C122.278 18.166 121.417 17.7695 120.378 17.7148H108.729C107.69 17.7695 106.829 18.166 106.146 18.9043C105.462 19.6426 104.956 20.4902 104.628 21.4473C104.327 22.377 104.177 23.334 104.177 24.3184C104.177 25.3027 104.327 26.2734 104.628 27.2305C104.929 28.1875 105.421 29.0352 106.104 29.7734C106.815 30.4844 107.69 30.8672 108.729 30.9219H120.378ZM133.831 14.9668C133.831 14.2012 134.091 13.5586 134.61 13.0391C135.157 12.4922 135.813 12.2188 136.579 12.2188H160.45C161.216 12.2188 161.872 12.4785 162.419 12.998C162.938 13.5449 163.198 14.2012 163.198 14.9668C163.198 15.7324 162.925 16.3887 162.378 16.9355C161.858 17.4551 161.216 17.7148 160.45 17.7148H151.304V34.3262C151.14 35.9668 150.237 36.8555 148.597 36.9922C147.831 36.9922 147.161 36.7461 146.587 36.2539C146.04 35.7344 145.767 35.0918 145.767 34.3262V17.7148H136.579C135.813 17.7148 135.171 17.4414 134.651 16.8945C134.104 16.375 133.831 15.7324 133.831 14.9668Z" fill="#49108B"/>
<path d="M119.988 24.5L120 24.5M110 24.5L110.01 24.5" stroke="#49108B" stroke-width="4" stroke-linecap="round" stroke-linejoin="round"/>
</svg>
