<svg width="244" height="298" viewBox="0 0 244 298" fill="none" xmlns="http://www.w3.org/2000/svg">
<path fill-rule="evenodd" clip-rule="evenodd" d="M136.5 0.870779C111.629 4.02978 88.315 16.7778 74.446 34.7988C66.276 45.4158 60.991 56.7898 57.287 71.7288C55.915 77.2628 55.617 87.5508 55.283 140.979L54.89 203.729H27.445H0V209.822C0 217.582 3.20401 233.344 6.47501 241.675C20.007 276.145 53.709 297.729 94 297.729C139.092 297.729 174.425 271.706 185.721 230.177L188.426 220.229L188.768 157.479L189.11 94.7288H216.555H244L243.987 87.9788C243.946 67.1068 234.194 43.3128 219.5 28.2348C198.719 6.91078 168.19 -3.15422 136.5 0.870779ZM165.247 57.6598C177.189 62.2528 187.397 75.4878 188.695 88.0618L189.28 93.7288H161.677H134.075L133.787 152.979L133.5 212.229L131.167 217.832C125.748 230.85 115.421 239.498 101.938 242.309C79.553 246.976 57.578 231.42 55.294 209.289L54.72 203.729H82.36H110V147.439C110 87.4228 110.154 85.2278 115.039 75.6528C123.96 58.1658 146.013 50.2628 165.247 57.6598Z" fill="#14387F"/>
</svg>