<svg width="252" height="64" viewBox="0 0 252 64" fill="none" xmlns="http://www.w3.org/2000/svg">
<path d="M44.7812 22.1875C44.7812 23.3542 44.3646 24.3333 43.5312 25.125C42.7396 25.9583 41.7604 26.375 40.5938 26.375H15.5938C14.8021 26.4167 14.1354 26.6042 13.5938 26.9375C13.0938 27.2292 12.7188 27.5833 12.4688 28C12.2188 28.375 12.0938 28.7708 12.0938 29.1875C12.0938 29.6042 12.2188 30.0208 12.4688 30.4375C12.7188 30.8125 13.0938 31.1667 13.5938 31.5C14.1354 31.7917 14.8021 31.9583 15.5938 32H33.3438C36.2604 32.0833 38.6562 32.7708 40.5312 34.0625C42.4479 35.3125 43.8021 36.7708 44.5938 38.4375C45.4271 40.0625 45.8438 41.7292 45.8438 43.4375C45.8438 45.1042 45.4271 46.7708 44.5938 48.4375C43.7604 50.0625 42.4062 51.5208 40.5312 52.8125C38.6562 54.0625 36.2604 54.6875 33.3438 54.6875H32.9688C32.7188 54.7292 32.4688 54.75 32.2188 54.75H8.59375C7.42708 54.75 6.42708 54.3542 5.59375 53.5625C4.80208 52.7292 4.40625 51.7292 4.40625 50.5625C4.40625 49.3958 4.82292 48.4167 5.65625 47.625C6.44792 46.7917 7.42708 46.375 8.59375 46.375H33.7188C34.5104 46.4167 35.1562 46.2708 35.6562 45.9375C36.1979 45.6042 36.5938 45.2292 36.8438 44.8125C37.0938 44.3542 37.2188 43.8958 37.2188 43.4375C37.2188 43.1458 37.0938 42.75 36.8438 42.25C36.5938 41.7083 36.1979 41.2708 35.6562 40.9375C35.1562 40.6042 34.5104 40.4167 33.7188 40.375H15.9688C13.0521 40.2917 10.6354 39.625 8.71875 38.375C6.84375 37.125 5.48958 35.7083 4.65625 34.125C3.86458 32.5 3.46875 30.8542 3.46875 29.1875C3.46875 27.5625 3.88542 25.9583 4.71875 24.375C5.55208 22.75 6.90625 21.3125 8.78125 20.0625C10.6562 18.8125 13.0521 18.1458 15.9688 18.0625H16.3438C16.5938 18.0208 16.8438 18 17.0938 18H40.5938C41.7604 18 42.7396 18.4167 43.5312 19.25C44.3646 20.0417 44.7812 21.0208 44.7812 22.1875ZM51.6562 22.1875C51.6562 21.0208 52.0521 20.0417 52.8438 19.25C53.6771 18.4167 54.6771 18 55.8438 18H92.2188C93.3854 18 94.3854 18.3958 95.2188 19.1875C96.0104 20.0208 96.4062 21.0208 96.4062 22.1875C96.4062 23.3542 95.9896 24.3542 95.1562 25.1875C94.3646 25.9792 93.3854 26.375 92.2188 26.375H78.2812V51.6875C78.0312 54.1875 76.6562 55.5417 74.1562 55.75C72.9896 55.75 71.9688 55.375 71.0938 54.625C70.2604 53.8333 69.8438 52.8542 69.8438 51.6875V26.375H55.8438C54.6771 26.375 53.6979 25.9583 52.9062 25.125C52.0729 24.3333 51.6562 23.3542 51.6562 22.1875ZM144.656 38.375C145.448 40.0417 145.844 41.7292 145.844 43.4375C145.844 45.1042 145.427 46.7708 144.594 48.4375C143.76 50.0625 142.406 51.5208 140.531 52.8125C138.656 54.0625 136.26 54.6875 133.344 54.6875H132.969C132.719 54.7292 132.469 54.75 132.219 54.75H107.094C105.969 54.7083 105.01 54.3125 104.219 53.5625C103.469 52.7708 103.073 51.8125 103.031 50.6875V22.0625C103.073 20.9375 103.469 20 104.219 19.25C105.01 18.4583 105.969 18.0417 107.094 18H128.594C128.844 18 129.094 18.0208 129.344 18.0625H129.719C132.635 18.1458 135.031 18.8125 136.906 20.0625C138.781 21.3125 140.135 22.75 140.969 24.375C141.802 25.9583 142.219 27.5625 142.219 29.1875C142.219 30.8542 141.823 32.4792 141.031 34.0625C140.99 34.1458 140.948 34.2083 140.906 34.25C142.615 35.4583 143.865 36.8333 144.656 38.375ZM133.719 46.375C134.51 46.4167 135.156 46.2708 135.656 45.9375C136.198 45.6042 136.594 45.2292 136.844 44.8125C137.094 44.3542 137.219 43.8958 137.219 43.4375C137.219 43.1458 137.094 42.75 136.844 42.25C136.594 41.7083 136.198 41.2708 135.656 40.9375C135.156 40.6042 134.51 40.4167 133.719 40.375H129.719H111.469V44.6875C111.469 45.8125 112.052 46.375 113.219 46.375H113.719H133.719ZM132.094 31.4375C132.594 31.1458 132.969 30.8125 133.219 30.4375C133.469 30.0208 133.594 29.6042 133.594 29.1875C133.594 28.7708 133.469 28.375 133.219 28C132.969 27.5833 132.573 27.2292 132.031 26.9375C131.531 26.6042 130.885 26.4167 130.094 26.375H113.219C112.052 26.375 111.469 26.9375 111.469 28.0625V32H130.094C130.885 31.9583 131.552 31.7708 132.094 31.4375ZM185.844 18C187.969 18.0417 189.865 18.7083 191.531 20C193.198 21.2917 194.531 22.8333 195.531 24.625C196.573 26.4167 197.344 28.3125 197.844 30.3125C198.344 32.3125 198.594 34.3542 198.594 36.4375C198.594 39.1875 198.156 41.8958 197.281 44.5625C196.448 47.1875 195.052 49.5208 193.094 51.5625C191.177 53.6042 188.76 54.7083 185.844 54.875H164.031C161.115 54.75 158.677 53.6667 156.719 51.625C154.76 49.5833 153.365 47.2292 152.531 44.5625C151.74 41.8958 151.344 39.1875 151.344 36.4375C151.344 33.6875 151.76 31 152.594 28.375C153.427 25.7083 154.802 23.3542 156.719 21.3125C158.677 19.2292 161.115 18.125 164.031 18H165.219H184.656H185.844ZM183.719 46.5C185.302 46.4167 186.615 45.8333 187.656 44.75C188.74 43.625 189.51 42.3333 189.969 40.875C190.427 39.4167 190.656 37.9375 190.656 36.4375C190.656 34.9375 190.406 33.4792 189.906 32.0625C189.448 30.6042 188.698 29.3125 187.656 28.1875C186.615 27.0625 185.302 26.4583 183.719 26.375H165.969C164.385 26.4583 163.073 27.0625 162.031 28.1875C160.99 29.3125 160.219 30.6042 159.719 32.0625C159.26 33.4792 159.031 34.9375 159.031 36.4375C159.031 37.9375 159.26 39.4167 159.719 40.875C160.177 42.3333 160.927 43.625 161.969 44.75C163.052 45.8333 164.385 46.4167 165.969 46.5H183.719ZM204.219 22.1875C204.219 21.0208 204.615 20.0417 205.406 19.25C206.24 18.4167 207.24 18 208.406 18H244.781C245.948 18 246.948 18.3958 247.781 19.1875C248.573 20.0208 248.969 21.0208 248.969 22.1875C248.969 23.3542 248.552 24.3542 247.719 25.1875C246.927 25.9792 245.948 26.375 244.781 26.375H230.844V51.6875C230.594 54.1875 229.219 55.5417 226.719 55.75C225.552 55.75 224.531 55.375 223.656 54.625C222.823 53.8333 222.406 52.8542 222.406 51.6875V26.375H208.406C207.24 26.375 206.26 25.9583 205.469 25.125C204.635 24.3333 204.219 23.3542 204.219 22.1875Z" fill="white"/>
<path d="M182.98 37H183M167 37H167.016" stroke="white" stroke-width="6" stroke-linecap="round" stroke-linejoin="round"/>
</svg>
