<svg width="33" height="33" viewBox="0 0 33 33" fill="none" xmlns="http://www.w3.org/2000/svg">
<path opacity="0.6" d="M18 16.6729C18 16.9695 17.912 17.2595 17.7472 17.5062C17.5824 17.7529 17.3481 17.9451 17.074 18.0587C16.7999 18.1722 16.4983 18.2019 16.2074 18.144C15.9164 18.0862 15.6491 17.9433 15.4393 17.7335C15.2296 17.5237 15.0867 17.2565 15.0288 16.9655C14.9709 16.6745 15.0007 16.3729 15.1142 16.0988C15.2277 15.8247 15.42 15.5905 15.6666 15.4256C15.9133 15.2608 16.2033 15.1729 16.5 15.1729C16.8978 15.1729 17.2794 15.3309 17.5607 15.6122C17.842 15.8935 18 16.275 18 16.6729ZM25 15.1729C24.7033 15.1729 24.4133 15.2608 24.1666 15.4256C23.92 15.5905 23.7277 15.8247 23.6142 16.0988C23.5007 16.3729 23.4709 16.6745 23.5288 16.9655C23.5867 17.2565 23.7296 17.5237 23.9393 17.7335C24.1491 17.9433 24.4164 18.0862 24.7074 18.144C24.9983 18.2019 25.2999 18.1722 25.574 18.0587C25.8481 17.9451 26.0824 17.7529 26.2472 17.5062C26.412 17.2595 26.5 16.9695 26.5 16.6729C26.5 16.275 26.342 15.8935 26.0607 15.6122C25.7794 15.3309 25.3978 15.1729 25 15.1729ZM8 15.1729C7.70333 15.1729 7.41332 15.2608 7.16665 15.4256C6.91997 15.5905 6.72771 15.8247 6.61418 16.0988C6.50065 16.3729 6.47094 16.6745 6.52882 16.9655C6.5867 17.2565 6.72956 17.5237 6.93934 17.7335C7.14912 17.9433 7.41639 18.0862 7.70737 18.144C7.99834 18.2019 8.29994 18.1722 8.57403 18.0587C8.84812 17.9451 9.08238 17.7529 9.24721 17.5062C9.41203 17.2595 9.5 16.9695 9.5 16.6729C9.5 16.275 9.34197 15.8935 9.06066 15.6122C8.77936 15.3309 8.39783 15.1729 8 15.1729Z" fill="#49108B"/>
<path d="M25 15.1729C24.7033 15.1729 24.4133 15.2608 24.1666 15.4256C23.92 15.5905 23.7277 15.8247 23.6142 16.0988C23.5007 16.3729 23.4709 16.6745 23.5288 16.9655C23.5867 17.2565 23.7296 17.5237 23.9393 17.7335C24.1491 17.9433 24.4164 18.0862 24.7074 18.144C24.9983 18.2019 25.2999 18.1722 25.574 18.0587C25.8481 17.9451 26.0824 17.7529 26.2472 17.5062C26.412 17.2595 26.5 16.9695 26.5 16.6729C26.5 16.275 26.342 15.8935 26.0607 15.6122C25.7794 15.3309 25.3978 15.1729 25 15.1729ZM8 15.1729C7.70333 15.1729 7.41332 15.2608 7.16665 15.4256C6.91997 15.5905 6.72771 15.8247 6.61418 16.0988C6.50065 16.3729 6.47094 16.6745 6.52882 16.9655C6.5867 17.2565 6.72956 17.5237 6.93934 17.7335C7.14912 17.9433 7.41639 18.0862 7.70737 18.144C7.99834 18.2019 8.29994 18.1722 8.57403 18.0587C8.84812 17.9451 9.08238 17.7529 9.24721 17.5062C9.41203 17.2595 9.5 16.9695 9.5 16.6729C9.5 16.275 9.34197 15.8935 9.06066 15.6122C8.77936 15.3309 8.39783 15.1729 8 15.1729Z" fill="#49108B"/>
</svg>
