<svg width="24" height="24" viewBox="0 0 24 24" fill="none" xmlns="http://www.w3.org/2000/svg">
<path d="M18.4547 20.9481C18.3282 20.9825 18.1977 21 18.0666 21H5.8249C5.69229 21 5.56033 20.9814 5.43287 20.9448V20.9448C4.28368 20.6147 3.38531 19.7163 3.05519 18.5671V18.5671C3.01858 18.4397 3 18.3077 3 18.1751V5.9112C3 5.77921 3.01777 5.64782 3.05282 5.52057L3.08291 5.41132C3.39547 4.27669 4.27375 3.3851 5.40356 3.05553V3.05553C5.52982 3.0187 5.66068 3 5.7922 3H13.1005C14.957 3 16.7375 3.7375 18.0503 5.05025L19.8284 6.82843C20.5786 7.57857 21 8.59599 21 9.65685V18.178C21 18.3087 20.9817 18.4387 20.9456 18.5643V18.5643C20.6157 19.7129 19.7102 20.606 18.5572 20.9201L18.4547 20.9481Z" stroke="white" stroke-width="2" stroke-linecap="round" stroke-linejoin="round"/>
<path d="M19 21H5C4.46957 21 3.96086 20.7893 3.58579 20.4142C3.21071 20.0391 3 19.5304 3 19V5C3 4.46957 3.21071 3.96086 3.58579 3.58579C3.96086 3.21071 4.46957 3 5 3H16L21 8V19C21 19.5304 20.7893 20.0391 20.4142 20.4142C20.0391 20.7893 19.5304 21 19 21Z" fill="white" fill-opacity="0.2"/>
<path d="M14.625 17.625C15.8676 17.625 16.875 16.6176 16.875 15.375C16.875 14.1324 15.8676 13.125 14.625 13.125H8.625C7.38236 13.125 6.375 14.1324 6.375 15.375C6.375 16.6176 7.38236 17.625 8.625 17.625H14.625Z" fill="white" stroke="white" stroke-width="1.5" stroke-linecap="round" stroke-linejoin="round"/>
<path d="M7.5 3.375V4.875C7.5 6.53185 8.84315 7.875 10.5 7.875H15.75" stroke="white" stroke-width="1.5" stroke-linecap="round" stroke-linejoin="round"/>
</svg>
