<svg width="279" height="177" viewBox="0 0 279 177" fill="none" xmlns="http://www.w3.org/2000/svg">
<path d="M189.67 1.87002C188.212 0.638964 186.371 0.0234375 184.147 0.0234375C181.463 0.0234375 179.161 1.1006 177.243 3.25497L65.0689 142.095L21.4645 100.778C20.6975 99.9316 19.7771 99.2776 18.7032 98.816C17.6294 98.3543 16.5173 98.1236 15.3667 98.1236C12.9891 98.1236 10.9181 99.0083 9.15402 100.778L3.51647 106.433C1.82905 108.049 0.985352 110.088 0.985352 112.55C0.985352 115.012 1.82905 117.09 3.51647 118.782L57.8207 173.257C60.5052 175.719 63.5348 176.949 66.9097 176.949C68.8273 176.949 70.6681 176.528 72.4322 175.68C74.1963 174.835 75.6536 173.642 76.8041 172.102L197.262 19.0663C198.567 17.2967 199.218 15.4887 199.218 13.642C199.218 10.7953 198.069 8.52544 195.767 6.83273L189.67 1.87002ZM145.26 141.403C141.808 139.249 138.51 137.094 135.365 134.94C133.908 133.478 131.99 132.747 129.613 132.747C126.928 132.747 124.742 133.709 123.055 135.633L117.762 141.634C116.228 143.403 115.461 145.365 115.461 147.52C115.461 149.905 116.305 151.983 117.992 153.752L137.551 173.257C140.006 175.719 142.997 176.949 146.525 176.949C148.443 176.949 150.284 176.528 152.048 175.68C153.812 174.835 155.307 173.642 156.535 172.102L276.534 19.528C277.837 17.9893 278.489 16.1811 278.489 14.1036C278.489 11.4876 277.415 9.21798 275.267 7.29438L268.825 2.33167C267.368 1.1006 265.564 0.485073 263.417 0.485073C260.81 0.485073 258.546 1.56226 256.629 3.71662L145.26 141.403Z" fill="#53BDEB"/>
</svg>
