<svg width="199" height="177" viewBox="0 0 199 177" fill="none" xmlns="http://www.w3.org/2000/svg">
<path d="M188.684 1.84658C187.227 0.615527 185.385 0 183.162 0C180.477 0 178.175 1.07716 176.258 3.23153L64.0836 142.072L20.4792 100.755C19.7121 99.9082 18.7917 99.2542 17.7178 98.7925C16.6441 98.3309 15.5319 98.1002 14.3814 98.1002C12.0037 98.1002 9.93277 98.9849 8.16867 100.755L2.53112 106.41C0.843701 108.026 0 110.065 0 112.527C0 114.989 0.843701 117.066 2.53112 118.759L56.8354 173.233C59.5199 175.695 62.5495 176.926 65.9243 176.926C67.842 176.926 69.6827 176.504 71.4468 175.657C73.211 174.811 74.6682 173.619 75.8188 172.079L196.277 19.0429C197.582 17.2733 198.232 15.4653 198.232 13.6185C198.232 10.7718 197.083 8.502 194.781 6.80929L188.684 1.84658Z" fill="#6A6A6A"/>
</svg>
